<?xml version="1.0" encoding="utf-8"?>
<!-- Generator: Adobe Illustrator 18.1.1, SVG Export Plug-In . SVG Version: 6.00 Build 0)  -->
<svg version="1.1" xmlns="http://www.w3.org/2000/svg" xmlns:xlink="http://www.w3.org/1999/xlink" x="0px" y="0px"
	 viewBox="0 0 535.7 285.3" enable-background="new 0 0 535.7 285.3" xml:space="preserve">
<g id="Слой_6">
	<g>
		<ellipse fill="#FFFFFF" cx="267.7" cy="142.6" rx="262.7" ry="135.8"/>
		<g>
			<path fill="#D24A43" d="M265.2,13.7c50.7,0.1,102.2,6.9,150,24.3c34.7,12.6,70.8,31.3,93.3,61.6c17.1,23,22.1,52.3,8.2,77.8
				c-17,31.1-51.1,50.7-82.8,64.1c-45.3,19.1-95.3,27.7-144.2,29.6c-51.2,1.9-103.3-3.3-152.4-18.3c-37-11.3-75.7-28.8-102.3-57.7
				c-19.7-21.5-31-50.5-20-78.9c12-30.9,43.6-52,72.5-66.1C130,29.3,178,19,225.1,15.3C238.4,14.2,251.8,13.7,265.2,13.7
				c5.8,0,11.6-13.7,5.2-13.7c-52.5,0.1-105.8,7.4-155.1,25.8C78.6,39.5,40.8,59.9,17.9,92.5c-19.1,27-24.2,60.2-8.9,90.3
				c17,33.5,52.3,55.5,85.6,70.1c46.9,20.5,98.5,29.8,149.5,31.9c53.6,2.2,108.5-3.4,159.8-19.7c39.1-12.4,78.9-31.4,106.3-62.8
				c21.3-24.4,32.5-57.7,21.1-89.3c-12.4-34.2-44.4-57.9-75.7-73.8C411.3,16.8,361.3,5.8,312.1,1.7C298.2,0.6,284.3,0,270.3,0
				C264.5,0,258.7,13.7,265.2,13.7z"/>
		</g>
	</g>
	<g>
		<ellipse fill="#FFFFFF" cx="267.7" cy="137.4" rx="262.7" ry="122.4"/>
	</g>
	<g>
		<g>
			<path fill="#FAE1A7" d="M266.3,16.3c50,0.1,100.8,6.5,148.1,23c34,11.8,69.6,29.3,92.2,58.3c8.5,11,14.7,24,16,38
				c1.2,13.1-2.4,26-8.8,37.4c-17.4,30.4-52,49.3-83.4,61.9c-44.9,18.1-93.9,26.2-142.1,28c-50.5,1.9-101.8-3-150.4-17.1
				c-36.8-10.7-75.3-27.1-102.2-55.4c-19.1-20.1-30-47.8-18.9-74.8c12.6-30.8,44-50.9,72.9-64.4C132.5,31,180.1,21.4,227,17.8
				C240.1,16.8,253.2,16.3,266.3,16.3c4.8,0,7.7-9.5,2.5-9.5c-51.6,0.1-103.7,6.9-152.5,24.2C81,43.5,43.8,62.3,21.1,93.2
				c-18,24.5-22.4,55.6-7.6,82.8c17.3,32,51.9,52.4,84.4,66.1c46.4,19.4,97.2,28.2,147.2,30.2c52.9,2.1,106.7-3,157.5-18.4
				c37.8-11.4,76.8-28.8,103.9-58.4c20.6-22.4,30.7-52.7,19.8-82.1C514.2,80.8,482,58.7,452,44c-43.7-21.4-92.8-31.7-141.1-35.6
				c-14-1.1-28-1.7-42.1-1.7C264.1,6.7,261.1,16.3,266.3,16.3z"/>
		</g>
	</g>
</g>
<g id="Слой_7">
	<text transform="matrix(0.9867 0 0 1 162.5325 228.5006)" font-family="'Michland'" font-size="100.6585">Gretskiy</text>
</g>
<g id="Слой_4">
	<path fill="#85A15A" stroke="#000000" stroke-miterlimit="10" d="M156.8,81.6c-6.5-11.1-17.6-12.9-29.5-13
		c-9.5,23.4,24.8,60.3,37.4,57.8c-3.1-1.2,8.9-5.5,14.1-8.3"/>
	<path fill="#85A15A" stroke="#000000" stroke-miterlimit="10" d="M175.2,111.6c-16.3-1.7-26,4.4-28.2,19.5
		c2.6,18-5.2,28.6-17.1,36.5c46.4,3.8,88.3-1.1,120.1-25.5"/>
	<path fill="none" stroke="#4F6E5B" stroke-miterlimit="10" d="M129.8,167.6c25.2-10.9,48.5-22.2,65.4-35.5"/>
	<polyline fill="none" stroke="#4F6E5B" stroke-miterlimit="10" points="152.1,147.5 165,149.8 162.5,164 	"/>
	<polyline fill="none" stroke="#4F6E5B" stroke-miterlimit="10" points="152.1,133.7 180.7,141.8 177.9,160.6 	"/>
	<line fill="none" stroke="#4F6E5B" stroke-miterlimit="10" x1="195.2" y1="134.3" x2="193.1" y2="158.9"/>
	<line fill="none" stroke="#4F6E5B" stroke-miterlimit="10" x1="189.9" y1="128.6" x2="166.4" y2="120.7"/>
	<line fill="none" stroke="#4F6E5B" stroke-miterlimit="10" x1="211.5" y1="140" x2="211.5" y2="155.8"/>
	<polyline fill="none" stroke="#4F6E5B" stroke-miterlimit="10" points="127.4,68.6 142.6,83.4 165,105.1 	"/>
	<polyline fill="none" stroke="#4F6E5B" stroke-miterlimit="10" points="129.8,83.4 142.6,83.4 144.4,77.1 	"/>
	<polyline fill="none" stroke="#4F6E5B" stroke-miterlimit="10" points="134.8,92.3 152.1,92.6 153,83.4 	"/>
	<line fill="none" stroke="#4F6E5B" stroke-miterlimit="10" x1="159.7" y1="101.2" x2="138.4" y2="101.2"/>
	<line fill="none" stroke="#4F6E5B" stroke-miterlimit="10" x1="143.9" y1="108.6" x2="165" y2="108.6"/>
	<path fill="#85A15A" stroke="#000000" stroke-miterlimit="10" d="M369.4,107.7c16.2-16.7,24.7-32.9,23.2-48.5
		c-6.5,4.7-10.4,13-17.5,13.8c-10.5-3.4-17.2,0.7-22,8.7L369.4,107.7z"/>
	<path fill="#85A15A" stroke="#000000" stroke-miterlimit="10" d="M380.9,81.1c10.3-9.9,20.4-10.7,30.2-1.2
		c8.1,14.2,19.4,17.6,32,16.8c-29.9,27.4-61.6,46.2-97,45.8"/>
	<path fill="none" stroke="#4F6E5B" stroke-miterlimit="10" d="M443,96.7c-2.6,1.9-26.6,10.7-26.3,8.9c-10.1-0.9-21.2-1.1-32.6,2.2"
		/>
	<path fill="none" stroke="#4F6E5B" stroke-miterlimit="10" d="M421.8,96.7l-2.9,8.9c6.5,0.8,8.9,3,8.9,3"/>
	<polyline fill="none" stroke="#4F6E5B" stroke-miterlimit="10" points="411.4,89.2 407.1,105.1 416.8,116.6 	"/>
	<path fill="none" stroke="#4F6E5B" stroke-miterlimit="10" d="M400.1,83.4c0,0-5,19.3-5.5,22.2l2.8,16.4"/>
</g>
<g id="Слой_3">
	<g>
		<path fill="#B99E70" d="M297.1,86.8c-4.7,22.1-39.7,34.1-78.3,26.8c-38.5-7.3-66-31.1-61.3-53.1s39.7-34.1,78.3-26.8
			S301.8,64.7,297.1,86.8z"/>
		<g>
			<path d="M294.2,87.2c-5.3,22.5-34.7,27.4-54,27c-24.6-0.4-52.8-8.6-70.1-27.1c-6-6.5-10.9-15-10.2-24.2
				c0.7-9.3,7.1-16.6,14.8-21.2c22.1-13.3,53.1-10.3,76.4-2C270.1,46.4,298.8,63,294.2,87.2c-0.4,1.9,5.4,1,5.8-0.8
				c4.5-23.7-21.7-40.5-40.4-47.9c-25.4-10-57.4-12.6-82.8-1c-8.9,4.1-17.7,10.5-21.2,20.1c-3.4,9.1-0.7,18.6,4.7,26.3
				c15.6,22.5,47.5,31.8,73.5,33.2c22.3,1.2,60-4.1,66.2-30.7C300.4,84.5,294.6,85.4,294.2,87.2z"/>
		</g>
	</g>
	<path fill="none" stroke="#000000" stroke-width="2" stroke-miterlimit="10" d="M165,47.2"/>
	<g>
		<path fill="#B99E70" d="M160.3,48.9c-4.6,4-8.9,5.7-12.7,3.6c-1.4,0.4-2.1,1.4-1.6,3.3l11.1,8.7"/>
		<g>
			<path d="M159.1,48.5c-1.5,1.2-3,2.4-4.8,3.2c-2.2,1-3.5,0.5-5.7,0c-1-0.2-1.8-0.1-2.7,0.5c-1.8,1.1-2.1,3.2-0.7,4.7
				c3.1,3.2,7.2,5.7,10.7,8.4c0.9,0.7,3.5-0.6,2.3-1.5c-1.9-1.5-3.9-3-5.8-4.5c-1.2-1-2.5-2-3.7-2.9c-0.9-0.7-3-2.1-0.5-3
				c-0.6,0-1.2,0-1.7,0c5.6,2.6,10.8-0.5,15.1-4C162.8,48.1,159.9,47.8,159.1,48.5L159.1,48.5z"/>
		</g>
	</g>
	<polyline stroke="#000000" stroke-miterlimit="10" points="299.2,83.4 304,92.4 283.3,105.1 	"/>
	<g>
		<path fill="#B99E70" d="M145.9,55.8c24.5,97.2,96.9,107.1,151.7,40.6"/>
		<g>
			<path d="M144.5,56.2c7.4,29.1,21.4,61.3,49.3,76.1c21.3,11.3,46.1,8.2,66.7-3c15-8.2,27.6-19.9,38.5-33c0.6-0.7-2.2-0.4-2.6,0.2
				c-17,20.5-40.5,40.1-68.3,41.8c-24.9,1.5-46.1-13.3-59.6-33.2c-10.2-14.9-16.5-32.1-21-49.6C147.2,54.7,144.3,55.4,144.5,56.2
				L144.5,56.2z"/>
		</g>
	</g>
	<g>
		<g>
			<path d="M178.1,55.1c7.5-4.2,16.1-7,24.6-4.1c1.8,0.6,3.5,1.5,5.1,2.5c0.6,0.4,2.1,1.8,2.9,1.9c1.7,0.3,3.8-0.9,5.4-1.4
				c4.8-1.5,10.4-3.5,15.6-3c5.2,0.5,6.7,4.7,7.1,9.3c0.1,0.7,1.3,0.5,1.7,0.4c6.1-1.6,12.3-1.9,18.1,1.1c2.4,1.2,4.1,3.3,6.2,4.7
				c1.7,1.1,2.4,0.6,4.6,1.2c9.4,2.6,13.1,17.8,7,24.9c-2.7,3.2-6.2,2.4-9.3,4.3c-0.7,0.4-1.1,1.4-1.8,1.8c-1.9,1.3-4.5,1.2-6.7,1.1
				c-1.2-0.1-2.4-0.3-3.6-0.4c-5.5-0.2-11.1,0.2-16.6,0.3c-1,0-2,0.1-2.9,0.1c-0.3,0-1.6-0.1-0.7,0.1c-2.6-0.6-5-2.4-7.5-3.2
				c-3.7-1.2-8-1.1-11.9-1.5c-2-0.2-4.7,0-6.6-0.6c1,0.3-0.3-0.4-0.6-0.6c-1.4-0.9-2.8-1.9-4.2-2.9c-3.6-2.4-6.9-4.4-10.8-6.4
				c-2.3-1.1-4.1-2.2-6.6-2.7c-4.7-0.9-9.9-1.6-13.9-4.6c-8.7-6.6,0.5-17.3,5.6-22.8c1.2-1.3-1.6-1.4-2.4-0.6
				c-4.7,5.1-13,14-8.7,21.5c3.9,6.9,12.9,6.3,19.3,8.5c4.8,1.6,9.4,4.6,13.5,7.5c2.1,1.4,4.5,3.8,6.8,4.7c2.1,0.8,5,0.6,7.2,0.8
				c3.1,0.3,6.4,0.4,9.5,0.9c1.5,0.3,4.7,1.7,7.2,2.8c4.5,1.9,10.1,0.7,14.9,0.6c2.8-0.1,5.6-0.3,8.4-0.2c4,0.1,8,1,11.8-0.8
				c1.2-0.6,2-1.8,3.1-2.4c1.1-0.6,2.7-0.6,3.9-1c3.4-1.2,6.3-3.5,7.8-6.8c4-8.3,0-21.7-9.6-24.3c-2.9-0.8-4.3-1.6-6.7-3.4
				c-2.3-1.8-4.9-3.2-7.7-4c-5.5-1.6-11.3-1-16.7,0.4c0.6,0.1,1.1,0.3,1.7,0.4c-1-13-13.1-10.8-22.6-8.2c-1.8,0.5-3.8,1.5-5.6,1.7
				c-2.1,0.2-3.6-1.2-5.4-2.2c-3-1.6-6.3-2.5-9.7-2.8c-7.9-0.7-15.4,2.2-22.2,6C174.5,55,177.1,55.6,178.1,55.1z"/>
		</g>
	</g>
	<g>
		<g>
			<path d="M178.7,55.8c7.1-3.9,15.3-6.8,23.3-4.1c2.9,1,5.2,3.4,8,4.3c1.7,0.6,3.7-0.4,5.4-0.9c4.8-1.5,10.3-3.6,15.5-3.3
				c5.1,0.3,6.5,4.2,6.9,8.7c0.1,1.3,2.6,1,3.3,0.8c6.1-1.6,12.2-1.6,17.8,1.6c2,1.2,3.5,3.3,5.5,4.4c1.7,1,3.5,0.5,5.4,1.2
				c8.4,3.2,11.5,17.1,5.7,23.7c-2.6,3-6.3,2.5-9.4,4.3c-1.9,1.1-0.2,1.5-3.6,2.3c-1.8,0.4-3.7,0.1-5.5-0.1
				c-0.8-0.1-1.6-0.1-2.4-0.1c-5.5-0.1-11.1,0.2-16.6,0.3c-0.9,0-1.9,0-2.8,0.1c-1.9,0,0.6,0.3-0.2,0c-2.5-1-4.9-2.3-7.5-3.1
				c-4-1.2-8.8-1.1-13-1.5c-1.2-0.1-2.4-0.3-3.5-0.3c-0.7,0-2.4-0.6-0.8,0.1c-2.1-0.9-4.1-2.8-6-4c-3.7-2.5-7.2-4.4-11.2-6.4
				c-6.2-3.1-14.1-2.4-19.6-6.9c-7.9-6.5,1.5-16.7,6.3-21.8c1.5-1.6-3.3-1.9-4.5-0.7c-4.5,4.7-11.8,12.6-9.3,19.9
				c2.2,6.3,10.5,8.4,16.3,9.5c4.9,0.9,9.4,2.9,13.8,5.5c3.7,2.2,7.2,6.2,11.3,7.3c5.2,1.5,11.2,0.5,16.5,1.6
				c0.8,0.2,3.4,1.3,5.2,2.1c1.8,0.8,3.2,1.4,5.2,1.5c5.9,0.3,12-0.2,17.9-0.3c3-0.1,6,0.5,9,0.3c1.7-0.1,3.4-0.4,5-1
				c1.6-0.6,2.6-1.9,4-2.7c2.4-1.2,6.4-1.6,9-4.1c2.9-2.7,4.1-6.5,4.5-10.3c0.9-9.5-6.8-18.3-16.2-18.5c0.6,0.2,1.2,0.4,1.9,0.7
				c-8.2-8.4-18.5-9.9-29.6-7c1.1,0.3,2.2,0.5,3.3,0.8c-1.4-17-21.7-9.3-32-6.1c1,0.1,1.9,0.1,2.9,0.2c-11.8-8.6-25.5-6.7-37.8,0.1
				C173,55.5,176.9,56.8,178.7,55.8z"/>
		</g>
	</g>
	<g>
		<g>
			<path d="M173,59.1c4.6,0,9.1,0,13.7,0c2.3,0,3.8-0.2,5.8,0.9c3.9,2.3,5.5,6.1,6.6,10.3c0.1,0.1,0.1,0.1,0.3,0.1
				c5,0.5,13.6,0.3,15.3,6c2.6,8.8-10.7,10.1-16.6,11.4c-1.1,0.2-2.6,1.4-0.6,1c5.6-1.2,17.1-2.2,20.1-8.3c1-2.1,0.4-5.7-1.1-7.5
				c-2.1-2.5-7.5-2.8-10.3-3.2c-1.4-0.2-3.4-0.2-4.4-1.5c-0.5-0.6-0.8-2.5-1.1-3.3c-0.7-1.5-1.6-2.8-2.7-4c-2-2-3.9-3-6.6-3.1
				c-5.4-0.1-10.8,0-16.3,0C174.3,58,171.7,59.1,173,59.1L173,59.1z"/>
		</g>
	</g>
	<g>
		<g>
			<path d="M282.1,80.3c-4.7-2.7-9.7-4-15.2-3.4c-3.2,0.3-5.9,1.5-9.1,1.3c-6.8-0.4-13.5-0.8-20.3-1.2c-1.3-0.1-2.9-0.4-4.2,0
				c-3.5,1.2-6.1,5.5-5.8,9.1c0.9,10,12.2,10.8,19.2,6.6c1.7-1,0.2-2.5-1.3-1.8c-5.5,2.5,10.3,9.9,11.3,10.4
				c1.2,0.6,3.7-0.9,2.2-1.7c-2.6-1.4-5.3-2.8-7.8-4.4c-1.1-0.7-3.4-2.9-4.4-2.5c-0.4-0.6-0.9-1.2-1.3-1.8
				c-5.1,3.1-13.3,3.2-14.7-4.1c-0.6-2.9,0.9-7,3.6-7.6c3.3-0.8,8.4,0.5,11.8,0.7c4.1,0.2,8.3,0.7,12.4,0.7c1.5,0,2-0.1,3.6-0.5
				c6.3-1.6,12.1-1.2,17.8,2C281,82.7,283.5,81.1,282.1,80.3L282.1,80.3z"/>
		</g>
	</g>
	<g>
		<g>
			<path d="M266,65.9c-5.5,2.7-12.7,6.6-13.8,13.4c-0.2,1.4,2.7,1.1,2.9-0.2c0.9-5.8,7.4-9.1,12.1-11.5
				C269.1,66.7,267.5,65.1,266,65.9L266,65.9z"/>
		</g>
	</g>
	<g>
		<g>
			<path d="M188,34.8c1.5,4.2-3.2,4.6-6.2,5.2c-2,0.4-3.9,0.9-5.8,1.6c-2,0.8-4.6,1.9-5.5,4.1c-1.7,3.9,3.2,7.7,5.7,9.9
				c0.9,0.8,3.5-0.5,2.2-1.6c-3.8-3.4-8.4-8-1.4-10.7c4.3-1.7,16.7-1.6,13.8-9.3C190.4,32.8,187.5,33.6,188,34.8L188,34.8z"/>
		</g>
	</g>
	<g>
		<g>
			<path d="M273.5,49.2c0,2.3-0.6,5.4,0,7.7c0.6,2.2,2.9,4.1,3.5,6.6c0.9,3.3,0.3,6.5-1,9.6c-0.2,0.6,2.6,0.3,2.9-0.5
				c2.2-5.7,1.4-10.1-1.6-15.2c-1.5-2.6-0.9-5.9-0.9-8.9C276.4,47.9,273.5,48.4,273.5,49.2L273.5,49.2z"/>
		</g>
	</g>
	<g>
		<g>
			<path d="M221.3,51.9c2.4,6.2-2.6,9.9-7.6,12.4c-0.3,0.2,0.6,0.4,0.8,0.3c5.1-2.6,10.1-6.4,7.7-12.7
				C222.2,51.6,221.2,51.6,221.3,51.9L221.3,51.9z"/>
		</g>
	</g>
	<g>
		<g>
			<path d="M199.7,37.7c10.8-5.1,21-1.4,30.9,3.6c0.8,0.4,3.1-0.8,2.7-1c-11.6-5.9-23.1-8.8-35.3-3C196.3,38.1,199,38,199.7,37.7
				L199.7,37.7z"/>
		</g>
	</g>
	<path fill="none" stroke="#000000" stroke-miterlimit="10" d="M240.3,37.6"/>
	<g>
		<g>
			<path d="M261.8,40.9c-5.1,1-11.6,2.8-13.1,8.5c-0.1,0.4,0.3,0.7,0.6,0.8c2.4,0.6,5.8,1.4,6.5,4.1c0.4,1.7-0.4,3.6-1,5.2
				c-0.6,1.5,2.3,1.3,2.7,0.2c0.8-2.1,1.8-4.5,1-6.7c-1.1-3-4.8-4-7.5-4.7c0.2,0.3,0.4,0.5,0.6,0.8c1.2-4.5,6.7-5.6,10.7-6.4
				C264.1,42.3,263.6,40.5,261.8,40.9L261.8,40.9z"/>
		</g>
	</g>
	<g>
		<g>
			<path d="M156,54.9c-3.5,10.3-0.2,20.2,6.5,28.4c10.3,12.5,25.8,22.5,41.3,26.7c23.6,6.4,50.8,10.8,73.9,0.2
				c8.7-4,16-10.2,22.1-17.5c1.2-1.4-4.3-0.7-5.3,0.4c-11.1,13.4-25.3,20.4-42.8,20.9c-14,0.4-28-2.3-41.4-5.9
				c-14.8-3.9-28.8-12.4-39.4-23.6c-8-8.4-13-19.1-9.2-30.7C162.1,52.7,156.5,53.4,156,54.9L156,54.9z"/>
		</g>
	</g>
	<g>
		<g>
			<path d="M145.6,60.2c3.5,3.2,6.9,6.4,10.4,9.5c0.7,0.6,3.4-0.4,2.7-1.1c-3.5-3.2-6.9-6.4-10.4-9.5
				C147.6,58.4,144.9,59.5,145.6,60.2L145.6,60.2z"/>
		</g>
	</g>
	<g>
		<g>
			<path d="M160.9,50.6c-1.6,1.2-3.1,2.5-4.7,3.7c-0.5,0.4-0.3,0.7,0.2,0.8c0.6,0.1,1.6-0.2,2-0.5c1.6-1.2,3.1-2.5,4.7-3.7
				c0.5-0.4,0.3-0.7-0.2-0.8C162.3,49.9,161.4,50.2,160.9,50.6L160.9,50.6z"/>
		</g>
	</g>
	<g>
		<g>
			<path d="M292.2,92.6c-1.1,2.1-2.2,4.3-3.3,6.4c-0.2,0.5,1,0.3,1.2,0.3c0.5-0.1,1.4-0.3,1.7-0.8c1.1-2.1,2.2-4.3,3.3-6.4
				c0.2-0.5-1-0.3-1.2-0.3C293.5,91.9,292.5,92.1,292.2,92.6L292.2,92.6z"/>
		</g>
	</g>
	<g>
		<path fill="#B99E70" d="M384.1,97.1c0,37.8-34.9,68.4-78,68.4c-41.7,0-75.8-28.7-77.9-64.8c-0.1-1.2-0.1-2.4-0.1-3.6
			c0-37.8,34.9-68.4,78-68.4S384.1,59.3,384.1,97.1z"/>
		<g>
			<path d="M381.2,97.9c-0.3,29.6-22.1,54.2-49.7,62.7c-29.2,9-63.4,0.7-84.1-22.2c-19.2-21.3-22-53-5.5-76.8
				c18-26.1,51.8-36.4,82.1-29.3C354.9,39.4,380.9,65,381.2,97.9c0,1.3,5.8,0.3,5.8-1.6c-0.3-32.3-25.4-57.7-55.6-65.8
				c-30-8.1-64.9-0.4-87,21.9c-22.1,22.4-25.6,56.9-6.9,82.5c19.3,26.5,54.9,36.4,86.2,29.9c33.3-6.9,62.9-32.9,63.2-68.6
				C387.1,95.1,381.3,96,381.2,97.9z"/>
		</g>
	</g>
	<path stroke="#000000" stroke-width="2" stroke-miterlimit="10" d="M228,94.4l-5.7,16.5c0,6.1,3.8,10.1,11.5,11.9"/>
	<path stroke="#000000" stroke-width="2" stroke-miterlimit="10" d="M384,100.7c6.3-3.2,11.2-6.8,10.5-11.7
		c-6.7-5.1-11.4-9.3-15.3-15.9"/>
	<g>
		<g>
			<path d="M226.8,101.3c11.9,15.1,30.1,26.3,49.7,27c13,0.4,25.1-3.7,37.3-7.3c15.5-4.6,30.9-10.6,45.3-18.1
				c5-2.6,9.8-5.6,14.6-8.3c4-2.3,7.7-3.9,10.7-7.3c1.2-1.3-1.7-1.3-2.3-0.5c-2.4,2.7-5,4-8.2,5.8c-4.7,2.7-9.4,5.3-14.1,8
				c-5.7,3.3-13.3,6.2-20.1,9.2c-14.6,6.4-29.2,11.7-45.4,15.2c-25,5.5-49.3-5-64.8-24.7C228.8,99.3,226.1,100.3,226.8,101.3
				L226.8,101.3z"/>
		</g>
	</g>
	<g>
		<g>
			<path d="M227,111.3c10.4,13.2,24.1,22.4,40.9,24.7c11.6,1.6,23.7,1.4,35-1.9c8-2.3,15.9-4.7,23.9-7c8.1-2.3,16.1-4.6,23.6-8.4
				c4-2.1,7.4-4.9,11.2-7.1c4.9-2.8,9.8-5.6,14.6-8.3c3.4-1.9,6.1-3.3,8.6-6.1c0.6-0.6-2.2-0.3-2.6,0.2c-4.7,5.3-12.4,8.2-18.5,11.7
				c-2.3,1.3-4.7,2.5-6.9,3.9c-7.1,4.8-14,8.4-22.2,11c-8.6,2.7-17.3,5-25.9,7.5c-3.6,1.1-7.3,2.3-10.9,3.2
				c-6.1,1.4-13.1,1.1-19.3,0.9c-19.9-0.7-36.3-9.5-48.6-25C229.3,109.8,226.8,111,227,111.3L227,111.3z"/>
		</g>
	</g>
	<g>
		<g>
			<path d="M314.4,30.1c5.3,1.9,10.8,3.6,16,5.8c10.3,4.5,20.4,13.9,25.6,23.8c4.8,9.1,9,21.9,18.1,27.8c1,0.7,5.1,1.8,5.7,2.5
				c0.6,0.8-0.1,4.4-0.1,5.2c-0.4,6.5-1.2,13-1.8,19.4c-0.1,1.4,2.8,1,2.9-0.2c0.7-6.8,1.5-13.7,1.9-20.6c0.2-3.1,0.8-4.6-1.9-5.9
				c-6.7-3.2-10.3-7.3-13.8-13.8c-3-5.8-5.9-11.7-9.2-17.4c-5.4-9.3-15.4-18.3-25.3-22.6c-5.3-2.3-10.9-4-16.4-5.9
				C314.9,27.8,312.7,29.5,314.4,30.1L314.4,30.1z"/>
		</g>
	</g>
	<g>
		<g>
			<path d="M363.9,99.4c-5.8-5.3-12.4-9.2-19.9-11.3c-8.9-2.5-17.9-4.1-27.1-3.3c-10.8,0.9-21.7,2.7-32.5,3.9
				c-1.3,0.1-2.5,1.6-0.4,1.4c8.5-0.9,17-1.8,25.4-3c18-2.7,38.2,0.9,51.9,13.5C361.8,101.1,364.5,100,363.9,99.4L363.9,99.4z"/>
		</g>
	</g>
	<g>
		<g>
			<path d="M352.3,105.1c-4.2-3.5-14.7-13.7-20.3-6.6c-0.7,0.9,2.1,0.7,2.7,0c2.8-3.6,12.9,6,14.9,7.7
				C350.3,106.8,353,105.6,352.3,105.1L352.3,105.1z"/>
		</g>
	</g>
	<g>
		<g>
			<path d="M353.6,117c2.4,6-3.3,12.7-6.7,17.1c-0.6,0.8,2.2,0.5,2.6-0.1c3.6-4.6,9.4-11.5,7-17.8
				C356.2,115.4,353.3,116.3,353.6,117L353.6,117z"/>
		</g>
	</g>
	<g>
		<g>
			<path d="M343.1,120.6c-6.1,9.5-10.8,20-21.5,25.1c-8,3.8-17,5-25.8,5.4c-12,0.5-24,0.1-36-0.2c-1.3,0-3,1.9-1,2
				c20.7,0.5,44.7,3.5,64.1-5.6c11.5-5.4,16.5-16.2,23-26.4C346.7,119.6,343.8,119.6,343.1,120.6L343.1,120.6z"/>
		</g>
	</g>
	<g>
		<polyline points="230.6,110.1 237.6,116.6 241.7,131.2 241.7,135.8 		"/>
		<g>
			<path d="M229.2,110.7c1.9,1.8,4,3.5,5.8,5.4c1.5,1.6,1.7,2.9,2.3,5c1.5,5.2,3,9.7,3,15.1c0,0.9,2.9,0.3,2.9-0.8
				c0-5.7-1.7-10.5-3.2-15.9c-1.3-4.6-4.5-6.6-8-9.9C231.2,108.9,228.5,110,229.2,110.7L229.2,110.7z"/>
		</g>
	</g>
	<g>
		<polyline points="244.6,136.2 264.9,153.7 272.6,158.9 		"/>
		<g>
			<path d="M243.2,136.7c9.2,7.9,18,15.9,28,22.7c0.8,0.6,3.5-0.6,2.7-1.1c-10-6.8-18.8-14.8-28-22.7
				C245.2,135,242.5,136.1,243.2,136.7L243.2,136.7z"/>
		</g>
	</g>
	<g>
		<path d="M240.7,127.4c2.8,4.2,5.6,8.4,8.4,12.6"/>
		<g>
			<path d="M239.3,128.1c2.8,4.2,5.6,8.4,8.4,12.6c0.7,1.1,3.5,0,2.7-1.3c-2.8-4.2-5.6-8.4-8.4-12.6
				C241.3,125.7,238.5,126.8,239.3,128.1L239.3,128.1z"/>
		</g>
	</g>
	<g>
		<line x1="382.6" y1="94.4" x2="374.8" y2="127.4"/>
		<g>
			<path d="M381.2,94.6c-2.6,11-5.2,22-7.8,33.1c-0.2,1,2.7,0.6,2.9-0.4c2.6-11,5.2-22,7.8-33.1C384.3,93.1,381.4,93.6,381.2,94.6
				L381.2,94.6z"/>
		</g>
	</g>
	<g>
		<g>
			<path d="M234.4,71c1.3-3.8,5.2-7.1,7.9-9.8c4.5-4.5,9.2-8.6,14.1-12.7c4.7-3.9,9.5-7.7,14.6-11.1c1.9-1.3,3.8-2.6,5.8-3.6
				c1.1-0.6,1.9-1.4,1.6-0.2c-0.3,1.2,2.6,0.8,2.9-0.3c0.8-3.4-4.1-1.6-5.5-0.9c-5.8,2.7-11.1,7-16.1,11c-6.3,5-12.4,10.2-18.2,15.8
				c-3.5,3.4-8.4,7.5-10.1,12.3C231.1,72.4,234.1,72.1,234.4,71L234.4,71z"/>
		</g>
	</g>
	<polygon stroke="#000000" stroke-miterlimit="10" points="373.7,85.1 379.1,87.4 377.6,90.1 375.7,90.9 	"/>
	<polyline stroke="#000000" stroke-miterlimit="10" points="371.2,83.4 373.7,86.9 374.8,88.3 	"/>
	<g>
		<g>
			<path fill="#E5C986" d="M292.5,57.2c-1.2,0.1-6.8-0.8-2.8,0.1c1,0.2,2,0.4,3,0.7c2.6,0.6,5.2,1.3,7.8,1.9
				c6.2,1.5,12.5,2.5,18.9,2.8c3.8,0.2,7.8,0.2,11.6-0.4c1-0.1,6.1-0.7,6.9-2.1c2.1-3.6-9-4.2-10.5-4.3c-5-0.3-10.8-2.4-16-3.5
				c-8.9-1.8-17.8-2.4-26.8-2c-2,0.1-12.4,0.5-10.5,4.3c0.8,1.5,5.7,1.9,6.9,2.1C284.7,57.4,288.6,57.3,292.5,57.2L292.5,57.2z"/>
		</g>
	</g>
	<g>
		<g>
			<path fill="#E5C986" d="M190.4,53.7c1.6,1.1,2.7,2,4,3.4c0.6,0.7,1.7,1,2.5,1.2c1.3,0.3,2.9,0.4,4.2,0.2c0.6-0.1,5.2-0.9,3.8-2.4
				c-1.5-1.7-3.3-3.1-5.1-4.3c-0.9-0.6-2.3-0.8-3.3-0.9c-1.3-0.1-2.9-0.1-4.2,0.2C191.2,51.3,188.4,52.4,190.4,53.7L190.4,53.7z"/>
		</g>
	</g>
	<g>
		<g>
			<path fill="#E5C986" d="M231.3,55.9c-1.4,0.1-2.8,0.2-4.1,0.2c-0.8-0.1-1.6-0.2-2.4-0.3c0.4,0.1,0.3,0.1,0,0c0,0,0.3,0.2,0.3,0.2
				c0.4,0.3,0.7,0.6,1,1.1c0.6,0.8,1,1.9,1.3,2.8c0.2,0.6,1.1,0.8,1.6,0.9c1.2,0.3,2.6,0.4,3.9,0.4c0.4,0,5.9-0.2,5.5-1.3
				c-0.7-1.8-1.4-3.8-3.2-4.8c-1.4-0.8-2.9-1.1-4.5-1.3c-2.4-0.2-4.9-0.2-7.2,0.4c-0.2,0.1-1.6,0.3-1.6,0.9c0,0.5,1.4,0.8,1.6,0.9
				C226,56.5,228.9,56.5,231.3,55.9L231.3,55.9z"/>
		</g>
	</g>
	<g>
		<g>
			<path fill="#E5C986" d="M174.6,61c-2.3,3-3.3,8.6-1.6,12.2c1.9,3.9,7.7,5.2,11.6,5.6c1.2,0.1,5.4-0.7,6.3,0
				c0.2,0.2,0.8,2.5,1.4,3.1c0.6,0.7,1.3,1.3,2.1,1.7c3.7,2.1,8.7,2.1,12.6,1.1c1.6-0.4,3.5-1.1,2-2.6c-1.4-1.4-5.8-1.1-7.5-0.7
				c2.8-0.7-1.6-4.4-2.6-5c-2-1.1-4.4-1.3-6.6-1.4c-3.6-0.2-7.6,0.4-8.7-4.2c-0.7-2.9,0-6.6,1.7-8.8C186.7,60.1,176.5,58.5,174.6,61
				L174.6,61z"/>
		</g>
	</g>
	<g>
		<g>
			<path fill="#E5C986" d="M199.1,61.1c-0.3,1.8-0.6,4,0.6,5.6c1.3,1.5,3.9,1.7,5.6,2.3c4.5,1.4,10.2,3.2,11.8,8.2
				c0.6,2,11,0.1,11,0c-1.3-4.2-5.3-6.1-9.1-7.6c-2.1-0.8-4.6-1.1-6.7-2.1c-2.9-1.4-2.8-3.4-2.3-6.3
				C210.2,60.5,199.3,59.4,199.1,61.1L199.1,61.1z"/>
		</g>
	</g>
	<g>
		<g>
			<path fill="#B99E70" d="M268.3,52.5c22,9.9,46.8,12,70.4,7.6c2.1-0.4,6.5-1.9,5.1-4.8c-1.5-3-7.9-3-10.6-3.1
				c-7.8-0.2-15.4-1.6-22.9-3.7c-3.7-1-8.6-0.8-12.2,0.3c-1.4,0.5-5.8,2.1-3.9,4.5c3.8,4.7,9.3,6.7,15,8.2c1.7,0.4,5.3,2.1,6.9,1.8
				c0.2-0.4,0.4-0.9,0.6-1.3c-0.6,0.1-1.2,0.2-1.8,0.4c-2,0.2-3.9,1.3-5.5,2.3c-4.3,2.5,1.7,5.3,3.9,5.8c4.7,1.1,10.7,1,15.1-1.5
				c-2.2,0.6-2.4,0.8-0.6,0.4c1.2-0.2,2.3-0.5,3.4-0.9c1.7-0.6,3.8-1.6,5-3.1c2.3-3.1,0.1-5.6-2.7-7.2c-5.5-3-13.9-2-18-7.1
				c-5.4,1.6-10.8,3.2-16.2,4.8c11.1,3,22.5,4.5,34,4.8c-1.9-2.6-3.7-5.3-5.6-7.9c-15,2.8-29.9-0.1-43.7-6.3c-4.4-2-11.2-1.9-15.6,0
				C264.3,48.2,264.4,50.8,268.3,52.5L268.3,52.5z"/>
		</g>
	</g>
	<g>
		<g>
			<path fill="#B99E70" d="M326.8,58.8c-10.7-1.1-23.4-2.2-30.8-11.2c-1.7,2-3.4,4.1-5.1,6.1c-0.3,0-0.7,0-1-0.1
				c-0.7-2.8-1.5-5.7-2.2-8.5c-8.7,4.2-17,9.5-24.5,15.6c-3.9,3.2,0.9,6.5,3.9,7.4c4.6,1.4,11.1,1.2,15.1-1.9
				c6.6-5.3,13.5-9.7,21.1-13.4c5.5-2.7,2.6-7.4-2.2-8.5c-7.2-1.6-14-1.7-21.2,0.1c-1.8,0.5-7.4,3.3-5.1,6.1
				c11.4,13.7,29.3,17,46.1,18.8c3.8,0.4,11.6,0.5,13.5-3.8C336.4,61.2,329.7,59.1,326.8,58.8L326.8,58.8z"/>
		</g>
	</g>
	<g>
		<g>
			<path fill="#B99E70" d="M340.9,60.3c0.2-0.2,0.3-0.3,0.5-0.5c-0.1,0.1-0.3,0.2-0.4,0.3c1-0.6,2-0.4-0.9-0.1
				c-2.6,0.1-5.2,0.2-7.8,0.3c0.1,0,0.2,0,0.3,0c-2.6-0.1-5.2-0.2-7.8-0.3c-0.6-0.1-1.2-0.2-1.8-0.3c0.2,0,0.3,0.1,0.5,0.2
				c0.2,0.2,0.5,0.3,0.7,0.4c-0.1-0.1-0.3-0.2-0.4-0.3c0.6,0.6,0.9,1.3,1.6,1.9c0.6,0.5,1,0.5,1.8,0.7c2.2,0.4,4.6,0.4,6.9,0.5
				c2.8,0.1,5.7,0.1,8.5-0.1c0.6,0,4.4,0,5.1-0.7c0.1-0.1,0.3-0.2,0.4-0.3c-0.4-0.4-0.9-0.6-1.5-0.6c-2.2-0.4-4.4-0.4-6.6-0.5
				c-0.1,0-0.2,0-0.3,0c2.6,0.3,5.1,0.5,7.7,0.8c-0.1,0-0.2-0.1-0.3-0.1c0.1,0.1,0.3,0.2,0.4,0.3c-0.8-0.7-1.2-1.7-2.1-2.3
				c-1.7-1.1-4.1-1.1-6-1.3c-5.5-0.4-11.4-0.6-16.8,0.3c-1.4,0.2-2.6,0.6-3.6,1.6c-0.3,0.3,3.9,0.9,3.2,0.8c2.6,0.3,5.2,0.3,7.8,0.3
				c2.6,0,5.2,0,7.8-0.3C338.6,61,340.1,61,340.9,60.3L340.9,60.3z"/>
		</g>
	</g>
	<g>
		<g>
			<path fill="#C1A975" d="M252,138.8c14.6,7,31.5,8.3,47.1,3.8c-2.2-1.3-4.4-2.5-6.7-3.8c-5.3,2.4-10.7,2.7-16.4,2.8
				c-2.5,0.1-4.9,0.1-7.4,0.3c-1.1,0.1-2.2,0.1-3.4,0.3c-0.6,0.1-4.7,0-2.3,0.4c1.1,0.4,2.2,0.7,3.3,1.1c-1.4-1.4-2.6-3.3-3.8-4.9
				c-3.4,0.6-6.7,1.2-10.1,1.8c3.3,2.6,6.7,6,10.7,7.7c4.5,1.9,9.6,0.9,14.3,0.2c11-1.7,21.8-4,32.5-7.1c1.7-0.5,3.6-1.6,2-3.3
				c-1.5-1.6-5.7-1.4-7.5-0.9c-7.8,2.2-15.8,4.1-23.8,5.6c-2.7,0.5-8.7,2.1-10.5,1.7c-1.5-0.3-6.2-5-8-6.3
				c-1.7-1.3-12.3-1.1-10.1,1.8c2.5,3.3,4.3,6.6,8.7,7.2c4.2,0.6,8.7-0.7,13-0.8c9.2-0.3,18.3-0.4,26.8-4.3c1.9-0.9,1.8-1.9,0.4-3.1
				c-1.6-1.4-5.3-1.1-7.1-0.6c-11.5,3.3-23,2.2-33.8-3c-2.1-1-5.7-1.2-7.8,0C250.2,136.5,249.9,137.8,252,138.8L252,138.8z"/>
		</g>
	</g>
	<g>
		<g>
			<path fill="#C1A975" d="M308.1,141.6c3.5-0.4,5.8-1.5,8.7-3.5c3.4-2.4,7.1-4.1,11.2-4.8c2-0.4,1.7-0.9,0-1.4
				c-2.3-0.6-5.4-0.4-7.8,0c-3.3,0.6-6.4,1.5-9.5,2.9c-1.5,0.7-2.8,1.5-4.2,2.4c-1,0.7-2.8,2.5-4.1,2.7c-1.2,0.1-3.5,0.2-2,1.3
				C302,142.3,306.5,141.8,308.1,141.6L308.1,141.6z"/>
		</g>
	</g>
	<g>
		<g>
			<path fill="#C1A975" d="M209.7,119.8c-1.8,2.9-6.6,10.6-3.3,13.7c1.2,1.1,3.1,1.1,4.6,1.2c1.9,0.1,4.3,0.2,6.1-0.7
				c0.5-0.2-2.6-0.5-2.8-0.6c-1.4,0-3.6-0.3-4.9,0.3c0,0-0.1,0.1-0.1,0.1c2.1,0,4.2,0.1,6.3,0.1c-5.6-0.9,0.7-11.9,2.1-14.2
				c0.1-0.2-3.7-0.5-4-0.5C212.9,119.4,210.1,119.1,209.7,119.8L209.7,119.8z"/>
		</g>
	</g>
	<g>
		<g>
			<path fill="#C1A975" d="M216.5,124.5c-1,3.2-1.5,7.2,2,9.1c1.6,0.8,3.7,0.9,5.5,0.5c0.7-0.2,3.1-1.2,1.4-2
				c-2.8-1.4-1.6-5.3-0.9-7.6C225,123.1,217.3,122.1,216.5,124.5L216.5,124.5z"/>
		</g>
	</g>
	<g>
		<g>
			<path fill="#C1A975" d="M222.2,128.9c0.6,0.4,1.1,0.9,1.5,1.6c0-0.1-0.1-0.2-0.1-0.3c0.3,0.6,0.5,1.2,0.6,1.9
				c0,0.4,0.9,0.6,1.2,0.7c0.9,0.2,1.9,0.3,2.8,0.3c0.9,0,1.9,0,2.8-0.3c0.3-0.1,1.2-0.2,1.2-0.7c-0.1-1.5-1-2.9-2.2-3.7
				c-1.3-0.8-3.4-0.8-4.9-0.7c-0.8,0.1-1.7,0.1-2.4,0.4C222.4,128.2,221.8,128.6,222.2,128.9L222.2,128.9z"/>
		</g>
	</g>
	<g>
		<g>
			<path fill="#C1A975" d="M188.1,109.7c0.1-0.1,0.3-0.2,0.4-0.2c-1.3,0.2-2.6,0.4-3.9,0.6c-1.1-0.1-1.1-0.9-0.8,0.3
				c0.2,0.6,0.6,1.2,0.8,1.8c0.4,1.2,0.6,2.4,0.7,3.7c0.1,1.9,0,3.5,1.4,4.9c1.3,1.3,3.8,1.4,5.5,0.8c1.3-0.4,2.8-1.7,1.4-3
				c-0.8-0.7-0.3-3.2-0.5-4.3c-0.3-1.7-0.8-3.5-1.6-5.1c-1.7-3.2-5.9-4.5-9.1-2.6c-1.4,0.9-1.4,2.2,0,3.1
				C184,110.6,186.6,110.6,188.1,109.7L188.1,109.7z"/>
		</g>
	</g>
	<g>
		<g>
			<path fill="#C1A975" d="M198.1,116.8c-2.2-0.5-1-0.7-0.9,0.3c0,0.4,0.2,0.9,0.2,1.3c0.1,1.1,0.2,2.2,0.4,3.3
				c0.4,2.2,1.2,4.1,2.8,5.6c1.4,1.2,3.8,1.4,5.5,0.8c1.2-0.4,2.8-1.8,1.4-3c-2.1-1.9-1.8-4.9-2.2-7.5c-0.5-3-2.2-4.4-5.1-5.1
				c-1.4-0.3-4.2,0-4.9,1.5C194.6,115.8,196.9,116.6,198.1,116.8L198.1,116.8z"/>
		</g>
	</g>
	<g>
		<g>
			<path fill="#C1A975" d="M166,95.5c0.9,3.1,2.4,5.7,4.5,8.1c1.7,1.9,9.4,0.8,6.9-2.1c-1.8-2-2.9-4.5-3.7-7.1
				c-0.4-1.6-3.7-1.6-4.9-1.4C167.5,93.2,165.6,93.8,166,95.5L166,95.5z"/>
		</g>
	</g>
	<g>
		<g>
			<path fill="#C1A975" d="M173.4,107.8c0.8,3.9,2.4,7.5,4.7,10.7c0.8,1.2,3.7,1,4.9,0.9c0.5,0,3.6-0.4,2.8-1.5
				c-2.2-3-3.7-6.4-4.5-10C180.9,105.7,173.1,106.4,173.4,107.8L173.4,107.8z"/>
		</g>
	</g>
	<g>
		<g>
			<path fill="#C1A975" d="M189.1,122.8c-0.3,1.7,1.5,2.8,2.5,3.8c1.3,1.1,2.6,2.3,3.9,3.4c1.3,1.2,3.9,1.1,5.5,0.7
				c1.2-0.3,2.8-1.3,1.4-2.5c-1.1-0.9-2.1-1.9-3.2-2.8c-0.7-0.6-2.3-1.5-2.2-2.6c0.1-0.6-0.8-1.1-1.2-1.3c-0.8-0.4-1.9-0.6-2.8-0.5
				C191.8,120.9,189.4,121.1,189.1,122.8L189.1,122.8z"/>
		</g>
	</g>
	<g>
		<g>
			<path fill="#C1A975" d="M292.4,160c0.1,0,1.1,0.1,0.3,0c0.1,0,0.8,0.1,0.5,0.1c-0.3,0,0.5,0.1,0.5,0.1c0.2,0,0.5,0.1,0.6,0.2
				c1.7,0.5,3.7,0.6,5.5,0.3c0.5-0.1,1.5-0.1,1.8-0.6c0.3-0.4,0-0.6-0.4-0.7c-2.2-0.7-4.4-1.1-6.8-1.2c-1-0.1-2.1-0.1-3.1,0.1
				c-0.4,0.1-1.6,0.2-1.8,0.6C289,159.7,292.2,159.9,292.4,160L292.4,160z"/>
		</g>
	</g>
	<g>
		<g>
			<path fill="#C1A975" d="M308.3,162.5c5,0.1,9.9-0.6,14.7-1.8c1.3-0.3,2.6-1.4,1.4-2.7c-1.2-1.3-4-1.1-5.5-0.7
				c-3.5,0.9-7.1,1.3-10.7,1.3c-1.1,0-4,0.3-4,1.9C304.3,162.2,307.2,162.5,308.3,162.5L308.3,162.5z"/>
		</g>
	</g>
	<g>
		<g>
			<path fill="#C1A975" d="M332.8,153.8c1-0.7,1.9-1.4,2.9-2c0.4-0.3,0.7-0.6,0.4-1.1c-0.3-0.5-1.3-0.7-1.8-0.8
				c-1-0.2-2.1-0.3-3.1-0.1c-0.8,0.1-1.7,0.2-2.4,0.6c-1,0.7-1.9,1.4-2.9,2c-0.4,0.3-0.7,0.6-0.4,1.1c0.3,0.5,1.3,0.7,1.8,0.8
				c1,0.2,2.1,0.3,3.1,0.1C331.2,154.4,332.2,154.3,332.8,153.8L332.8,153.8z"/>
		</g>
	</g>
	<g>
		<g>
			<path fill="#C1A975" d="M345,138.6c0.4,0,4,0.1,4-0.6c0-0.7-3.8-0.6-4-0.6c-0.4,0-4-0.1-4,0.6C341,138.6,344.8,138.6,345,138.6
				L345,138.6z"/>
		</g>
	</g>
	<g>
		<g>
			<path fill="#C1A975" d="M339.3,144.5c1.1-0.7,2.4-1.3,3.6-1.5c0.1,0,1.2-0.2,1.2-0.5c0-0.3-1.1-0.5-1.2-0.5
				c-1.8-0.3-3.9-0.3-5.7,0c-2,0.4-3.9,1-5.7,2.1c-0.4,0.3,0.3,0.5,0.4,0.5c0.7,0.2,1.6,0.3,2.4,0.3c1,0,2.1,0,3.1-0.1
				C338.1,144.9,338.8,144.8,339.3,144.5L339.3,144.5z"/>
		</g>
	</g>
	<g>
		<g>
			<path fill="#C1A975" d="M345.1,146.4c3.8,0.7,7.8,0,11.1-1.9c1.5-0.9,1.4-2.5,0-3.4c-1.6-1-4-0.9-5.7,0c-0.6,0.3-1.1,0.6-1.7,0.7
				c-0.6,0.1-1.1,0.1-1.6,0c-1.5-0.3-4.2,0-4.9,1.7C341.5,145.2,343.8,146.2,345.1,146.4L345.1,146.4z"/>
		</g>
	</g>
	<g>
		<g>
			<path fill="#C1A975" d="M360.7,137c0.7-0.9,1.4-1.9,2.1-2.8c0.7-0.9-2.4-1.1-2.8-1.1c-1-0.1-2.1-0.1-3.1,0.1
				c-0.5,0.1-1.5,0.1-1.8,0.5c-0.7,0.9-1.4,1.9-2.1,2.8c-0.7,0.9,2.4,1.1,2.8,1.1c1,0.1,2.1,0.1,3.1-0.1
				C359.3,137.4,360.4,137.4,360.7,137L360.7,137z"/>
		</g>
	</g>
	<g>
		<g>
			<path fill="#C1A975" d="M368.1,122.7c1.2-0.6,2.2-1.6,2.8-2.8c0.2-0.5,0-0.7-0.4-1c-0.6-0.4-1.7-0.5-2.4-0.6
				c-1-0.1-2.1-0.1-3.1,0.1c-0.3,0.1-0.5,0.1-0.8,0.2c-0.4,0.1-0.7,0.3-1,0.6c-0.4,0.8-0.9,1.5-1.6,2c0.1-0.1,0.3-0.2,0.4-0.3
				c-0.2,0.2-0.5,0.3-0.8,0.5c-0.4,0.2-0.7,0.6-0.4,1c0.3,0.5,1.4,0.7,1.8,0.8c1,0.2,2.1,0.2,3.1,0.1
				C366.5,123.2,367.4,123.1,368.1,122.7L368.1,122.7z"/>
		</g>
	</g>
	<g>
		<g>
			<path fill="#C1A975" d="M370.5,114.5c-2.9-0.5-6.3-0.4-8.2,2.2c-1.3,1.9-1.9,4.6-2.2,6.8c-0.3,2.2,7.7,2.6,8,0
				c0.2-1.4,0.5-2.7,0.9-3.9c0.2-0.5,0.4-1.1,0.7-1.6c0.1-0.3,0.3-0.5,0.5-0.7c0.6-0.4,0.2-0.3-1.1,0.3c-1-0.1-2.1-0.1-3.1-0.2
				c0.1,0,0.3,0,0.4,0.1c1.6,0.3,4.1,0.6,5.5-0.6C373.2,115.8,371.6,114.7,370.5,114.5L370.5,114.5z"/>
		</g>
	</g>
	<g>
		<g>
			<path fill="#C1A975" d="M358.6,126.2c-1.2,3.9-2.7,7.6-4.5,11.3c-1.4,2.8,6.5,3.6,7.7,1.1c1.8-3.7,3.3-7.4,4.5-11.3
				C367.3,124.2,359.4,123.6,358.6,126.2L358.6,126.2z"/>
		</g>
	</g>
	<g>
		<g>
			<path fill="#C1A975" d="M350.5,141.4c-1.6,2.4-3.3,4.6-5.3,6.6c-1,1.1,2.4,1.7,2.8,1.7c1.5,0.1,3.8,0.2,4.9-1
				c2-2,3.8-4.3,5.3-6.6c0.8-1.2-2.2-1.6-2.8-1.7C354.2,140.3,351.3,140.2,350.5,141.4L350.5,141.4z"/>
		</g>
	</g>
	<g>
		<g>
			<path fill="#C1A975" d="M365.6,117c1.7-1.8,3.6-3.2,5.9-4.2c0.4-0.2-0.4-0.3-0.4-0.3c-0.7-0.2-1.6-0.2-2.4-0.2c-1,0-2.1,0-3.1,0
				c-0.6,0-1.3,0-1.8,0.2c-2.4,1-4.4,2.5-6.2,4.4c-0.1,0.1,1.4,0.3,1.2,0.3c0.9,0.1,1.9,0.1,2.8,0.1c0.9,0,1.9,0,2.8-0.1
				C364.8,117.3,365.4,117.3,365.6,117L365.6,117z"/>
		</g>
	</g>
	<g>
		<g>
			<path fill="#C1A975" d="M370.5,112.7c4.7,0,4.8-3.3,0-3.3C365.8,109.4,365.7,112.7,370.5,112.7L370.5,112.7z"/>
		</g>
	</g>
	<g>
		<g>
			<path fill="#C1A975" d="M332.4,145.2c3.9,0.5,7.8,0.6,11.6,0.2c0.8-0.1,3.4-0.5,2.8-1.8c-0.6-1.3-3.9-1.1-4.9-1
				c-2.5,0.2-4.9,0.1-7.4-0.2c-1.2-0.2-4.3-0.3-4.9,1C328.9,144.8,331.7,145.2,332.4,145.2L332.4,145.2z"/>
		</g>
	</g>
	<g>
		<g>
			<path fill="#C1A975" d="M336.9,150.7c3.6-1.4,7.2-2.8,10.8-4.1c0.5-0.2-2.6-0.6-2.8-0.6c-1.5-0.1-3.4-0.2-4.9,0.4
				c-3.6,1.3-7.2,2.7-10.8,4.1c-0.6,0.2,2.6,0.6,2.8,0.6C333.5,151.1,335.4,151.3,336.9,150.7L336.9,150.7z"/>
		</g>
	</g>
	<g>
		<g>
			<path fill="#D2B581" d="M315.9,53c0.2,0,0.4-0.1,0.7-0.1c-2.7,0-5.3,0-8,0c0.2,0,0.4,0.1,0.7,0.1c-2.2-0.5-4.4-1.1-6.6-1.6
				c3.5,1.3,6.8,3.5,10.1,5.2c2.9,1.5,7.5,1.9,10.6,1.9c3.3,0,7.6-0.4,10.6-1.9c1.8-0.9,4.4-2.1,4.4-4.5c0-2.4-2.7-3.6-4.4-4.5
				c-2.5-1.3-5.1-2.7-7.6-4c-5.5-2.9-12.3-3.8-18.4-2.8c-2.9,0.4-6.6,1.1-9,2.9c-1.4,1.1-2.8,3.1-1.5,4.9c1.5,2.2,4.5,3.2,6.9,3.8
				C308.1,53.2,312.1,53.5,315.9,53L315.9,53z"/>
		</g>
	</g>
	<g>
		<g>
			<path fill="#D7B887" d="M310.3,50.5c-0.5,0-0.9-0.1-1.4-0.2c0.4,0.1,0.5,0.1,0.3,0.1c0.4,0.1,0.7,0.3,1,0.4
				c0.8,0.4,1.5,0.9,2.1,1.5c0.6,0.5,3.1,0.6,3.7,0.6c2,0.2,4.1,0.2,6.2,0.1c1.6-0.1,3.2-0.1,4.8-0.5c0.5-0.1,1.4-0.2,0.8-0.8
				c-2.6-2.3-6-2.8-9.4-3c-2-0.1-4.1-0.2-6.2-0.1c-1.5,0.1-3.3,0.1-4.8,0.5c-0.3,0.1-0.5,0.2-0.8,0.2c-0.4,0.2-0.4,0.4,0,0.5
				c0.3,0.1,0.5,0.2,0.8,0.2C308.4,50.3,309.4,50.5,310.3,50.5L310.3,50.5z"/>
		</g>
	</g>
	<g>
		<g>
			<path fill="#D7B887" d="M311.4,51.5c0.6,0.1,1.1,0.2,1.7,0.2c0.8,0.2,0.7,0.1-0.2-0.1c0.3,0.1,0.6,0.1,0.8,0.2
				c0.5,0.2,1.1,0.4,1.6,0.6c0.5,0.2,0.4,0.1-0.3-0.1c0.3,0.2,0.7,0.3,1,0.5c3.2,1.7,8.1,2.1,11.3,0c1.2-0.7,2.3-1.7,2.3-3.3
				c0-1.4-1.2-2.6-2.3-3.3c-3.6-1.9-7.6-3.2-11.7-3.7c-3.1-0.3-8.3-0.2-9.8,3.2C304.3,49.1,308.9,51.2,311.4,51.5L311.4,51.5z"/>
		</g>
	</g>
	<g>
		<g>
			<path fill="#D9B98B" d="M305.5,49c0.9,0.6,1.9,1.2,2.8,1.9c1.3,0.9,3.2,1.2,4.8,1.4c2,0.2,4.2,0.2,6.2-0.3
				c0.5-0.2,1.1-0.3,1.6-0.5c0.8-0.3,1.5-0.7,2.1-1.3c0.1-0.3,0.2-0.5,0.3-0.8c-0.1-0.7-0.5-1.2-1.1-1.5c-0.9-0.6-1.9-1.2-2.8-1.9
				c-1.3-0.9-3.2-1.2-4.8-1.4c-2-0.2-4.2-0.2-6.2,0.3c-0.5,0.2-1.1,0.3-1.6,0.5c-0.8,0.3-1.5,0.7-2.1,1.3c-0.1,0.3-0.2,0.5-0.3,0.8
				C304.5,48.2,304.8,48.7,305.5,49L305.5,49z"/>
		</g>
	</g>
	<g>
		<g>
			<path fill="#D9B98B" d="M315.8,52.3c1.6,0,8-0.1,8-2.7c0-2.6-6.7-2.7-8-2.7c-1.6,0-8,0.1-8,2.7C307.8,52.2,314.5,52.3,315.8,52.3
				L315.8,52.3z"/>
		</g>
	</g>
</g>
</svg>
