<?xml version="1.0" encoding="utf-8"?>
<!-- Generator: Adobe Illustrator 24.1.2, SVG Export Plug-In . SVG Version: 6.00 Build 0)  -->
<svg version="1.1" id="Слой_1" xmlns="http://www.w3.org/2000/svg" xmlns:xlink="http://www.w3.org/1999/xlink" x="0px" y="0px"
	 viewBox="0 0 172 172" style="enable-background:new 0 0 172 172;" xml:space="preserve">
<style type="text/css">
	.st0{fill:none;}
	.st1{fill:#E9130C;}
</style>
<g id="Слой_2_1_">
	<g id="Слой_1-2">
		<rect class="st0" width="172" height="172"/>
		<path class="st1" d="M133.3,136.4h-93l3.6,3.6V81l-3.6,3.6h93l-3.6-3.6v59c0,4.6,7.2,4.6,7.2,0V81c0-2-1.6-3.6-3.6-3.6h-93
			c-2,0-3.6,1.6-3.6,3.6v59c0,2,1.6,3.6,3.6,3.6h93C137.9,143.6,137.9,136.4,133.3,136.4z"/>
		<path class="st1" d="M120.6,41.4H50.9c-1.3,0-2.5,0.7-3.1,1.8l-20.6,36c-1,1.7-0.4,4,1.4,4.9c0.5,0.3,1.1,0.5,1.7,0.5h111
			c2,0,3.6-1.7,3.6-3.7c0-0.6-0.2-1.2-0.5-1.7l-20.6-36c-2.3-4-8.5-0.4-6.2,3.6l20.6,36l3.1-5.4h-111l3.1,5.4l20.6-36l-3.1,1.8h69.7
			C125.3,48.6,125.3,41.4,120.6,41.4z"/>
		<path class="st1" d="M131.3,59.4h-91c-4.6,0-4.6,7.2,0,7.2h91C135.9,66.6,135.9,59.4,131.3,59.4z"/>
		<path class="st1" d="M122.1,48.1l18-13l-4.4-0.6l14,17l0.7-5.7l-21,14c-3.8,2.6-0.2,8.8,3.6,6.2l21-14c1.7-1.1,2.3-3.3,1.2-5.1
			c-0.1-0.2-0.3-0.4-0.5-0.6l-14-17c-1.2-1.2-2.9-1.4-4.4-0.6l-18,13C114.7,44.6,118.3,50.8,122.1,48.1L122.1,48.1z"/>
		<path class="st1" d="M52.6,41.9l-17.4-13c-1.4-0.8-3.2-0.6-4.4,0.6l-13.6,17c-1.4,1.5-1.3,3.8,0.1,5.2c0.2,0.2,0.4,0.3,0.6,0.4
			l20.3,14c3.8,2.6,7.4-3.6,3.6-6.2l-20.3-14l0.7,5.7l13.6-17l-4.4,0.6l17.4,13C52.7,50.9,56.2,44.6,52.6,41.9L52.6,41.9z"/>
		<path class="st1" d="M52.8,127h22c0.8,0,1.5-0.7,1.5-1.5s-0.7-1.5-1.5-1.5h-22c-0.8,0-1.5,0.7-1.5,1.5S51.9,127,52.8,127z"/>
		<path class="st1" d="M58.3,120.5v-13c0-0.8-0.7-1.5-1.5-1.5s-1.5,0.7-1.5,1.5v13c0,0.8,0.7,1.5,1.5,1.5S58.3,121.3,58.3,120.5z"/>
		<path class="st1" d="M63,113.7l-5-7c-1.1-1.6-3.7-0.1-2.6,1.5l5,7C61.5,116.8,64.1,115.3,63,113.7z"/>
		<path class="st1" d="M53,115.3l5-7c1.1-1.6-1.5-3.1-2.6-1.5l-5,7C49.3,115.3,51.9,116.8,53,115.3z"/>
		<path class="st1" d="M71.3,120.5v-13c0-0.8-0.7-1.5-1.5-1.5s-1.5,0.7-1.5,1.5v13c0,0.8,0.7,1.5,1.5,1.5S71.3,121.3,71.3,120.5z"/>
		<path class="st1" d="M76,113.7l-5-7c-1.1-1.6-3.7-0.1-2.6,1.5l5,7C74.5,116.8,77.1,115.3,76,113.7z"/>
		<path class="st1" d="M66,115.3l5-7c1.1-1.6-1.5-3.1-2.6-1.5l-5,7C62.3,115.3,64.9,116.8,66,115.3z"/>
	</g>
</g>
</svg>
