<?xml version="1.0" encoding="UTF-8"?>
<!DOCTYPE svg PUBLIC "-//W3C//DTD SVG 1.1//EN" "http://www.w3.org/Graphics/SVG/1.1/DTD/svg11.dtd">
<!-- Creator: CorelDRAW 2020 (64-Bit Оценочная версия) -->
<svg xmlns="http://www.w3.org/2000/svg" xml:space="preserve" width="35.56mm" height="35.56mm" version="1.1" style="shape-rendering:geometricPrecision; text-rendering:geometricPrecision; image-rendering:optimizeQuality; fill-rule:evenodd; clip-rule:evenodd"
viewBox="0 0 3556 3556"
 xmlns:xlink="http://www.w3.org/1999/xlink"
 xmlns:xodm="http://www.corel.com/coreldraw/odm/2003">
 <defs>
  <style type="text/css">
   <![CDATA[
    .fil1 {fill:none}
    .fil0 {fill:black}
    .fil2 {fill:black;fill-rule:nonzero}
   ]]>
  </style>
 </defs>
 <g id="Слой_x0020_1">
  <metadata id="CorelCorpID_0Corel-Layer"/>
  <g id="_1696956544208">
   <g>
    <path class="fil0" d="M728.14 2853.25l16.51 -9.73 -16.51 9.73zm-90.06 186.27l-30.76 0c-34.19,-7.76 -56.98,-46.17 -56.98,-143.93 -54.68,12.74 -36.05,8.46 -101.6,8.46 -127.53,0 -141.24,-122.64 -118.53,-220.13 -70.72,16.48 -48.48,16.94 -127,16.94 -213.01,0 -76.2,-143.05 -76.2,-194.74 0,-45.08 -27.7,-121.39 -37.48,-174.18 -41.56,-224.21 -22.11,-316.98 79.81,-520.08 61.07,-121.69 48.7,-83.96 11.07,-146.53 -60.82,-101.14 -155,-258.64 -155,-378.4l0 -81.34c1.3,-120.92 16.26,-140.93 152.4,-172.65 -23.77,-49.53 -25.4,-112.4 -25.4,-169.34 0,-41.23 33.15,-56.14 60.84,-74.62 80.14,-53.52 145.58,-107.4 235.38,-154.09 70.37,-36.58 103.55,-49.61 194.15,-68.31 64.62,-13.34 138.14,-41.64 212.36,-41.64 201.96,0 389.19,3.82 583.16,68.77 154.16,51.62 228.17,88.33 297.37,219.09 23.87,-6.37 58.79,-37.31 83,-52.46 88.53,-55.39 149.22,-89.24 250.78,-130.21 353.2,-142.49 662.66,6.36 967.36,176.92 118.94,66.57 175.47,41.12 136.11,198.41 -6.38,25.45 -14.08,34.66 -14.44,71.07l185.84 -60.53c165.84,111.05 14.36,524.63 -17.15,643.36 -20.21,76.11 -11.12,79.33 48.19,189.2 24.96,46.25 101.8,94.79 155.23,107.24 0,132.53 -56.82,150.99 -155.36,200.24 -16.47,8.23 -25.12,11.7 -38.44,20.82 -16.47,11.28 -20.3,10.36 -26.33,32.93 50.82,13.57 76.2,93.73 76.2,135.47 0,89.55 -0.3,64.22 -42.34,127 11.69,17.44 25.4,21.98 25.4,42.33 0,89.93 -232.44,180.86 -312.03,212.89 -302.19,121.63 -489.22,130.03 -785.15,46.1 -352.4,-99.95 -481.93,-360.39 -570.74,-419.85 -10.27,38.47 -31.34,38.7 -56.87,61.66l-382.07 388.39c-79.98,58.71 -186.52,115.32 -304.64,135.62 -37.22,6.4 -58.53,4.02 -102.99,7.08 -59.46,4.08 -150.13,81.13 -217.15,93.04zm1842.65 -491.06l-16.93 -8.47 16.93 8.47zm-16.93 -8.47l-18.21 -4.66 18.21 4.66zm-1879.59 296.33c13.65,-18.64 302.13,-220.56 330.19,-262.46 26.8,9.99 12.15,-18.39 16.94,25.4l42.33 0c5.13,-22.02 25.29,-84.6 53.43,-71.59 14.78,6.83 25.11,-7.76 -7.71,57.67 -66.49,132.54 -300.41,219.58 -435.18,250.98zm-169.34 0c-51.63,0 -33.86,-117.55 -33.86,-169.33 60.11,-5 184.91,-80.87 228.6,-110.06 60.93,-40.72 146.42,-101.37 186.26,-160.87 29.86,6.95 27.82,8.47 67.74,8.47 26.52,113.84 120.41,97.43 -43.42,227.51l-155.64 98.36c-13.56,6.78 -21.05,9.19 -35.06,15.73 -26.23,12.25 -45.4,20.19 -70.45,31.16 -18.36,8.04 -131.18,59.03 -144.17,59.03zm2531.52 -279.4l-220.13 0c1.34,-60.2 20.44,-27.03 33.87,-84.66 -53.07,-12.37 -78.92,-33.33 -101.6,-76.2l84.66 0c19.62,-84.21 16.94,-54.46 16.94,-143.93 111.01,0 295.13,8.25 394.43,-12.02 29.91,-6.1 111.17,-46.06 163.27,38.51 17.38,28.2 18.33,65.47 26.49,100.51 -57.23,38.32 -139.93,177.79 -397.93,177.79zm-829.73 -203.19l-16.93 -8.47 16.93 8.47zm-262.46 -254c10.21,6.84 107.7,110.56 119.79,125.74 24.36,30.58 26.67,36.64 57.93,60.6 19.66,15.08 54.9,39.91 67.81,59.19 -26.28,-6.12 -24.52,-10.81 -50.8,-16.93 74.83,141.4 405.42,271.56 499.53,279.39 -12.48,-34.48 -19.51,-17.35 -67.73,-59.26 35.11,2.92 63.19,17.9 99.78,27.22 189.68,48.31 345.65,76.38 547.01,9.97 80.19,-26.45 151.41,-76.9 182.94,-79.53 -17.26,64.64 -134.92,105.64 -202.06,128.14 -105.48,35.36 -165.47,32.73 -305.94,32.73l0 25.4 92.96 10.55c-24.14,18.03 -55.71,23.97 -86.69,29.59 -265.24,48.11 -450.89,51.11 -694.9,-71.18 -108.8,-54.52 -193.72,-117.95 -270.17,-203.96 -67.77,-76.24 -116.67,-151.58 -71.46,-244.93 15.15,-31.29 25.6,-58.01 39.67,-87.33 55.77,29.51 28.73,31.92 67.73,42.33 -7.53,-32.3 -17.87,-35.43 -25.4,-67.73zm10.55 -169.16l163.54 105.13c61.27,37.02 118.22,64.17 184.23,95.17 29.93,14.05 66.91,26.51 97.74,37.73 133.04,48.38 258.44,66.59 407.53,66.59 0,131.61 12.41,110.07 -101.59,110.07 -4.52,18.87 -22.19,45.06 20.56,97.96 13.95,17.26 40.9,32.1 64.1,37.5 -7.73,16.13 -15.06,45.2 -16.93,67.74 -52.81,-25.34 -135.59,-27.69 -302.19,-121.14 -257.11,-144.22 -359.78,-291.45 -527.54,-403.79l10.55 -92.96zm-416.95 67.56l4.66 -18.2 -4.66 18.2zm-364.06 507.99c-22.18,-14.85 -17.5,-4.28 -25.4,-33.86 -50.86,0 -73.62,0.95 -84.67,42.33l-16.93 0c-15.04,-64.57 -37.04,-128.89 -101.6,-143.93 25.3,-94.77 325.78,-296.54 395.98,-366.02 64.03,-63.37 134.93,-127.51 174.19,-206.8 5.58,-11.28 10.43,-23.08 16.92,-33.88l14.04 -19.83c0,198.19 -146.48,428.98 -249.11,597.56 -49.41,81.16 -100.94,130.86 -123.42,164.43zm2328.32 -499.53l42.33 0 -9.5 -33.53c25.74,17.77 11.38,5.09 26.43,33.53 -247.21,284.42 -826.42,188.85 -1143.02,101.64 -104.2,-28.7 -142.06,-61.21 -219.99,-101.75 -40.57,-21.1 -188.9,-94.34 -207.26,-114.47 -51.27,-56.25 -42.63,-271.71 -80.72,-351.08 182.74,-96.69 339.23,49.45 457.2,59.27 -13.27,-49.69 -100.7,-78.12 -144.8,-92.27 -73.79,-23.67 -123.28,-26.26 -219.26,-26.26 52.94,-79.07 211.39,-96.58 301.3,-131.07 32.74,-12.57 13.49,-11.77 49.07,-8.36 636.64,61.04 735.66,59.46 1028.01,488.23 20.16,29.58 38.58,55.75 59.66,84.28 17.06,23.09 54.04,67.49 60.55,91.84zm-3039.32 -186.49c7.74,-8.86 -0.46,3.39 10.59,-14.38 61.99,-99.64 50.17,-106.01 145.07,-227.47 282.76,-361.9 783.18,-534.94 1158.83,-149.75 67.61,69.33 124.69,271.59 124.93,408.47 0.43,248.49 -63.21,346.39 -179.28,490.17 -138.83,171.99 -501.12,379.96 -515.28,432.98 130.4,-10.85 238.58,-132.81 311.22,-196.78 19.53,-17.2 26.82,-18.75 46.65,-38.01 19.38,-18.82 27,-30.19 48.53,-44.61 -7.45,27.92 -34.73,53.41 -51.89,75.11 -112.42,142.11 -406.62,294.12 -566.17,331.29 15.6,-23.3 30.83,-39.74 33.86,-76.2 -31.33,2.61 -21.87,0.15 -39.23,20.03 -8.11,9.3 0.48,3.57 -14.58,19.29 -46.87,48.92 -148.01,113.35 -222.56,133.04 -25.83,6.83 -32.95,3.89 -53.82,13.91 -12.6,-54.06 -25.4,-29.18 -25.4,-110.07 49.85,-4.15 91.19,-32.69 143.93,-33.87 -31.18,18.54 -66.31,42.59 -101.6,50.8l0 33.87c93.41,0 100.97,-25.72 150.36,-69.77 78.35,-69.88 209.32,-156.64 291.16,-259.17 19.37,-24.25 32.67,-36.95 50.8,-59.26 242.37,-298.3 189.07,-321.92 314.9,-531.77 10.17,-16.96 4.27,-8.58 14.04,-19.82 -2.38,106.88 -159.88,387.9 -229.71,481.48 -69.6,93.25 -107.77,83.33 -108.95,136.58 189.8,-100.43 326.4,-407.4 375.92,-623.14 24.34,-106.05 30.47,-180.51 30.47,-308.19 -38.53,-8.97 -58.15,-54.28 -169.49,92.97 -213.9,282.86 -105.84,190.41 -421.26,467.73 -140.98,123.95 -371.54,269.23 -548.53,340.47 -60.77,24.47 -161.43,55.56 -240.77,55.56 1.76,-79.4 10.71,21.87 42.04,-59.17 65.13,-168.48 -176.37,-260.4 25.78,-711.2 51.05,-113.83 166.96,-280.12 255.92,-362.15 15.57,-14.36 18.54,-14.5 33.04,-26.22 15.1,-12.2 19.37,-18.93 36.1,-31.63 50.75,-38.5 101.6,-67 157.45,-96.55 -8.4,31.44 -19.15,29.34 -39.78,53.36l-88.33 106.39c-40.7,51.08 -92.59,117.05 -123.02,173.32 -19.43,35.92 -58.45,90.35 -62.11,132.27l0.17 0.09zm2387.39 -524.7l-42.11 25.82c8.34,-24.1 7.56,-22.94 42.11,-25.82zm-2311.39 -8.47c48.04,11.2 77.29,46.67 127,50.8l-152.08 136.57c-29.96,20.83 -27.4,8.37 -68.05,-1.1 22.08,-30.14 53.57,-34.41 80.11,-72.29 45.99,-65.65 27.53,-51.7 13.02,-113.98zm-381 -50.8l20.53 47.21c44.05,112.55 168.94,229.62 284.27,232.19 -18.78,28.04 -104.26,137.17 -127,152.4 -45.27,-30.31 -97.59,-156.09 -127,-211.66 14.71,-2.1 27.73,-5.16 42.34,-8.47 -9.12,-34.14 -30.04,-42.83 -56.61,-95.8 -18.55,-36.99 -35.12,-64.98 -36.53,-115.87zm2768.59 16.94l-16.94 8.46 16.94 -8.46zm59.26 101.6c-31.3,0 -40.53,-13.97 -76.2,-16.94l280.93 -193.89c51.5,-31.59 108.48,3.62 121.38,28.66 12.05,23.39 9.41,56.36 21.02,80.57 -39.31,26.33 -107.94,140.27 -201.63,162.46 -32.79,7.76 -43.96,-17.15 -86.23,-27 13.87,-18.93 54.98,-45.35 76.2,-59.26 19.3,-12.66 55.92,-31.07 64.35,-54.19 4.66,-12.79 3.06,-7.56 3.38,-22.01 -67.15,15.64 -147.74,101.6 -203.2,101.6zm-2836.31 -169.34l8.46 0 0 42.34 -8.46 0 0 -42.34zm8.46 -50.79l8.47 0 0 42.33 -8.47 0 0 -42.33zm67.74 -16.94c0,-5.65 26.66,-31.58 33.86,-42.33 38.81,18.62 44.54,6.51 99.16,53.24l123.45 113.62 29.82 81.28c9.19,27.45 9.31,4.5 2.59,25.5 -1.09,3.42 -31.57,44.91 -34.58,48.37 -18.08,20.79 -66.27,50.73 -99.68,46.65 -40.19,-4.91 -70.19,-45.75 -86.65,-72.57 -32.97,-53.75 -67.97,-167.3 -67.97,-253.76zm3132.64 -33.86c31.82,-7.42 32.32,-21.86 56.42,-6.3 66.39,42.87 -5.62,188.16 -5.62,268.76 1.25,0.59 3.71,-1.19 4.14,0.19l29.73 -0.19c0,152.31 -41.1,190.49 -67.73,304.8l-25.4 0c-7.01,-30.08 -29.99,-58.46 -31.21,-77.39 -1.51,-23.53 23.72,-51.32 31.21,-83.48 -19.2,6.95 -6.97,1.07 -20.16,13.71 -4.57,4.37 -11.54,14.12 -14.97,18.89 -18.19,25.31 -7.92,26.28 -41.07,35.14 -11.08,-41.48 -51.66,-82.06 -93.13,-93.14l0 -16.93c153.1,-35.67 220.13,-172.77 220.13,-330.2 0,-31.01 2.81,-7.27 -13.49,-20.38l-22.69 -11.18c-1.31,-0.56 -4.3,-1.13 -6.16,-2.3zm-1811.85 118.53c-60.84,-29.19 -429.3,-20.72 -501.85,-10.78 -138.67,19.01 -405.43,-2.16 -509.33,-70.24 -39.04,-25.59 -66.96,-46.43 -94.57,-83.23 -21.59,-28.78 -59.31,-83.57 -62.64,-123.62 -24.49,6.54 -42.34,21.75 -42.34,50.8 0,121.99 436.5,264.99 465.67,304.8 -49.25,11.47 -36.33,34.26 -78.27,27.7 -143.51,-22.43 -429.73,-200.57 -429.73,-425.63 0,-27.41 29.61,-31.12 50.8,-42.33l9.5 33.53c21.14,-5.6 105.49,-88.36 133.17,-110.99 98.26,-80.35 208.41,-133 340.38,-150.69 160.34,-21.48 168.44,-33.57 337.02,-16.19 31.7,3.27 74.86,10.86 110.17,16.83 204.57,34.56 313.8,104.42 468.83,208.5 19.14,12.85 31.79,12.11 31.79,35.94 0,68.41 -225.36,209.92 -228.6,355.6zm1380.06 50.8c22.82,-34.09 39.82,-29.11 50.8,-76.2l-172.9 98.14c-134.52,81.74 -305.32,-103.51 -687.27,49.22 -171.97,68.77 -184.48,122.8 -223.56,148.97 -77.28,-51.75 -175.65,-219.39 -287.87,-245.53 9.45,-19.68 9.11,-32.94 19.59,-56.62 24.54,-55.4 54.7,-96.14 101.41,-135.66 87.99,-74.42 214.23,-127.81 331.31,-151.28 85.1,-17.05 196.66,-21.68 288.17,-7.45l131.59 29.28 0 -25.4c-33.63,-8.98 -75.91,-46.34 -169.24,-50.9 -119.98,-5.87 -273.98,29.65 -379.89,69.03l-162.07 66.53c99.37,-148.39 334.86,-220.43 502.06,-285.33 170.83,-66.31 52.26,-44.44 217.62,-36.41 271.12,13.16 477.58,86.4 653.67,269.33 46.02,47.81 41.64,29.25 82.91,1.61 -11.49,138.13 -83.22,220.64 -189.65,284.48 -22.39,13.43 -86.24,49.43 -106.68,54.19z"/>
   </g>
   <path class="fil0" d="M618.07 736.6c95.66,53.75 286.1,-104.25 593.15,67.25 46.68,26.07 201.67,110.89 236.58,119.02 -20.39,-76.36 -182.33,-152.76 -255.9,-175.89 -100.07,-31.47 -251.95,-61.17 -379.09,-61.17l-149.32 28.48c-39.23,8.38 -27.9,-1.59 -45.42,22.31z"/>
   <path class="fil0" d="M3073.39 2463.79c-161.86,0 -257.01,-25.4 -313.26,-25.4l0 16.93c72.34,19.32 82.72,57.15 254.44,43.18 58.99,-4.8 83.56,-4.45 133.34,-19.46 34.95,-10.53 84.15,-26.1 94.81,-66.05 -44.59,3.71 -40.93,18.91 -77.07,32.99 -25.33,9.87 -58.34,17.81 -92.26,17.81z"/>
   <path class="fil0" d="M2480.73 1464.73c-12.16,-45.54 -77.04,-57.95 -118.93,-67.34 -56.04,-12.55 -118.26,-8.86 -185.87,-8.86 24.42,33.33 93,40.83 137.77,48.5l167.03 27.7z"/>
   <path class="fil0" d="M592.67 2285.99c37.06,-9.89 16.13,-1.12 49.66,-102.74 13.42,-40.68 28.27,-75.76 46.26,-114.61 21.96,-47.45 97.71,-170.12 107.28,-205.98 -47.74,3.98 -24.46,7.33 -64.85,87.55 -40.97,81.4 -136.57,256.22 -138.35,335.78z"/>
   <path class="fil0" d="M347.14 1346.2c-26.27,-39.23 -59.44,-66.84 -90.63,-104.1 -20.25,-24.18 -24.51,-31.28 -47.04,-54.56 -18.83,-19.45 -27.31,-38.75 -48.59,-53 0,102.42 111.26,194.19 186.26,211.66z"/>
   <path class="fil0" d="M1016 1583.26c49.5,-13.21 102.12,-80.67 137.51,-116.48 106.11,-107.36 106.41,-45.05 141.89,-112.11 -47.28,0 -30.94,-2.75 -87.09,39.91 -82.06,62.35 -144.87,99.04 -192.31,188.68z"/>
   <path class="fil0" d="M3014.13 2125.13l0 16.93c66.31,5.52 91.17,21.65 200.15,-19.98 27.51,-10.5 21.12,-3.4 28.44,-30.82 -73.11,0 -68.64,33.87 -228.59,33.87z"/>
   <path class="fil0" d="M1075.27 1075.27l0 -25.4c-58.29,-4.85 -98.33,-57.5 -177.8,-59.27 20.49,30.6 41.52,35.49 76.03,50.98 36.9,16.57 47.75,33.69 101.77,33.69z"/>
   <path class="fil0" d="M304.81 1998.13c-1.17,1.67 -2.9,2.26 -3.33,5.14l-8.51 16.89c-4.59,11.44 -4.33,13.03 -8.4,25.46 -14.84,45.29 -39.03,115.49 -39.03,164.17l25.4 0 33.87 -211.66z"/>
   <path class="fil0" d="M1837.27 1134.54c42.51,0 108.86,5.31 143.93,-16.94 -41.56,-9.68 -116.05,-21.12 -143.93,16.94z"/>
   <path class="fil0" d="M245.54 2548.46l0 25.4c36.13,-3.01 40.08,-13.93 76.2,-16.94l0 -16.93c-31.28,0 -54.51,0.05 -76.2,8.47z"/>
   <path class="fil0" d="M2802.46 1651c-9.5,-35.59 -32.14,-58.23 -67.73,-67.74 11.74,17.54 17.08,19.22 30.34,37.39 18.54,25.42 3.98,21.43 37.39,30.35z"/>
   <path class="fil0" d="M973.67 2768.59c34.05,-2.83 43.04,-13.26 50.8,-42.33 -46.84,1.04 -30.59,4.14 -50.8,42.33z"/>
   <path class="fil0" d="M3276.59 2396.06c26.63,-2.91 23.56,-5.84 42.33,-33.87 -32.24,2.69 -39.5,0.63 -42.33,33.87z"/>
   <line class="fil1" x1="304.81" y1="1998.13" x2="304.82" y2= "1987.29" />
  </g>
  <g id="_2913773863520">
   <path class="fil2" d="M71.86 1146.02c1.55,2.76 -18.44,1.66 -18.76,1.65 -18.62,0.21 -39.37,15.69 -7.94,19.63 27.41,1.89 51.27,-4.16 69.26,-3.25 0,0 -3.28,8.36 -15.83,-4.51 -7.92,-7.7 -16.03,-11.01 -26.73,-13.52z"/>
  </g>
  <path class="fil1" d="M76 1146.85c-3.98,11.63 -4.23,10.21 -4.23,21.16"/>
  <g id="_2913773862128">
   <path class="fil2" d="M65.54 1190.43c1.3,1.49 -18.33,2.58 -18.58,2.6 -22.17,2.88 -37.04,16.37 -8.14,20.79 15.54,1.2 53.4,0.9 69.31,-0.85 0.72,-0.72 -14,-10.6 -14.96,-11.32 -8.46,-5.71 -17.75,-8.9 -27.63,-11.22z"/>
  </g>
  <path class="fil1" d="M69.65 1191.3c-2.45,7.84 -4.23,15.23 -4.23,23.28"/>
  <g id="_2913773859776">
   <path class="fil2" d="M65.54 1207.36c1.3,1.49 -18.33,2.58 -18.58,2.6 -22.17,2.88 -37.04,16.37 -8.14,20.79 15.54,1.2 53.4,0.9 69.31,-0.85 0.72,-0.72 -14,-10.6 -14.96,-11.32 -8.46,-5.71 -17.75,-8.9 -27.63,-11.22z"/>
  </g>
  <path class="fil1" d="M69.65 1208.23c-2.45,7.84 -4.23,15.23 -4.23,23.28"/>
  <g id="_2913773858816">
   <path class="fil2" d="M73.93 1134.05c-1.72,-0.09 -15.15,3.1 -17.59,3.72 -4.7,1.22 -8.89,2.66 -13.37,4.54 -0.5,0.15 -10.96,3 -9.01,4.26 0.48,0.64 6.41,0.02 7.23,0.2 0.22,0.05 7.29,-0.94 9.01,-0.81 0.08,0 0.87,-0.16 1.02,-0.18 26.18,-3.4 12.15,14.1 32.03,18.21 4.88,1.47 7.51,0.72 11.94,1.17 7.52,0.78 10.77,-0.62 17.57,-2.11 1.58,-0.35 3.96,-1.17 5,-2.49 1.26,-2.64 -0.57,-6.33 -1.85,-8.57 -4.2,-6.47 -4.98,-9.63 -12.51,-13.9 -8.13,-4.14 -20.68,-3.81 -29.47,-4.04z"/>
  </g>
  <path class="fil1" d="M78.12 1134.15c0,1.02 -2.21,24.24 -4.24,25.4"/>
  <g id="_2913773853968">
   <path class="fil2" d="M76.27 1170.86c1.33,2.02 -12.26,-0.75 -18.33,-2.15 -24.6,-5.46 -38.6,3.03 -15.21,17.17 3.41,1.6 62,23.97 64.76,24.57 2.7,-1.33 -5.8,-21.31 -6.45,-22.77 -4.57,-8.67 -16.22,-13.6 -24.77,-16.82z"/>
  </g>
  <path class="fil1" d="M80.24 1172.25c-3.63,8.01 -10.45,16.75 -12.71,23.28"/>
  <g id="_2913773856272">
   <path class="fil2" d="M73.93 1160.56c3,2.89 -9.77,8.77 -17.45,8.67 -1.58,-0.49 -50.36,-20.89 -9.45,5.87 15.4,7.61 58.83,16.44 63.16,27.05 -0.27,1.67 8.19,-16.12 -6.69,-34.04 -7.99,-8.14 -18.8,-9.52 -29.57,-7.55z"/>
  </g>
  <path class="fil1" d="M78.12 1159.55c0,22.25 -1.93,12.56 -6.35,25.4"/>
  <g id="_2913773852864">
   <path class="fil2" d="M71.81 1151.38c2.01,0.8 -12.37,4.27 -17.16,5.43 -14.73,3.49 -37.02,11.31 -5.26,12.91 9.37,0.47 63.5,0.88 69.22,-4.74 1.76,-4.18 -15.08,-10.46 -17.1,-11.25 -8.98,-2.89 -20.44,-2.85 -29.7,-2.35z"/>
  </g>
  <path class="fil1" d="M76 1151.08c0,6.35 0,12.7 0,19.05"/>
 </g>
</svg>
