<?xml version="1.0" encoding="UTF-8"?>
<!DOCTYPE svg PUBLIC "-//W3C//DTD SVG 1.1//EN" "http://www.w3.org/Graphics/SVG/1.1/DTD/svg11.dtd">
<!-- Creator: CorelDRAW 2020 (64-Bit Оценочная версия) -->
<svg xmlns="http://www.w3.org/2000/svg" xml:space="preserve" width="84.6666mm" height="84.6666mm" version="1.1" style="shape-rendering:geometricPrecision; text-rendering:geometricPrecision; image-rendering:optimizeQuality; fill-rule:evenodd; clip-rule:evenodd"
viewBox="0 0 8466.66 8466.66"
 xmlns:xlink="http://www.w3.org/1999/xlink"
 xmlns:xodm="http://www.corel.com/coreldraw/odm/2003">
 <defs>
  <style type="text/css">
   <![CDATA[
    .fil0 {fill:#070707}
   ]]>
  </style>
 </defs>
 <g id="Слой_x0020_1">
  <metadata id="CorelCorpID_0Corel-Layer"/>
  <path class="fil0" d="M6684.44 5789.88l-177.8 0c-34.16,0 -63.82,-14.14 -106.1,-20.9 -90.85,-14.53 -37.33,13.3 -162.41,-23.86 -22.33,-6.64 -32.9,-5.62 -58.22,-9.51l-349.55 -107.65c-116.58,-42.41 -245.22,-99.64 -310.6,-205.87 -47.68,-77.49 -23.62,-24.29 -20.79,-165.75 0.98,-48.87 11.84,-63.44 20.68,-106.31l84.12 -373.09c6.95,-22.33 7.17,-31.65 15.5,-52.23l107.75 -213.99c8.46,-13.53 17.31,-26.71 26.58,-41.15 29.82,-46.43 76.93,-104.61 115.9,-146.56 113.1,-121.73 188.12,-174.68 339.62,-244.58 18.39,-8.48 32.22,-9.84 51.73,-16.01l104.11 -31.36c21.06,-7.69 21.83,-12.26 42.4,-16.86 16.68,-3.73 49.21,-6.47 59.61,-8.12 71.33,-11.34 22.36,-15.27 115.56,-19.9l237.37 -25.1c156.7,0 230.92,-9.65 375.83,13.64 223.77,35.97 225.63,5.58 462.69,113.04 16.87,7.64 22.8,9.57 39.61,19.66 87.44,52.45 100.3,71.51 166.64,138.16 1.23,1.23 3.01,2.99 4.22,4.24 44.22,45.78 111.83,133.72 136.27,193.94 38.26,94.27 93.21,277.69 93.21,372.45 0,54.75 -15.19,71.39 -30.26,113.68l-76.84 143.29c-15.35,24.83 -17.99,21.33 -33.13,43.07 -73.42,105.46 -109.84,144.62 -223.74,224.99l-500.56 286.84c-1.76,0.86 -4.01,1.85 -5.76,2.71l-116.1 53.23c-93.2,37.8 -61.64,29.77 -168.08,60.52 -115.38,33.33 -27.83,9.53 -126.59,25.82 -49.63,8.18 -80.78,19.52 -132.87,19.52zm1659.46 -1443.31l0 151.45c-2.91,83.72 -13.4,166.13 -45.88,246.91l-53.11 107.76c-55.13,78.66 -83.92,175.31 -127.37,262.1 -22.61,45.14 -48.92,77.28 -74.81,119.92l-84.72 110.02c-106.89,137.61 -297.31,287.21 -466.12,355.14l-176.98 68.54c-35.02,12.34 -26.28,13.41 -69.45,23.69 -79.94,19.05 -155.88,50.14 -239.32,57.01 -65.38,5.39 -80.43,23.59 -169.52,25.21 -60.96,1.11 -126.9,25.62 -253.78,25.62 -154.35,0 -209.69,-21.58 -296.38,-25.35 -42.59,-1.85 -82.07,-0.63 -123.86,-11.6 -22.82,-6 -9.52,-5.82 -31.43,-10.91 -23.62,-5.49 -57.77,-5.17 -75.89,-8.78 -39.92,-7.94 -35.87,-12.63 -71.57,-21.56l-144.75 -33.05c-27.2,-4.1 -43.32,-15.35 -63.03,-21.64 -97.72,-31.17 -160.35,-37.43 -248.93,-106.67 -120.95,-94.55 -124.39,-37.4 -249.09,-98.04 -129.28,-62.86 -192.67,-143.88 -279.63,-253.76 -15.72,-19.87 -21.74,-34.9 -36.32,-56.82 -12.32,-18.5 -22.13,-29.72 -35.25,-49.42 -26.24,-39.4 -43.91,-68.47 -68.4,-109.4 -12.75,-21.31 -21.43,-38.91 -34.3,-58.83 -11.7,-18.11 -4.82,-6.59 -10.7,-14.7l-7.29 -9.64c-6.18,-9 -9.87,-16.03 -15.75,-26.59l-27.86 -56.8c-12.42,-23.04 -19.1,-31.34 -50.7,-33.97 -2.47,10.62 -6.42,29.27 -10.64,40.16 -56.59,145.93 -31.69,145.49 -31.69,306.98l-27.73 150.07c-33.32,75.54 -96.16,135.79 -168.53,170.14 -49.85,23.66 -34.69,59.91 -55.34,113.99 -60.05,157.26 -147.07,289.18 -262.72,406.15 -68.72,69.5 -158.53,132.46 -246.33,177l-117.96 51.37c-58.77,26.79 -121.29,39.07 -184.61,60.92 -49.82,17.19 -94.46,9.26 -140.57,28.77 -25.03,10.59 -80.97,15.94 -147.18,18.45l-333.9 0c-67.27,0 -375.1,-26.28 -435.18,-47.42l-269.07 -61.12c-29.95,-11.98 -54.67,-8.51 -89.36,-20.71l-106.09 -37.84c-2.06,-0.74 -25.35,-7.07 -26.5,-7.37l-316.63 -123.64c-98.34,-41.84 -243.93,-106.82 -336.87,-162.65l-362.62 -221.59c-80.66,-55.67 -137.95,-116.83 -204.93,-184.53 -129.03,-130.4 -251.14,-276.75 -342.47,-436.47l-112.93 -174.93c-42.57,-63.99 -77.22,-105.27 -129.96,-157.91 -88.21,-88.07 -130.5,-120.01 -137.58,-141.48l0 -12.28c3.63,-10.07 16.39,-19.83 36.76,-35.96 64.73,-51.29 116.26,-133 165.3,-198.77 84.47,-113.26 140.72,-249.6 197.55,-378.18 12.59,-28.48 34.79,-65.98 47.86,-96.07 11.89,-27.37 14.88,-29.3 25.99,-50.22l130.01 -234.05c9.17,-14.13 23.76,-30.35 32.79,-43.42 68.42,-99.04 136.07,-193.52 214.46,-285.06l70.02 -73.92c26.21,-26.09 49.16,-52.24 76.27,-76.12l243.78 -188.03c19.94,-13.32 24.57,-18.05 45.57,-30.63l330.26 -169.27c13.88,-6.89 12.96,-7.74 27.52,-14.81l182.89 -71.11c18.36,-7.3 10.82,-6.47 29.92,-12.41l185.71 -59.83c38.54,-7.07 28.28,0.15 63.24,-12.96l118.23 -25.69c22.39,-4.85 21.53,-8.49 53.06,-14.68 39.98,-7.86 92.93,-5.69 128.52,-15.41 129.66,-35.41 390.16,-18.12 532.22,-18.12 62.61,0 88.34,24.28 152.26,25.53 60.02,1.18 104.76,15.03 153.77,24.04 28.99,5.33 53.59,5.1 82.01,11.12 31.83,6.73 20.83,11.32 65.22,19.44 31.16,5.7 48.44,3.32 72.7,11.97l320.5 111.3c32.26,13.36 89.67,40.19 119.58,58.22 16.24,9.79 32.47,21.78 51.54,33.13 100.33,59.73 240.67,161.92 243.82,289.58 1.34,54.34 22.2,74.91 48.12,121.21 12.43,22.21 19.6,33.08 30.35,54.31l157.56 325.04c5.2,10.2 7.63,13.84 14.42,27.92 20.95,43.43 26.38,85 79.88,89.45 0,-99.75 0.36,-197.53 14.08,-290.71 1.26,-8.55 2.6,-21.72 4.3,-29.57l76.7 -253.49c25.07,-68.43 61.9,-138.18 98.04,-198.3l48.46 -78.54c16.83,-28.11 31.53,-42.21 51.17,-67.36 19.8,-25.35 30.43,-43.96 52.14,-66.39 12.15,-12.55 17.56,-17.77 28.96,-30.31 128.73,-141.53 312.75,-220.36 476.41,-310.99 228.08,-126.3 195.26,-60.12 382.39,-235.67l22.53 -19.81c26.24,-19.62 48.09,-38.39 80.41,-47.31 13.66,-3.77 27.08,-5.59 48.09,-1.45 40.87,8.06 46.24,20.41 87.73,31.49 10.21,2.73 14.05,2.8 26.88,6.98l420.61 87.4c98.02,28.03 131.65,27.32 233.39,71.4 153.51,66.52 102.65,48.6 235.24,120.36 104.42,56.51 193.06,125.69 291.66,190.94l142.6 102.94c47.19,35.21 89.07,66.76 134.29,102.77l198.44 165.63c69.45,54.26 175.88,165.88 231,243.13 60.23,84.43 117.66,177.36 163.26,268.54l49.8 128c20.15,51.63 48.71,137.56 50.46,195.07 1.73,57.12 13.27,46.77 22.38,96.15l19.75 344.32c-0.04,46.33 7.03,59.11 8.75,97.34zm-4309.52 -233.09c0,-72.88 2.34,-40.49 7.26,-52 37.78,-88.39 79.58,-135.78 119.28,-202.46 30.27,-50.82 69.39,-86.49 91.75,-145.32 3.68,-9.69 2.47,-8.59 6.77,-18.62 8.46,-19.71 4.05,-6.5 11.42,-22.45 8.73,-18.86 8,-20.79 14.13,-45.13 9.39,-37.26 22.3,-58.97 26.91,-91.63 6.24,-44.1 -6.09,-73.95 10.34,-108.19 49.28,13.16 84.3,117.64 139.27,199.4l247.8 438c0.84,1.82 1.66,4.14 2.48,5.99 0.82,1.85 1.61,4.17 2.43,6.03l82.16 239.58c0,167.58 -34.42,232.36 -87.21,370l-111.11 269.88c-11.8,38.2 -15.81,27.06 -25.11,59.56l-30.97 146.83c-1.92,90.36 7.25,117.57 -29.49,190.64 -19.82,39.42 -52.91,46.82 -97.11,46.82 -28.51,0 -49.44,-18.47 -88.5,-38.5 -92.09,-47.25 -92.2,5.01 -75.72,-64.96 16.17,-68.7 23.42,-183.48 -29.98,-244.21 -21.57,-24.52 -19.84,-17.86 -54.88,-30.57 -55.25,-20.05 -13.92,-7.47 -61.82,0.54 -48.66,8.13 -15.52,-54.29 -0.97,-103.5 10.88,-36.81 30.74,-218.67 -20.08,-270.58 -29.57,-30.21 -22.45,-10.32 -57.52,-27.15 0,-94.08 61.73,-280.24 25.06,-447.84 -6.68,-30.53 -16.59,-29.84 -16.59,-60.16zm67.73 -457.2c-43.39,-10.11 -46.08,-22.52 -78.34,-31.72 -21.91,-6.25 -25.87,-4.3 -47.45,-11.82 -101.61,-35.4 -226.05,-60.19 -331.78,-74.62 -177.69,-24.24 -232.83,-34.24 -422.96,-34.24 -55.57,0 -178.01,1.61 -225.07,12l-154.55 23.25c-37.15,10.14 -23.31,0.8 -26.78,32.48 49.5,23.75 262.8,8.49 338.67,8.47 166.7,-0.04 487.26,1.71 651.43,42.83 40.88,10.25 95.12,22.96 133.49,44.31 49.65,27.63 73.01,27.34 104.07,73.73 -10.6,45.5 -84.37,113.24 -119.56,151.37 -1.18,1.28 -2.92,3.08 -4.11,4.36l-31.69 36.03c-128.54,155.26 121.5,201.77 121.5,324.7 0,91.87 -2.51,133.15 -39.85,222.62 -38.51,92.29 -71.44,112.49 -153.8,151l-120.18 57.62c-26.44,16.5 -14.98,-1.28 -24.84,25.96 65.15,54.42 231.26,-127.91 310.26,-30.88 24.33,29.88 79.21,123.49 79.21,157.88 0,8.18 -23.58,60.73 -29.75,71.86 -50.16,90.55 -391.53,367.03 -496.92,417.47 -19.61,9.39 -13.21,5.68 -36.48,14.32l-268.47 87.14c-41.99,10.51 -121.04,22.65 -133.58,69.61 41.23,9.87 72.42,7.67 110.43,0.36 54.88,-10.54 106.45,-33.86 161.5,-50.16l153.45 -58.21c21.76,-7.35 12.87,-2.89 31.14,-11.2 1.78,-0.81 3.83,-2.06 5.58,-2.89l22.99 -10.87c136.63,-54.94 260.9,-131.34 389.46,-203.21l116.05 -53.28c83.64,56 124.52,87.74 71.08,198.08l-47.48 79.52c-23.16,42.85 -96.22,111.13 -99.8,154.19 43.73,-3.63 138.47,-71.02 186.21,-93.3 32.1,-14.98 65.63,-21.9 104.57,-2.84 73.33,35.89 4.31,115.62 -40.81,227.59 -38.26,94.93 -98.45,192.32 -162.67,269.13 -12.51,14.97 -16.28,24.04 -30.52,37.21l-36.37 31.36c-17.73,16.57 -22.44,20.23 -43.07,33.13 -90.83,56.82 -194.66,101.6 -299.64,115.23 -46.57,6.04 -75.53,20.39 -119,24.93 -45.3,4.73 -96.97,-2.29 -142.46,1.48 -174.81,14.46 -508.57,5.93 -673.87,-21.28 -62,-10.21 -141.76,-3.48 -194.61,-17.06 -47.03,-12.08 -140.47,-14.49 -189.48,-30.65l-121.48 -22.46c-23.67,-5.7 -29.84,-10.58 -52.4,-15.33l-199.66 -54.35c-116.89,-36.63 -224.28,-73.38 -334.84,-130.82l-319.56 -188.43c-145.78,-91.2 -440.96,-323.51 -562.48,-445.05 -124.43,-124.44 -192.06,-220.58 -268.61,-374.86 -41.1,-82.82 -80.94,-150.88 -157.81,-206.26 -26.76,-19.27 -14.66,-9.24 -43.82,-23.92 -24.91,-12.54 -26.13,-15.77 -39.88,-36.31 17.83,-33.69 35.07,-54.58 55.7,-88.23l286.84 -500.56c62.55,-103.15 131.87,-205.61 210.26,-297.74 187.57,-220.48 359.08,-386.4 592.76,-558.71l125.01 -86.65c9.56,-4.99 14.61,-6.26 23.17,-10.69l218.07 -112.14c67.56,-28.58 136.24,-61.05 206.84,-81.02l159.74 -51.92c20.9,-6.53 39.83,-5.41 63.56,-12.65 37.5,-11.44 14.73,-12.83 49.01,-18.72 26.97,-4.64 49.78,-2.77 68.61,-7.59l236.94 -50.92c56.71,-7.22 75.84,-1.55 127.74,-16.2 53.8,-15.18 69.81,-10.22 133.01,-10.92 51.07,-0.57 82.43,-8.8 143.6,-8.8 97.87,0 219.83,-1.15 311.85,26.81 37.27,11.32 70.04,0.99 107.74,10.79l85.92 24.15c7.29,1.12 36.97,4.98 50.93,8.34l181.28 55.79c78.03,24.4 206.23,80.92 275,122.93 72.04,44 141.29,85.14 200.5,146.63 34.72,36.04 65.24,123.44 65.24,171.82 0,42.77 -7.76,131.59 -22.61,172.12l-40.59 86.41c-10.97,21.88 -11.52,25.24 -22.99,44.75 -20.18,34.31 -25.56,56.17 -57.74,77.72zm1947.33 364.07c-37.28,0 -59.52,-39.73 -72.38,-71.55l-19.14 -48.6c-8.52,-21.29 -11.08,-39.53 -17.6,-58.6l-43.28 -244.59 0 -372.53c0,-46.76 19.1,-9.5 0,-50.8 -37.67,4.12 -25.72,6.48 -38.33,46.34 -42.46,134.19 -71.24,345.59 -31.63,480.82 9.91,33.81 8.31,106.09 18.86,142.01 10.88,37.04 18.18,89.29 34.68,126.18l58.75 110.58c-10.68,45.86 -53.42,78.03 -83.89,110.84l-24.36 26.44c-29.25,34.18 -65.13,103.38 -108.89,54.47 -29.99,-33.52 -45.48,-67.52 -57.19,-112.15 -0.12,-0.46 -5.04,-19.01 -5.38,-20.02 -24.64,-74.83 -13.78,-94.76 -28.58,-174.62 -18.24,-98.41 -20.25,-210.32 -21.57,-317.09 -0.59,-48.15 -8.8,-58.37 -8.8,-109.73 -33.53,2.79 -35.34,8.09 -40.8,35.4 -20.57,102.96 -39.97,286.64 -15.44,384.9 15.85,63.51 18.45,135.93 34.95,193.65 16.52,57.83 62.01,167.68 131.35,173.45 -1.21,54.28 -19.27,54.59 -47.18,88.28l-143.57 212.03c-32.73,57.09 -52.53,51.45 -141.52,-27.3 -69.35,-61.37 -190.53,-219.82 -192.66,-315.35l-25.4 0c0,96.38 29.41,208.43 80.89,283.18 11.71,17.01 27.49,36.45 41.52,51.61 47.16,50.97 114.52,74.05 173.92,105.48 -3.37,40.6 -22.27,67.54 -31.17,95.82 -22.52,71.57 -38.19,141.4 -44.79,217.68 -7.41,85.54 -10.37,181.46 2.39,268.07 7.16,48.59 0.37,70.35 22.77,112.69 -46.22,24.46 -55.56,-1.47 -95.57,-31.42 -34.83,-26.07 -61.44,-47.33 -92.83,-76.51 -116.23,-108.06 -140.51,-134.15 -231.16,-268.37l-62.4 -106.93c-16.08,-25.2 -15.45,-21.55 -30.43,-54.24 -101.61,-221.8 -101.63,-108.26 -30.5,-327.15 13.05,-40.16 11.68,-88.2 21.98,-130.43 14.47,-59.35 12.92,-11.97 12.92,-105.61 0,-33.31 -10.78,-26.6 -15.69,-60.52 -3.94,-27.29 -3.03,-50.86 -7.48,-68.72 -34.57,-138.81 -146.17,-287.28 -146.17,-319.49l8.22 -237.32c0.74,-36.18 8.96,-67.6 15.6,-94.46 11.54,-46.65 5.86,-56.73 11,-107.54 3.58,-35.47 17.98,-56.41 23.2,-86.86 22.85,-133.26 72.62,-224.08 147.99,-334.61l148.32 -173.41c50.58,-63.77 241.46,-211.99 309.8,-257.47 94.7,-63.02 200.13,-104.51 299.42,-157.78 87.72,-47.06 222.37,-149.31 278,-179.6 35.96,-19.59 50.49,-7.92 96.18,-5.14 75.37,4.6 198.74,48.11 279.17,59.62 40.74,5.83 47.86,16.68 93.47,25.07l326.61 96.72c24.76,11.55 0.4,3.19 23.13,10.73l119.35 41.52c1.76,0.82 3.86,2.03 5.56,2.9 17.8,9.11 -2.2,0.3 15.82,9.59l11.5 5.43c27.14,11.67 -16.22,-6.72 12.44,4.49 26.1,10.21 42.9,21.15 73.64,36.43l420.73 265.07 241.62 215.57c13.43,15.06 11.67,17.16 25.92,33.36l65.16 70.3c8.32,9.83 8.07,9.36 15.69,18.18l226.27 349.46c5.5,11.97 11.37,22.13 16.47,34.33l110.44 406.03c2.71,105.63 24.01,227.15 10.59,324.23 -8.93,64.61 14.07,159.6 -19.25,209.36 -31.81,-23.31 -65.28,-117.29 -85.18,-151.89 -64.8,-112.71 -131.1,-170.67 -235.56,-247.04 -101.26,-74.02 -59.07,-175.9 -59.86,-287.05 -0.36,-50.8 -8.84,-61.91 -9.15,-109.61 -0.48,-74.61 -10.83,-142.96 -34.67,-210.86l-111.25 -252.81c-24.6,-33.19 -23.92,-51.96 -73.93,-53.07 0,113.47 183.85,355.21 166.87,489.38 -1.94,15.36 -9.09,22.84 -15.51,42.86 -5.69,17.77 -5.53,36.46 -12.3,55.55l-52.95 133.32c-25.59,57.27 -43.64,27.22 -72.01,18.32 -23.62,-7.4 -17.55,-0.77 -39.5,-11.3 -19.31,-82.89 33.75,-154.74 -44.83,-293.84 -8.06,-14.28 -4.76,-5.7 -12.75,-21.11 -2.88,-5.56 -8.02,-18 -10.47,-23.4 -21.45,-47.13 -58.24,-156.9 -109.75,-161.19 2.68,32.18 7.36,30.9 19.78,56.43 12.06,24.8 11.16,29.8 20.33,55.87 26.42,75.17 48.04,177.42 9.45,258.99 -17.83,37.69 -30.91,76.08 -49.56,111.31 -41.88,-0.93 -171.54,-3.55 -213.3,-32.23 -35.4,-24.32 -8.72,-125.03 -16.38,-169.88 -5.03,-29.45 -6.6,-13.62 -17.54,-50.2 -3.77,-12.62 -6.72,-30.3 -12.86,-46.4l-89.74 -232c-13.01,-30.56 -31.92,-54.2 -39.64,-87.35l-25.4 0c0,68.41 2.93,57.95 18.34,108.65 9.87,32.45 5.74,73.53 11.95,115.05 6.12,40.84 2.89,81.43 3.18,123.82 0.41,60.64 17.33,62.22 17.33,109.68l0 110.06c-72.71,0 -68.23,-9.52 -142.42,1.47 -236.76,35.07 -149.28,29.84 -208.28,-167.23 -19.7,-65.78 -34.81,-192.57 -53.23,-251.58l-56.68 -180.38c-7.87,-20.99 -8.88,-18.43 -16.41,-42.86 -7.58,-24.59 -3.55,-24.21 -14.87,-44.39 -10.62,-18.94 -13.18,-23.87 -41.51,-26.22 0,105.95 -10.44,224.04 4.89,325.3 16.34,107.96 -7.76,224.12 4.82,333.87 2.94,25.64 10.73,39.14 7.02,76.64 -5.24,52.85 -40.78,55.4 -96.94,72.97 -111.93,35.03 -129.77,37.67 -246.46,92.21 -27.8,13 -34.8,30.34 -54.33,30.34z"/>
 </g>
</svg>
