<?xml version="1.0" encoding="UTF-8"?>
<!DOCTYPE svg PUBLIC "-//W3C//DTD SVG 1.1//EN" "http://www.w3.org/Graphics/SVG/1.1/DTD/svg11.dtd">
<!-- Creator: CorelDRAW 2020 (64-Bit Оценочная версия) -->
<svg xmlns="http://www.w3.org/2000/svg" xml:space="preserve" width="42.3332mm" height="42.3332mm" version="1.1" style="shape-rendering:geometricPrecision; text-rendering:geometricPrecision; image-rendering:optimizeQuality; fill-rule:evenodd; clip-rule:evenodd"
viewBox="0 0 4233.32 4233.32"
 xmlns:xlink="http://www.w3.org/1999/xlink"
 xmlns:xodm="http://www.corel.com/coreldraw/odm/2003">
 <defs>
  <style type="text/css">
   <![CDATA[
    .fil0 {fill:#030303}
    .fil1 {fill:#979797}
   ]]>
  </style>
 </defs>
 <g id="Слой_x0020_1">
  <metadata id="CorelCorpID_0Corel-Layer"/>
  <g id="_1696954965120">
   <path class="fil0" d="M3470.6 3765.6l0 0zm-1515.52 -474.13l-16.94 8.47 16.94 -8.47zm0 0l0 0zm16.93 -16.93l2.53 2.52c-0.17,-0.16 -3.37,-1.68 -2.53,-2.52zm-33.87 25.4l-64.9 36.69c-27.44,13.62 -45.19,23.97 -74.07,36 -330.77,137.74 -763.95,174.16 -1073.51,-20.13 -31.73,-19.91 -106.77,-69.69 -125.24,-94.9l137.84 56.9c49.85,20.11 98.7,33.91 154.98,48.22 214.53,54.52 512.96,64.7 724.02,22.73l243.53 -61.27c24.62,-8.91 43.6,-21.44 77.35,-24.24zm-1337.72 -42.34l0 0zm2125.12 -474.13c103.96,0 79.08,30.83 164.09,56.06 73.36,21.77 95.72,0.71 159.83,-3.04 81.53,-4.79 62.94,73.94 227.6,140.53 131.7,53.26 142.11,80.27 193.33,179.2 20.55,39.69 52.03,71.41 77.81,108.45 51.49,74 25.56,106.66 83.27,111.47 40.42,-48.4 -61.31,-164.04 -76.2,-186.27 108.26,25.22 137.97,63.44 156.22,182.44 10.1,65.86 10,88.65 28.8,140.54 35.58,98.21 52.05,53.68 52.05,176.55 0,112.61 -222.19,129.81 -387.59,-61.14 -38.97,-45 -75.44,-96.55 -130.32,-132.15 -73.67,-47.78 -149.75,-67.82 -230.12,-108.55 -130.14,-65.94 -154.62,-183.98 -191.77,-121.49 -5.96,10.03 -4.21,14.39 16.28,42.37 29.06,39.69 88.11,89.11 131.02,115.13 128.37,77.82 247.06,45.77 384.69,275.7 70.95,118.53 178.05,426.91 -127.75,356.36 -37.56,-8.66 -92.55,-32.44 -117.88,-51.45 -17.71,-13.29 -26.94,-28.27 -42.75,-42.93 -24.3,-22.56 -19.3,-15.58 -48.88,-0.92 2.58,30.97 12.06,34.06 25.4,59.27 -35.98,0.8 -60.75,13.12 -96.47,22.06 -80.91,20.26 -276.06,55.39 -276.06,-81.33 0,-108.95 15.75,-82.43 16.93,-135.46 -55.48,-12.93 -67.73,24.51 -67.73,101.6 -36.24,-3.02 -115.59,-18.1 -147.67,-30.13 -164.77,-61.77 20.67,-254.23 20.67,-393.2 0,-27.78 -17.08,-31.77 -42.33,-33.87 -15.65,32.62 -4.23,72.89 -25.22,118.71 -14.69,32.06 -33.97,60.8 -50.98,92.95 -50.81,-13.56 -204.5,-95.19 -239.93,-124.13 -91.44,-74.7 -90.27,-167.37 -90.27,-282.26 25.76,-6.88 131.36,-93.79 154.69,-116.25 39.35,-37.89 166.49,-219.33 268.82,-53.26 37.55,60.95 1.94,120.73 79.97,174.02 81.84,55.9 -9.73,37.13 103.95,150.05 84.08,83.51 341.6,239.32 442.43,217.97l0 -42.33c-88.45,-7.37 -198.2,-70.65 -265.38,-107.16 -86.45,-46.98 -233.53,-134.98 -186.43,-251.3 10.31,-25.47 24.69,-40.65 47.48,-45.87 93.86,-21.52 73.47,25.52 122.04,-64.23 39.43,-72.83 65.84,-29.18 124.9,-61.37 28.41,-15.49 80.66,-96.61 98.13,-96.61 36.98,0 30.74,16.94 67.73,16.94 32.37,0 3.08,2.6 25.4,-8.47 -6.13,-73.68 -113.94,-74.52 -166.98,-14.58 -21.16,23.91 -28.5,50.6 -65.32,61.68 -128.8,38.78 -57.9,-21.83 -148.7,113.77 -70.92,0 -131.2,2.13 -152.4,93.13 -26.12,-6.98 -44.22,-22.71 -53.02,-49.52 -16.5,-50.27 45.17,-90.05 112.58,-94.12 47.27,-2.86 54.12,-9.1 75.91,-34.16 -22.61,-97.03 -85.82,-60.76 -116,-129.94 -27.67,-63.42 16.66,-149.46 82.13,-149.46zm-1964.26 59.27c0,157.3 281.68,111.14 330.2,110.06 19.01,81.59 120.77,118.54 220.13,118.54 89.59,0 66.16,-57.33 203.2,-25.4 -56.99,49.54 -214.54,50.8 -287.86,50.8 -83.1,0 -197.66,-42.85 -259.58,-70.62 -72.51,-32.52 -158.07,-73.32 -256.89,-73.32 0,-190.93 -157.13,-154.63 -84.66,-465.66 88.34,59.16 77.64,50.8 194.73,50.8 -2.32,104.08 -59.27,204.09 -59.27,304.8zm872.07 -1032.93c0,66.96 -0.16,28.65 64.37,71.09 89.99,59.19 59.96,259.11 172.69,259.11 117.78,0 98.16,-101.6 228.6,-101.6 25.17,0 43.8,14.23 80.62,20.97 56.08,10.28 232.65,-6.18 232.65,80.63 0,50.03 -42.34,103.09 -42.34,177.8 0,91.2 67.74,101.04 67.74,194.73 0,44.53 -69.61,47.74 -113.43,208.31 -28.64,104.95 -115.13,77.49 -200.2,121.52 -73.37,37.98 -111.48,116.23 -189.08,132.66 -50.4,10.67 -90.9,0.63 -145.73,15.13 -86.21,22.8 -48.04,38.84 -172.83,38.84 -62.5,0 -45.15,-42.33 -186.26,-42.33 -49.35,0 -48.71,33.87 -152.4,33.87 -211.88,0 -204.57,-333.8 -95.22,-442.36 173.02,-171.78 362.83,-23.31 467.75,-23.31 89.36,0 197.17,-43.4 257.62,-29.01 26.92,6.41 64.11,27.49 64.11,-13.32 0,-47.93 -110.16,-39.43 -144.42,-34.47 -59.23,8.58 -114.8,26 -177.31,26 -115.79,0 -107.42,-59.26 -287.87,-59.26 -158.94,0 -304.79,153.19 -304.79,313.26 0,165.9 49.24,152.4 -59.27,152.4 -235.91,0 -196.82,-60.55 -154.1,-230.3 13.77,-54.72 27.1,-101.49 27.1,-167.63 129.05,-68.28 347.44,-285.09 313.26,-431.8 -52.89,1.18 -38.51,6.91 -49.27,52.32 -19.64,82.88 -62.92,130.25 -112.78,192.03 -68.11,84.41 -162.9,162.05 -286.68,162.05 -78.89,0 -183.92,-166.07 -39.11,-267.72 162.96,-114.38 88.94,-199.14 259.04,-282.82 95.72,-47.08 176.93,-36.16 228.93,-135.13 43.77,-83.31 157.31,-152.53 211.54,-152.53 34.18,0 55.27,9.01 82.19,19.41 131.6,50.82 115.78,-2.47 197.21,-2.47 47.62,0 82.14,11.77 117.41,8.02 50.38,-5.37 104.63,-66.29 170.19,-7.76 18.44,16.46 27.4,40.7 42.32,59.28 29.38,36.59 101.88,36.02 101.88,92.85 0,66.01 -66.06,89.2 -123.41,105.2 -63.87,17.81 -113.62,37.24 -164.46,64.14 -27.96,-58.27 -16.6,-70.01 -65.38,-120.88 -28.98,-30.23 -75.56,-73.22 -120.88,-56.92zm-1151.46 296.33c-46.62,-31.21 -95.73,-106.34 -131.9,-155.97 -24.12,-33.1 -35.18,-55.2 -54.82,-89.12 -75.51,-130.4 -56.8,-182.33 178.73,-304.76 71.25,-37.03 240.72,-104.55 312.78,-110.55 33.84,50.53 205.73,188.01 270.94,203.2 -15.57,21.24 -112.26,64.27 -159.27,94.73 -75.86,49.16 -390.95,266.9 -416.46,362.47zm93.13 220.13c0,161.85 41.66,26.78 -3.21,166.12 -74.41,231.06 87.87,355.59 87.87,435.01 0,58.25 -145.64,151.83 -194.73,177.8 -191.32,-285.71 -126.93,-715.77 62.82,-978.57 109.71,-151.95 360.12,-338.99 540.68,-416.05 55.07,-23.51 173.52,-81.95 234.7,-87.04 -1.52,1.32 -4.1,1.11 -4.83,3.64l-99.2 70.13c-85.34,82.2 -27.72,110.58 -191.27,164.33 -212.95,69.97 -189.44,142.99 -275.28,258.12 -43.44,58.28 -157.55,90.55 -157.55,206.51zm736.59 -711.19l2.53 2.52c-0.17,-0.17 -3.37,-1.68 -2.53,-2.52zm33.87 1.53c-12.78,-10.07 -13.64,-1.55 -0.45,-10l17.38 -10c24.65,10.05 24.86,2.69 -0.34,10l-16.59 10zm330.2 -1.53c-56.63,0 -75.41,29.74 -136.27,18.34 -49.21,-9.22 -83.02,-30.98 -134.66,-35.28 1.78,-1.13 4.75,-4.52 5.67,-2.79l144.14 -33.66c331.95,-54.96 579.06,45.01 809.13,288.24 49.92,52.77 93.5,109.6 127.73,177.06 78.6,154.88 90.19,214.1 90.19,392.42 0,145.37 -78.25,329.76 -138.74,420.05 -161.53,241.11 -384.84,370.74 -664.56,453.04 -372.8,109.69 -840.64,92.38 -1191.96,-97.03 -28.85,-15.56 -54.62,-41.41 -79.07,-47.93 13.5,-20.15 23.72,-24.19 45.68,-38.99 186.03,-125.35 125.9,-144.03 447.76,-14.19 344.94,139.17 508.14,-14.56 607.23,-14.56 38.58,0 19.4,8.59 67.74,0.69 89.98,-14.71 73.05,-48.6 228.81,-51.27 139.48,-2.38 147.67,-81.22 229.62,-134.44 81.09,-52.67 198.21,-24.06 230.75,-133.31 17.42,-58.49 16.71,-91.42 53.69,-132.58 160.24,-178.39 2.18,-192.5 2.18,-319.55 0,-79.85 145.22,-265.22 -102.17,-287.29 -43.77,-3.91 -120.85,-7.21 -158.49,-19.31 -189.63,-60.97 -199.85,86.47 -281.2,86.47 -28.11,0 -40.71,-31.73 -50.8,-50.8 67.74,-35.85 115.97,-48.06 197.93,-73.01 33.22,-10.11 67.41,-26.56 88.23,-47.23 133.54,-132.61 -56.3,-212.98 -67.47,-225.45 -9.18,-10.24 -52.71,-103.04 -142.49,-103.04 -41.94,0 -70.19,23.2 -105.12,30.92 -33.14,7.32 -77.71,-5.52 -123.48,-5.52zm541.86 -643.47l0 0zm0 0c28.1,-41.96 159.3,-112.59 212.75,-134.39 77.87,-31.75 179.99,-60.65 278.74,-68.39 532.18,-41.71 1144.05,335.92 1337.3,770.05 138.48,311.12 -28.38,443.21 -34.31,558.74 -7.99,155.54 88.97,162.52 -80.65,232.23 -116.94,48.06 -334.87,295.8 -732.09,326.23 -241.39,18.5 -441.43,-36.94 -575.34,-126.61 0,-177.36 39.22,-233.41 -51.87,-456.12 -49.56,-121.16 -131.35,-221.51 -221.1,-312.3 -196.09,-198.33 -187.53,-41.01 -264.62,-395.93 -12.17,-56.07 -57.49,-53.81 -52.71,-0.1 9.32,104.63 43.18,157.3 56.9,216.19 -59.58,-31.53 -105.18,-40.68 -143.93,-59.27 0,-141.83 32.85,-236.88 81.71,-333.16 48.67,-95.92 120.08,-178.85 247.07,-165.54 356.32,37.35 767.69,388.26 1045.35,623.17l535.75 505.64c15.45,20.02 28.18,40.98 48.5,54.59 33.89,22.69 61.67,4.43 42.21,-33.29 -8.2,-15.9 -82.36,-80.59 -101.57,-103.57l-653.31 -599.75c-40.66,-32.38 -76.63,-62.03 -118.42,-93.25 -233.58,-174.47 -546.38,-405.17 -856.36,-405.17zm-1989.65 -677.33c33.85,2.82 89.41,24.58 126.98,33.88 166.49,41.21 234.7,47.93 412.43,70.17 554.07,69.34 850.53,112.18 1311.16,458.37 33.51,25.19 64.84,51.21 96.75,72.58 -48.04,71.73 -99.15,73.24 -194.41,237.39 -47.86,82.47 -84.99,215.79 -84.99,346.81 -101.85,-48.88 -410.84,7.37 -489.36,27.1 -46.84,11.77 -100.93,25.56 -146.72,39.55 -25.96,7.93 -119.9,46.46 -135.77,46.65 -41.86,0.5 -188.95,-108.57 -225.04,-140.88 -20.43,-18.29 -31.76,-24.41 -50.96,-42.17 -228.05,-211 -433.57,-560.94 -542.67,-854.32 -24.36,-65.53 -75.25,-217.05 -77.4,-295.13zm3242.71 3471.32c50.12,11.68 86.88,37.59 146.14,48.62 126.4,23.52 229.14,-9.23 227.02,-158.86 -1.1,-77.21 -27.55,-99.18 -51.48,-152.17 -40.68,-90.06 -15.43,-182.86 -79.1,-276.5 -43.46,-63.91 -87.6,-66.05 -160.47,-93.53 -115.99,-43.73 0.36,-80.56 -220.4,-186 -58.04,-27.72 -84.86,-33.55 -132.85,-70.35 -36.68,-28.13 -64.37,-76.23 -114.93,-88.94 -82.22,-20.67 -100.58,52.14 -243.32,-26.93 -175.25,-97.08 -285.75,57.73 -249.54,181.57 17.96,61.43 79.28,75.15 100,103.43 -80.44,0 -97.07,19.42 -143.93,50.8 -14.69,-55.02 -88.19,-104.73 -152.4,-110.07l67.72 -84.69c47.04,-66.44 137.55,-244.79 143.95,-321.71 88.68,46.93 144,77.22 252.1,103.5 89.73,21.8 218.95,32.41 340.17,23.11 227.43,-17.44 464.96,-121.88 643.85,-262.07 36.73,-28.78 57.69,-49.74 107.47,-70.34 46.62,-19.29 88.29,-26.74 113.08,-64.72 59.1,-90.51 -52.97,-144 27.7,-302.49 205.57,-403.85 -169.28,-818.74 -489.06,-1031.9 -331.09,-220.69 -748.65,-332.07 -1142.48,-201.72 -128.7,42.6 -213.59,114.11 -242.3,121.77 -140.26,-93.92 -341.85,-258.26 -517.64,-329.02 -43.22,-17.4 -73.83,-34.97 -117.25,-52.08 -403.56,-158.96 -716.44,-133.15 -1145.27,-217.85 -103.19,-20.39 -178.69,-57.4 -268.76,-78.38 0,120.81 45.53,259.98 77.18,354.61l210.67 449.74c105.01,157.54 97.42,162.15 227.34,322.99 18.66,23.1 35.77,33.65 52.07,57.99 -94.72,22.07 -195.69,63.69 -276.59,104.4 -43.79,22.04 -81.14,39.84 -119.08,67.19 -172.83,124.63 -172.72,179.99 -59.91,360.2 25.54,40.8 47.65,73.07 75.7,110.55l92.02 102.72c-93.57,176.84 -190.96,423.21 -140.5,707.76 80.85,455.9 579.07,731.58 1062.15,679.56 133.38,-14.36 238.82,-40.25 353.63,-78.17 117.39,-38.77 200.92,-88.58 299.51,-140.75 0,301.31 185.53,312.44 306.77,387.49 55.74,34.51 54.48,38.99 53.46,103.57 -0.72,45.94 21.58,92.4 57.88,115.3 32.02,20.2 93.59,30.82 138.72,39.08 97.97,17.93 48.31,19.16 97.27,80.52 105.37,132.05 290.22,42.43 401.94,24.56 53.61,-8.57 90.18,11.64 138.73,27.43 184.49,60.02 301.84,13.44 286.57,-184.95 -4.48,-58.25 -29.63,-97.23 -33.55,-144.27z"/>
   <path class="fil0" d="M2285.28 1081.68c0.82,36.89 2.22,33 22.55,53.64 55.69,56.51 88.55,60 166.19,70.88 137.27,19.25 130.17,34.14 192.11,121.15 96.1,135.01 174.87,42.34 272.7,201.44 22.92,37.28 38.33,61.7 73.06,87.8 68.08,51.16 148.06,33.42 193.78,119.48 52.14,98.15 15.59,99.82 176.93,144.81 150.71,42.02 51.41,160.66 254.19,219.95 53.29,15.58 91.17,39.24 104.75,-11.62 -15.73,-21.46 -19.06,-18.11 -50.48,-25.73 -264.26,-64.06 -82.28,-181.93 -306.76,-235.1 -51.68,-12.24 -73.81,-12.72 -101.62,-50.78 -41.9,-57.31 -27.42,-118.45 -143.29,-161.51 -114.76,-42.64 -107.77,-30.68 -173.89,-139.37 -86.01,-141.38 -184.4,-62.76 -270.49,-195.18 -132.08,-203.17 -245.62,-64.22 -355.1,-187.36 -21.18,-23.82 -20.87,-25.61 -54.63,-12.5z"/>
   <path class="fil0" d="M1887.34 1411.88c-3.48,-41.91 -3.92,-27.48 -93.27,-67.59 -225.45,-101.22 -419.66,-206.8 -631.19,-334.01 -272.6,-163.94 -410.9,-264.89 -665.32,-469.21 -49.87,-40.04 -154.58,-160.54 -176.3,-138.83 -22.48,22.48 48.2,64.34 65.48,80.32 312.1,288.46 577.77,452.74 949.84,667.29l316.52 166.07c45.29,22.68 191.08,94.99 234.24,95.96z"/>
   <path class="fil0" d="M854.42 2834.27c47.77,0 41.71,1.14 54.57,-38.56 11.76,-36.33 17.36,-43.5 29.92,-71.68 62.41,-140.15 143.67,-231.51 268.68,-323.98 217.91,-161.2 194.76,-242.34 369.65,-366.95 47.55,-33.88 10.26,-53.96 5.31,-53.96 -89.19,0 -224.63,239.04 -406.4,381 -122.92,96 -205.5,181.82 -273.85,318.81 -22.86,45.82 -47.88,91.64 -47.88,155.32z"/>
   <path class="fil0" d="M2684.23 1980.37c7.43,35.05 4.57,21.38 25.31,40.17l115.93 87.27c58.34,37.54 114.96,67.49 184.22,95.18 211.99,84.77 457.89,119.98 695.78,87.21 55.25,-7.62 74.07,-2.95 61.47,-57.06 -65.74,0 -105.42,16.93 -177.8,16.93 -241.97,0 -328.99,-9.44 -551.62,-91.84 -105.41,-39.02 -165.64,-76.06 -250.32,-139.15 -46.46,-34.62 -48.3,-48.78 -78.59,-56.87l-24.38 18.16z"/>
   <path class="fil0" d="M3411.34 1140.94c1.16,52.31 32.19,59.3 65.78,86.62 88.26,71.76 168.63,144.79 239.07,235.06 47.59,60.98 86.99,113.7 120.96,192.31 17.62,40.77 30.23,75.95 39.31,121.55 12.83,64.43 -3.68,98.92 59.81,84.13 0,-263 -236.1,-523.66 -426.88,-673.79 -31.02,-24.42 -56.03,-62.19 -98.05,-45.88z"/>
   <path class="fil0" d="M3809.27 1970.67c55.29,-4.6 39.72,-41.17 33.62,-92.64 -18.89,-159.67 -161.99,-97.59 -230.3,-210.21 -27.04,-44.59 -20.87,-47.02 -59.15,-84.78 -36.36,-35.88 -51.39,-33.26 -93.19,-59.21 -25.25,-15.68 -60.96,-46.13 -74.19,-69.75 -32.07,-57.24 -9.97,-101.47 -50.92,-101.47 -58.67,0 1.44,138.53 48.52,180.08 59.24,52.27 120.77,50.14 165.03,122.83 47.5,77.99 48.28,96.03 151.83,136.04 35.68,13.78 67.98,28.87 83.46,60.47 15.73,32.14 9.78,86.32 25.29,118.64z"/>
   <path class="fil0" d="M1988.94 2326.27c-99.54,0 -166.2,-0.96 -261.35,-34.97 -25.87,-9.25 -55.7,-21.84 -83.07,-35.47 -35.03,-17.44 -104.31,-70.79 -104.31,-14.22 0,56.37 274.66,135.46 372.53,135.46 108.35,0 219.07,-3.12 294.11,-95.35 12.21,-15 68.18,-99.71 11.24,-98.47 -41.91,0.91 -14.21,42.76 -71.45,89.05 -34.82,28.16 -98.02,53.97 -157.7,53.97z"/>
   <path class="fil0" d="M2573.14 844.61c14.67,54.93 67.63,16.93 194.73,16.93 152.75,0 305.38,17.05 437.55,78.92 30.54,14.29 73.19,45.49 104.32,48.08 22.54,-40.12 19.48,-41.59 -56.4,-79.07 -176.16,-87 -395.96,-115.31 -597.18,-91.9 -43.56,5.06 -62.69,-0.7 -83.02,27.04z"/>
   <path class="fil0" d="M2463.08 1759.01l24.38 -18.16c-9.46,-43.72 -17.18,-35.52 -47.37,-60.46 -22.85,-18.88 -32.84,-39.59 -55.34,-63.19 -94.09,-98.74 -168.9,-243.42 -206.03,-378.16 -13.12,-47.61 -3.13,-58.23 -37.38,-81.16 -47.31,31.68 -8.05,124.13 11.85,174.41 56.43,142.52 134.35,263.78 240.03,369.57 22.39,22.41 37.11,48.4 69.86,57.15z"/>
   <path class="fil0" d="M2725.54 2470.21c0,43.72 136.23,78.59 174.28,88.18 98.45,24.83 320.75,49.83 418.43,4.02 7.34,-3.44 12.22,-3.26 17.86,-14.22 11.44,-22.23 6.16,-6.46 -0.97,-18.72 -9.69,-19.78 25.91,-26.52 -79.8,-3.67 -120.65,26.08 -246.81,8.21 -360.57,-21.62 -107.39,-28.17 -169.23,-93.48 -169.23,-33.97z"/>
   <path class="fil0" d="M4012.47 1699.74c-2.03,-90.97 -93.1,-237.45 -136.66,-295.14l-153.09 -177.11c-23.93,-24.44 -29.03,-34.74 -74.32,-35.75 -11.14,47.82 -2.23,36.14 82.55,120.65 40.87,40.73 70.9,77.08 105.05,123.56 64.57,87.9 82.6,126.22 115.77,222.94 16.19,47.2 18.04,50.79 60.7,40.85z"/>
   <path class="fil0" d="M2979.54 2351.67c0,29.97 39.74,34.94 66.5,43.57 171.66,55.34 253.11,49.47 416.17,41.17 20.91,-1.06 47.25,-2.17 60.53,-7.2 32.59,-12.33 23.18,-4.03 24.06,-43.67 -75.37,-17.56 -240.14,48.1 -492.21,-41.32 -22.96,-8.15 -75.05,-37.65 -75.05,7.45z"/>
   <path class="fil0" d="M3428.27 3452.34c15.36,-72.51 -36.83,-12.69 -79.8,-233.47 -8.15,-41.84 -22.23,-98.52 -42.08,-127.25 -14.5,-20.98 -63.53,-79.55 -89.79,-79.55 -89,0 49.72,51.02 81.16,215.18 13.21,68.93 39.63,223.06 130.51,225.09z"/>
   <path class="fil0" d="M2632.41 3511.6c0,22.32 17.5,27.56 37.18,39.02 172.39,100.32 212.66,267.46 301.48,291.18l24.38 -18.16c-9.98,-39.97 -51.5,-59.58 -76.51,-90.57 -55.21,-68.39 -84.94,-128.01 -157.03,-181.64 -30.02,-22.34 -129.5,-106.35 -129.5,-39.83z"/>
   <path class="fil0" d="M2920.27 1157.88c16.34,0 59.85,-20.36 -13.04,-63.16 -21.41,-12.57 -30.64,-19.99 -51.96,-32.71 -351.56,-209.79 -386.03,-121.5 -316.11,-90.87 52.12,22.83 94.19,30.53 175.12,70.99l205.99 115.75z"/>
   <path class="fil0" d="M1260.81 1902.94c0,52.89 10.18,88.39 26.26,126.14 15.43,36.2 31.46,66.84 75.34,77.06 42.38,-80.09 -50.8,-31.38 -50.8,-211.67 0,-36.34 4.78,-50.11 15.23,-78.61 37.18,-101.45 -66.03,-90.23 -66.03,87.08z"/>
   <path class="fil0" d="M1514.81 2935.87c69.35,-36.69 118.63,-175.41 232.23,-96.16 28.4,19.81 21.56,19.43 55.64,11.49 -1.59,-71.32 -73.35,-84.66 -135.47,-84.66 -47.71,0 -90.43,43.64 -116.44,69.83 -13.53,13.63 -36.9,33.5 -46.99,47.33 -18.83,25.8 -8.76,33.39 11.03,52.17z"/>
   <path class="fil0" d="M2336.08 3130.6c0,77.67 25.4,25.08 25.4,110.07 0,108.42 -101.6,135.08 -101.6,169.33 0,77.8 152.4,-34.92 152.4,-177.8 0,-55.73 -27.14,-119.23 -76.2,-101.6z"/>
   <path class="fil0" d="M295.62 1767.47c58.27,30.84 292.34,93.14 381,93.14 -2.67,-32.01 4.09,-25.97 -25.02,-34.26 -13.44,-3.82 -39.59,-6.61 -57.55,-10.17 -32.78,-6.51 -77.5,-14.61 -112.25,-23.22 -33.35,-8.27 -67.98,-15.82 -100.55,-26.46 -64.48,-21.05 -66.46,-34.44 -85.63,0.97z"/>
   <path class="fil0" d="M3030.34 3156c0,47.94 50.42,7.43 94.06,134.54 17.01,49.52 15.42,51.73 49.87,51.73 30.84,-36.92 -33.99,-190 -127,-211.67 -4.74,6.82 -16.93,20.91 -16.93,25.4z"/>
   <path class="fil0" d="M2099.01 2487.14c72.93,50.68 45.49,-50.57 169.91,-67.16 111.64,-14.88 32.4,-101.38 -99,-14.33 -34.35,22.75 -60.73,37.79 -70.91,81.49z"/>
   <path class="fil0" d="M2141.34 2681.87c91.29,0 -96.67,-196.8 -132.18,-130.44 -13.87,25.91 3.87,26.15 4.99,27.44 0.41,0.47 40.47,24.78 47.68,30.11 15.8,11.67 69.82,72.89 79.51,72.89z"/>
   <path class="fil0" d="M2776.34 2961.27c0,53.06 -5.35,72.35 50.8,59.27l0 -76.2c76.95,-51.53 66.39,-7.37 67.73,-67.74 -69.87,-16.27 -118.53,40.06 -118.53,84.67z"/>
   <polygon class="fil1" points="1345.48,1616.61 1362.07,1606.61 1362.41,1596.61 1345.03,1606.61 "/>
  </g>
 </g>
</svg>
