<?xml version="1.0" encoding="UTF-8"?>
<!DOCTYPE svg PUBLIC "-//W3C//DTD SVG 1.1//EN" "http://www.w3.org/Graphics/SVG/1.1/DTD/svg11.dtd">
<!-- Creator: CorelDRAW 2020 (64-Bit Оценочная версия) -->
<svg xmlns="http://www.w3.org/2000/svg" xml:space="preserve" width="50.8mm" height="50.8mm" version="1.1" style="shape-rendering:geometricPrecision; text-rendering:geometricPrecision; image-rendering:optimizeQuality; fill-rule:evenodd; clip-rule:evenodd"
viewBox="0 0 5080 5080"
 xmlns:xlink="http://www.w3.org/1999/xlink"
 xmlns:xodm="http://www.corel.com/coreldraw/odm/2003">
 <defs>
  <style type="text/css">
   <![CDATA[
    .fil0 {fill:black}
   ]]>
  </style>
 </defs>
 <g id="Слой_x0020_1">
  <metadata id="CorelCorpID_0Corel-Layer"/>
  <path class="fil0" d="M4478.85 3581.4c5.82,-24.98 61.36,-143.79 84.67,-160.86 -7.56,32.43 -17.92,58.27 -32.57,85.96 -7.7,14.53 -11.92,21.36 -20.66,38.61 -3.3,6.51 -7.09,15.83 -12.1,21.77 -12.69,15.03 0.91,7.2 -19.34,14.52zm-1937.18 516.47l-70.9 0c-85.96,-3.08 -171.64,-18.14 -258.61,-53.17 -316.84,-127.64 -186.01,-95.07 -434.17,36.24 -198.48,-132.91 -276.31,-1.97 -349.95,-38.82 -109.88,-54.98 -170.62,-38.19 -293.51,-28.92 -6.27,-75.33 -19.7,-93.13 -101.6,-93.13 -138.94,0 -108.09,3.82 -237.07,33.87 -14.7,-63.11 -40.35,-85.82 -93,-110.2 -124.76,-57.76 -389.72,-59.14 -533.53,-59.14 19.99,-74.88 110.94,-71.17 229.88,-218.85 162.68,-202.02 104.07,-200.35 83.39,-289.14 62.67,-33.17 98.37,-47.3 153.74,-91.8 121.43,-97.58 87.93,-166.06 83.32,-221.47l135.47 -118.53c-17.99,-24.55 -270.03,-212.72 -287.87,-237.07 202.15,0 319.38,77.73 376.35,79.18l97.78 -36.85c0,-82.83 20.66,-144.35 37.18,-216.82l107.81 -400.19c31.23,-152.88 4.02,-250.65 117.44,-255.09 47.62,-1.86 70.64,-5.26 118.04,-8.96 107.66,-8.41 325.82,-118 627.06,-118 -8.85,-33.15 -16.85,-28.44 -45.79,-47.34 -98.32,-64.19 -103.18,-221.11 -83.88,-285.53 11.37,-37.94 -9.2,-10.09 19.61,-31.2 10.48,39.26 70.31,83.01 99.48,112.19 54.74,54.73 288.6,285.74 340.78,285.74 32.37,0 268.06,-132.63 296.34,-253.99 26.48,2.2 30.07,8.46 59.26,8.46 182.68,0 207.46,-240.99 287.87,-262.46 22.62,84.7 107.37,12.9 130.76,-4.71 104.02,-78.33 290.39,-294.41 343.37,-308.56 0,160.1 12.89,314.11 45.61,445.45 14.52,58.27 42.45,166.65 91.48,179.86 28.82,7.77 15.93,-6.53 32.46,8.98 16.15,15.17 -47.93,176.86 -3.3,291.65 16.78,43.14 31.5,39.26 79.28,39.26 0,120.03 44.81,349.02 25.4,389.46l618.07 -169.33c0,69.33 -27.83,132.25 -67.3,161.31 -22.03,16.21 -122.92,68.79 -152.83,75.76 8.28,31.02 4.96,19.6 29.75,37.97l417.76 310.38c28.35,21.27 128.11,102.03 153.62,108.85 -2.67,32.09 -18.78,72.62 -27.19,108.28 -53.01,224.93 -26.75,286.36 -115.67,553.19 -19.59,58.8 -42.95,144.78 -68.81,193.66 147.05,0 373.9,14.11 431.8,93.13 -16.81,8.07 -136.06,25.78 -162.64,32.09 -469.23,111.35 -1016.81,397.27 -1471.5,213.53 -23.4,-9.46 -47.71,-23.12 -76.12,-25.49 -4.24,50.88 -20.22,85.51 -42.34,118.54 -249.99,0 -133.86,-11.12 -370.11,27.81 -110.44,18.2 -216.98,36.38 -322.47,39.92zm1657.78 -618.07c137.61,0 249.26,-59.31 321.73,-76.2 -6.85,82.32 -103.97,137.92 -127,169.34 27.03,101.2 209.97,67.43 324.26,82.14 36.7,4.73 77.28,1.01 116.01,27.92 -100.65,0 -219.79,35.57 -298.18,57.42 -95.48,26.62 -180.36,58.37 -274.36,89.71 -246.46,82.18 -520.93,185.41 -800.22,99.57 -71.25,-21.89 -109.89,-46.53 -168.17,-77.36 21.34,-44.48 32.57,-97.88 56.35,-146.86 51.51,-106.08 169.87,-347.53 172.25,-454.27 48.92,25.88 67.67,38.93 131.81,36.31 39.38,-1.61 133,-8.32 156.06,-19.38l-8.47 169.33c95.09,-2.12 282.07,-178.74 372.53,-186.26 -11.25,23.45 -8.05,46.78 -17.86,75.26 -6.88,19.96 -19.66,49.06 -30.24,71.51 -8.94,18.98 -27.4,49.85 -12.07,65.27 9.83,9.89 66.14,16.55 85.57,16.55zm-626.53 -245.53l2.53 2.53c-0.17,-0.17 -3.37,-1.69 -2.53,-2.53zm-1100.66 821.27c-193.46,0 -342.31,-80.01 -471.65,-188.76 -44.07,-37.06 -72.5,-76.13 -110.41,-118.19 -26.19,-29.05 -69.44,-94.22 -89.58,-130.54 -45.12,-81.36 -191.96,-397.19 -191.96,-476.91l8.47 -110.07c207.84,99.73 320.21,35.53 518.14,-82.98 153.74,-92.05 377.23,-258.58 479.39,-409.61 31.81,-47.03 62.38,-80.31 69.48,-150.66 6.27,-62.13 25.18,-142.21 25.18,-203.41 31.89,7.43 95.16,45.86 129.7,65.03 101.96,56.63 211.99,117.67 305.69,185.38 469.96,339.57 374.07,697.58 204.99,1194.3l-110.47 278.99c-18.43,46.3 -15.71,53.66 -64.71,62.29l-355.04 34.42c-167.61,-1.61 -155.41,50.72 -347.22,50.72zm-1693.33 -1083.73c41.91,-28.07 74.28,-61.25 118.53,-84.67l465.67 414.86c-210.34,140.85 -396.79,-39.03 -592.67,-84.66 31.11,58.79 83.18,86.2 149.95,112.52l188.72 82.21c-19.66,26.83 -81.42,41.63 -131.9,62.84 -51.03,21.44 -92.02,37.46 -143.93,59.27 -45.76,19.23 -259.2,112.27 -291.44,114.96l0 25.4c224.6,-5.01 696.59,-249.78 787.4,-270.94 -76.22,113.83 -177.8,226.92 -177.8,372.54 42.7,-11.4 190.34,-247.41 218.45,-289.56 12.51,-18.76 22.06,-31.73 33.84,-50.82 41.82,-67.71 23.93,-65 116.89,-3.4 29.23,19.36 41.61,31.85 71.09,47.44 -34.67,72.24 -59.27,211.91 -59.27,296.34l25.4 0c2.38,-28.66 81.94,-241.86 110.07,-262.47 8.62,37.03 90.68,174.14 114.91,215.28 13.13,22.28 15.89,34.35 31.39,53.28l80.32 89.02c16.34,17.36 23.47,30.35 35.84,48.82 -19.72,10.44 -127.64,67.73 -143.93,67.73 -129.35,0 -516.41,-66.05 -601.13,-25.4 -23.86,-89.35 -125.48,-101.6 -203.2,-101.6 -87.38,0 -95.06,52.51 -147.72,-13.1 -42.87,-53.41 -68.18,-58.29 -146.43,-73.75 -129.55,-25.6 -257.42,-23.21 -417.05,-23.21 89.17,-133.16 365.32,-252.03 270.93,-448.74 29.51,-19.75 55.06,-39.86 84.68,-59.25 75.32,-49.33 206.77,-157.6 152.39,-270.94zm321.73 -397.94l8.47 0c0,66.87 16.93,105.94 16.93,169.34l-25.4 0 0 -169.34zm3132.66 -152.4c18.86,0 100.89,70.88 118.53,84.67 75.74,59.18 285.66,227.27 364.07,245.53 -10.86,22.63 -27.02,113.7 -33.17,144.64l-93.83 456.49c-55.45,-26.6 -232.22,36.66 -308.04,56.04 -14.5,3.71 -89.68,20.38 -98.36,11.7l0.71 -24.05c27.29,-126.5 24.69,-39.21 24.69,-204.55 -83.19,1.85 -156.95,134.86 -312.08,178.99 -19.55,5.56 -42.01,6.89 -60.45,15.74 9.68,-41.54 16.93,-109.81 16.93,-160.86 -30.67,0 -185.37,25.31 -203.2,33.86 -22.52,-33.62 -38.88,-56.45 -76.2,-76.2 34.02,-70.9 50.28,-117.27 141.15,-163.64 51.18,-26.12 35.81,1.56 62.05,-48.02 -19.34,-26.4 -90.77,-72.79 -110.07,-101.6 178.64,-119.63 397.94,-45.96 397.94,-110.07 0,-45.58 -133.51,-133.62 -177.8,-143.93 3.25,-39.11 21.85,-37.69 69.27,-66.2 28.46,-17.12 56.16,-33.54 85.91,-49.56 32.46,-17.47 156.4,-78.98 191.95,-78.98zm-3081.86 127c15.51,10.39 29.3,18.2 44.39,31.82 88.19,79.58 234.33,222.18 353.54,222.18 0,-114.05 16.94,-191.38 16.94,-237.06 38.21,25.59 84.66,104.84 84.66,177.8 0,105.03 -191.97,190.84 -71,536.67 15.83,45.26 53.02,118.97 54.07,166.06l-175.73 -129.08c-23.74,-23.62 -36.39,-29.52 -59.33,-50.73 -189.66,-175.43 -351.03,-412.83 -600.42,-551.04l-70.45 -39.62c134.68,3 231.29,127 465.66,127 0,-96.63 -42.33,-144.36 -42.33,-254zm2946.39 -211.66l0 8.46 0 -8.46 0 0zm-2345.26 668.86c-52.52,0 -82.53,-13.23 -127,-16.93 1.77,-79.44 63.47,-158.83 106.73,-223.47 112.79,-168.51 101.76,-166.51 255.1,-320.64 38.65,-38.85 84.29,-69.47 129.13,-99.46 42.15,-28.18 99.78,-56.75 151.18,-77.42 104.92,-42.2 234.95,-71.78 373.86,-83.34 0,287.91 -295.68,597.62 -553.14,725.32 -93.99,46.62 -200.24,95.94 -335.86,95.94zm2209.8 -643.46c0,46.54 12.44,33.86 143.93,33.86 29.19,0 32.78,-6.26 59.27,-8.46 -6.97,6.05 -9.02,8.03 -18.7,15.16l-66.35 43.72c-30.71,18.48 -59.37,33.73 -91.13,52.81 -38.64,23.23 -170.96,87.34 -170.96,133.84 0,35.11 33.5,22.83 97.34,55.06 18.7,9.44 29.66,16.06 49.79,26.41 34.88,17.93 22.45,5.52 39.14,37.06 -137.34,0 -344.34,36.92 -397.93,110.07 28.8,43.01 95.97,65.73 110.06,118.53 -31.18,8.33 -51.63,30.04 -79.77,47.23 -23.87,14.58 -58.95,39.99 -81.09,45.91 -0.66,-29.49 -10.96,-71.61 -14.48,-95.59 -42.03,-286.33 -39.57,-236.17 -209.32,-451.08 -19.92,-25.23 -38.44,-38.84 -47.14,-71.4 100.88,-23.5 274.78,-166.26 470.49,-198.38 99.72,-16.36 203.33,-22.07 300.03,-38.63 209.04,-35.8 188.18,-58.96 262.42,-76.26 -72.34,136.7 -355.6,134.03 -355.6,220.14zm-1134.53 -228.6l0 0zm-905.93 -16.94c-13.3,57.07 3.57,64.71 46.96,96.98 22.52,16.75 81.44,57.48 105.43,63.89 -8.85,33.15 -19.46,31.38 -43.36,49.77 -90.77,69.85 -204.8,148.19 -266.65,241.35 -15.82,23.83 -26.33,39.55 -36.95,64.65 -17.44,41.22 -3.96,38.7 -42.5,59.1 -4.81,-57.75 -62.48,-177.51 -127,-194.74 -19.39,40.42 -59.27,186.77 -59.27,245.54 -42.73,-22.61 -61.87,-31.4 -100.48,-60.39 -81.66,-61.32 -209.33,-204.62 -280.52,-210.55l145.15 -591.45c11.8,-45.94 18.17,-54.56 105.23,-72.57 100.79,-20.86 227.29,-22.64 328.89,-43.64 162.92,-33.68 41.89,-45.87 199.67,-45.87 25.58,0 35.71,35.62 71.3,81.1 109.54,139.96 118.98,114.89 199.63,282.97 -42.38,0 -87.55,9.54 -121.07,14.39 -45.54,6.59 -85.22,10.33 -124.46,19.47zm135.46 -414.86c48.38,1.08 80.83,13.13 84.67,59.26l-84.67 -59.26zm-101.6 -279.4l624.49 501.57c35.43,35.81 160.48,168.8 171.38,209.63 -116.59,-55.95 -443.15,83.06 -548.46,111.94 -17.44,4.79 -61.58,15.61 -78.08,23.52 -29.58,-44.17 -84.46,-87.74 -143.93,-101.6l237.07 -25.4c-1.77,-79.37 -112.86,-245.31 -160.89,-313.24 -22.45,-31.75 -45.51,-60.01 -67.71,-93.16 32.43,2.7 55.68,17.13 77.47,32.6 23.7,16.82 46.78,33.09 75.27,44.75 90.77,37.12 44.6,-100.11 21.65,-133.21 -54.69,-78.89 -205.69,-142.24 -208.26,-257.4zm0 0l0 0zm872.07 711.2c-75.37,-20.13 -201.62,-347.68 -381,-389.47l0 -25.4c45.46,-10.59 109.11,-58.99 142.84,-85.75 40.55,-32.16 90.02,-79.98 102.69,-134.38 154.07,0 276.7,-107.98 304.8,-228.6 71.57,0 116.46,5.27 168.04,-18.23 39.65,-18.06 77.52,-52.54 110.5,-84.22l178.66 -193.88c0,47.29 10.99,118.94 15.68,162.11 14.21,130.63 -1.33,340.57 136.72,413.62 -10.89,22.69 -39.4,224.67 6.52,289.81 21.46,30.44 29.62,31.92 78.14,31.92 0,96.16 -3.57,269.82 25.4,330.2 -152.89,80.9 -397.72,108.66 -465.66,237.07 -20.13,-10.65 -28.87,-19.55 -50.8,-25.4 5.87,-70.6 163.2,-119.79 223.79,-131.81 62.18,-12.35 59.72,0.56 72.54,-54.46 -198.42,0 -306.99,79.86 -361.72,96.43 -34.1,10.33 -77.49,-29.55 -95.48,-54.1 9.26,-34.68 57.83,-92.51 80.97,-122.23 78.1,-100.29 246.8,-239.05 367.76,-267.23l0 -25.4c-134.09,0 -230.88,111.81 -355.59,177.8 27.88,-119.68 249.84,-584.02 253.99,-770.47 -38.29,10.23 -42.42,64.26 -70.1,133.09 -20.37,50.64 -37.71,97.78 -56.98,146.23l-84.5 220.3c-12.53,32.9 -8.94,50.24 -42.41,59.18 -2.05,-92 -85.8,-268.57 -186.27,-321.73 8.68,37.25 134.99,234.28 150.49,340.58 13.89,95.32 -14.58,143.2 -40.19,201.52l-76.43 177.56c-27.09,-7.23 -27.99,-12.29 -42.72,-33.48 -62.41,-89.77 -114.48,-223.01 -180.72,-310.35 -16.41,-21.64 -21.28,-30.17 -47.5,-37.17 2.5,30.03 42.9,113.56 56.92,146.29 18.59,43.37 51.65,107.29 61.62,150.05z"/>
 </g>
</svg>
