<?xml version="1.0" encoding="UTF-8"?>
<!DOCTYPE svg PUBLIC "-//W3C//DTD SVG 1.1//EN" "http://www.w3.org/Graphics/SVG/1.1/DTD/svg11.dtd">
<!-- Creator: CorelDRAW 2020 (64-Bit Оценочная версия) -->
<svg xmlns="http://www.w3.org/2000/svg" xml:space="preserve" width="42.3332mm" height="42.3332mm" version="1.1" style="shape-rendering:geometricPrecision; text-rendering:geometricPrecision; image-rendering:optimizeQuality; fill-rule:evenodd; clip-rule:evenodd"
viewBox="0 0 4233.32 4233.32"
 xmlns:xlink="http://www.w3.org/1999/xlink"
 xmlns:xodm="http://www.corel.com/coreldraw/odm/2003">
 <defs>
  <style type="text/css">
   <![CDATA[
    .fil0 {fill:black}
   ]]>
  </style>
 </defs>
 <g id="Слой_x0020_1">
  <metadata id="CorelCorpID_0Corel-Layer"/>
  <g id="_1696901014560">
   <path class="fil0" d="M1563.44 3239.43c47.81,11.14 112.79,73.47 160.87,84.67l0 16.93c-134.81,35.75 -150.15,-79.26 -160.87,-101.6zm981.14 330.2l-34.25 0c-176.73,-4.38 -465.93,-79.63 -585.51,-133.23 -58.73,-26.31 -45.71,-1.43 -138.04,26.36 -105.48,31.75 -219.24,17.87 -316.52,-11.61 -114.8,-34.79 -260.52,-125.89 -329.25,-221.09l-110.96 -253.1c-44.09,21.16 -109.2,33.08 -159.65,52.02 -150.77,56.62 -324.06,111.84 -492.72,125.35 -63.94,5.12 -147.12,-0.49 -202.02,-8.77 -33.03,-4.99 -41.43,-19.73 -58.14,-43.47 -15.63,-22.21 -24.45,-40.48 -27.27,-73.28l0 -26.83c14.54,-196.03 324.88,-642.5 438.3,-780.51l147.15 -166.12c42.65,-53.77 223.92,-215.37 278.15,-229.85 -3.96,-47.55 -101.53,-194.91 -132.13,-240.41 -84,-124.95 -210.5,-349.29 -222.86,-505.29 -11.07,-139.73 -31.74,-212.28 143.36,-202.83 225.16,12.14 675.22,355.11 831.48,540.34 25.02,29.65 8.22,32.26 49.01,35.66 81.26,-348.82 507.08,-572.27 771.97,-760.61 37.15,-26.41 81.38,-37.34 110,5.63 18.95,28.44 48,233.87 49.63,289.04 4.66,157.1 -6.06,330.56 -40.88,467.67l-35.59 133.73c58.47,0 124.54,-12.06 178.24,-16.48 138.03,-11.39 423.34,9.51 550.61,24.23 226.94,26.24 433.49,76.13 609.11,152.88 149.31,65.25 407.2,225.29 270.95,415.36 -63.18,88.12 -126.06,116.87 -214.63,166.37 -52.38,29.27 -203.88,101.13 -234.35,146.64 66.46,5.53 189.81,53.82 239.84,81.89 120.97,67.87 307.1,207.63 231.78,372.8 -86.76,190.28 -447.85,293.32 -658.18,307.02 -100.39,6.55 -201.27,9.2 -313.27,9.05 -97.13,-0.14 -194.97,-25.69 -287.57,-25.69 7.44,89.38 166.75,339.65 -305.79,347.13zm305.79 -347.13l0 0zm-1269.99 -76.2c0,-147.69 146.36,-293.73 239.16,-387.37 73.38,-74.05 92.73,-75.88 197.53,-115.74 113.02,-42.98 120.3,-59.41 260.08,-32.8 84,16 158.38,54.63 211.37,101.89 69.72,62.17 87.5,82.08 141.25,172.02 41.33,69.16 70.48,129.41 104.41,208.85 65.15,152.54 163.26,269.26 12.3,397.99 -173.9,148.3 -596.67,-34.34 -752.46,-98.09 -28.63,-11.72 -391.6,-178.89 -406.56,-211.5 -5.08,-11.08 -7.08,-16.37 -7.08,-35.25zm948.26 -592.67l178.63 -75.37c48.52,-17.4 164.35,-27.05 226.25,-36.21 117.44,-17.39 350.58,16.85 466.09,36.47 205.2,34.86 964.17,205.66 587.42,542.91 -41.59,37.23 -123.74,74.13 -185.07,94.32 -264.33,87.03 -552.83,79.54 -832.81,64.17 -47.23,-2.6 -105.4,-16.69 -152.65,-16.69 -3.9,-46.88 -40,-126.58 -59.62,-160.51l-125.32 -213.35c-41.09,-77.23 -102.92,-20.06 -102.92,-235.74zm-1016 668.87c0,113.52 91.88,183.7 181.67,173.4 105.79,-12.14 73.45,-46.14 131.6,4.4 -409.4,95.38 -465.6,-174.55 -307.76,-485.56 89.53,-176.43 212.71,-245.26 381.07,-330.13 54.9,-27.67 207.79,-98.71 265.35,-98.71 136.9,0 222.95,27.85 270.94,118.53 -79.28,-6.59 -42.26,-33.86 -279.4,-33.86 -175.94,0 -325.83,94.04 -438.23,205.24 -54.64,54.06 -95.45,116.66 -131.96,189.77 -30.54,61.17 -73.28,170.72 -73.28,256.92zm948.26 -677.33l0 0zm0 0c-17.25,-11.56 -19.4,-16.79 -37.37,-30.36 -14.71,-11.12 -25.96,-18.4 -40.25,-27.48 -154.87,-98.44 -386.6,-44.59 -534.75,38.12 -18.17,10.14 -24.86,15.98 -41.23,26.51 -97.59,62.78 -179.78,127.82 -252.4,221.73 -21.25,27.48 -37.16,45.99 -57.64,77.83 -102.55,159.45 -144.92,356.9 -52.35,531.84 -175.91,-40.98 -322.03,-247.38 -354.64,-432.76 -38.94,-221.41 55.36,-433.56 229.1,-547.91 96.07,-63.22 250.25,-89.17 363.8,-127.27 105,-35.22 95.78,-35.28 263.88,-12.26 168.09,23.02 471.1,98.5 513.85,282.01zm668.87 -160.87c-170.86,0 -201.23,1.21 -369.02,37.38 -179.89,38.77 -226.35,112.15 -271.31,61.09 -152.71,-173.42 -338.5,-267.8 -578.87,-267.8 42.63,-88.83 37.05,-142.1 118.89,-279.05 83.64,-139.96 199.16,-208.15 344.09,-265.51l341.34 -65.63c45.83,-1.13 54.75,7.03 93.11,9.1 32.62,1.75 68.74,-2.27 101.19,0.4 267.02,21.99 1168.84,124.84 1168.84,465.22 0,130.44 -366.39,293.84 -505.02,359.18 -34.18,16.12 -75.95,1.3 -139.24,-11.26 -93.73,-18.59 -195.53,-43.12 -304,-43.12zm-1270 -177.8c-271.27,0 -584.13,110.28 -740.41,317.91 -83.47,110.9 -97.78,176.19 -97.78,317.09 0,33.07 6.49,62.9 16.93,84.66l-195.81 58.19c-62.92,21.04 -129.26,43.48 -193.55,60.45 -133.4,35.2 -280.17,59.16 -448.83,59.16 8.7,-32.61 34.88,-33.42 103.19,-74.6 129.12,-77.83 246.28,-176.87 356.02,-278.98l98.32 -87.94c23.02,-18.37 28.23,-21.22 49.9,-43.24 93.95,-95.51 366.09,-289.44 466.51,-363.21 19.57,-14.38 34.38,-23.34 54.59,-38.56l317.95 -232.38c43.53,-31.98 188.73,-143.46 221.44,-151.08 22.46,96.41 33.87,32.13 33.87,194.73 0,94.25 -30.24,125.89 -42.34,177.8zm-1718.72 846.66c4.34,-195.03 133.35,-402.25 237.03,-558.82 56.29,-85 113.14,-148.15 172.93,-225.01l197.52 -208.88c103.02,-103.02 313.05,-289.08 467.53,-328.34 50.76,-12.9 106.59,-20.46 164.76,-29.96 158.99,-25.99 110.72,-63.07 327.67,3.71 57.32,17.64 103.26,25.02 117.42,85.77l-216.68 147.39c-97.06,67.17 -939.34,698.34 -1042.63,803.1l-190.98 173.08c-116.48,99.69 -137.43,91.36 -234.57,137.96zm1811.86 -1134.53c-6.51,-27.93 -67.41,-156.23 -90.64,-180.29 -85.48,-88.54 -205.69,-141.19 -205.69,-251.51 0,-53.55 111.97,-193.29 142.13,-238.86 35.39,-53.48 132.72,-166.03 182.09,-207.37 79.72,-66.75 387.73,-295.62 463.17,-315.76 47.59,31.86 53.36,114.96 58.77,186.76 15,199.17 38.15,343.2 -19.86,546.41 -14.01,49.1 -23.56,78.03 -47.09,113.77 -73.24,111.22 -179.08,71.57 -318.59,180.95 -60.94,47.78 -101.19,123.64 -164.29,165.9zm-1312.33 -982.13c53.65,0 137.65,15.4 184.68,26.99 56.95,14.03 113.53,33.36 162.58,57.55 46.86,23.12 93.93,43.13 138.81,72.86l130.86 89.27c161.74,121.74 312.01,275.54 407.53,456.06 -161.83,-37.7 -397.67,15.48 -547.5,87.5 -20.48,9.85 -34.97,14.35 -53.47,22.73 -22.52,10.2 -32.07,18.87 -59.42,25.24 -119.55,-80.05 -364.07,-612.73 -364.07,-838.2z"/>
   <path class="fil0" d="M2731.84 3230.96c-3.29,-147.74 -218.51,-491.02 -364.07,-524.93 25.13,47.49 57.88,85.66 90.72,129.41 51.14,68.14 184.68,252.53 219.84,330.5 18.23,40.44 8.23,61.26 53.51,65.02z"/>
   <path class="fil0" d="M2545.57 3256.36c-3.4,-152.8 -290.12,-417.69 -423.33,-448.73 11.21,48.12 61.22,85.17 98.03,113.64l115.76 104.37c64.2,64.58 109.95,96.97 155.18,175.02 20.85,36 10.9,45.58 54.36,55.7z"/>
   <path class="fil0" d="M1275.58 1613.83c-3.11,-37.39 -5.42,-26.18 -48.13,-78.87 -22.61,-27.89 -38.83,-47.71 -60.69,-74.77l-126.2 -144.74c-45.32,-51.47 -230.53,-246.12 -264.51,-268.88 2.79,125.51 153.57,240.08 230.54,302.85 92.35,75.32 170.71,131.89 228.79,236.88 15.69,28.37 5.9,24.68 40.2,27.53z"/>
   <path class="fil0" d="M2410.11 3222.5c-10.52,-26.06 5.8,-9.34 -33.24,-26.03l-127.65 -50.16c-163.06,-64.7 -269.24,-156.43 -399.27,-261.12 -24.03,-19.36 -8.65,-17.38 -49.44,-18.29 43.76,163.91 549.44,384.46 609.6,355.6z"/>
   <path class="fil0" d="M3637.77 2875.36c-6.99,-26.15 0.73,-16.37 -24.46,-26.34 -8.17,-3.24 -35.94,-6.62 -50.43,-8.84 -316.21,-48.39 -390.97,-41.01 -746.38,-41.01 19.37,26.43 113.69,17.37 201.91,26.69 63.55,6.71 140.69,8.83 210.62,17.97 60.35,7.89 147.62,12.92 207.96,20.65 44.79,5.73 171.22,25.07 200.78,10.88z"/>
   <path class="fil0" d="M2562.5 3087.03c-1.17,-52.56 -41.83,-101.2 -65.95,-137.24 -14.12,-21.1 -27.2,-39.62 -42.78,-58.82 -65.57,-80.85 -200.47,-210.01 -306.13,-218.8 23.08,86.45 292.41,215.83 361.23,358.43 18.81,38.97 7.13,45.6 53.63,56.43z"/>
   <path class="fil0" d="M3282.17 3120.9c-88.76,0 -172.72,1.66 -256.39,-14.55 -120.2,-23.29 -110.36,-43.72 -141.54,-10.85 16,21.85 23.85,19.25 57.27,27.39 24.58,6 44.65,10.89 76.8,16.33 237.55,40.15 539.91,-11.54 762.16,-95.75 24.31,-9.22 43.88,-21.38 77.43,-24.17l0 -25.4c-56.99,-13.28 -22.82,6.16 -117.17,43.69 -45.22,17.99 -79.7,28.74 -135.1,42.71 -90.32,22.79 -207.55,40.6 -323.46,40.6z"/>
   <path class="fil0" d="M2223.84 3417.23c-20.77,-28.35 -115.02,-52.87 -152.5,-67.63 -62.71,-24.69 -94.07,-45.84 -149.62,-78.98 -50.06,-29.86 -251.6,-157.58 -290.54,-166.66 3.01,36.27 21.14,42.72 44.34,65.72 66.48,65.9 131.75,95.87 212.51,134.63 50.36,24.18 294.43,132.78 335.81,112.92z"/>
   <path class="fil0" d="M2867.3 2926.16c101.12,23.56 56.03,42.34 245.54,42.34 128.36,0 239.58,-15.75 355.59,-25.4l-23.37 -10.49c-12.6,-3.92 -16.26,-4.97 -36.05,-6.29l-389 -17.4c-63.43,-0.54 -97.21,-8.16 -152.71,-8.16l0 25.4z"/>
   <path class="fil0" d="M2664.1 2731.43l0 25.4c36.67,0 36.32,5.89 60.54,7.28 32.83,1.87 264.5,-32.9 328.64,-32.97 44.13,-0.05 105.09,6.54 135.75,-8.17 -10.47,-28.96 -37.96,-33.87 -93.13,-33.87 -190.12,0 -237.05,-3.04 -431.8,42.33z"/>
   <path class="fil0" d="M2418.57 3332.56c-10.03,-37.58 -78.56,-42.25 -147.47,-55.72 -123.81,-24.19 -198.57,-44.29 -306.15,-108.72 -27.57,-16.5 -113.82,-65.89 -139.04,-72.62 18.22,68.25 176.26,137.95 249.07,165.79 106.15,40.6 201.04,71.27 343.59,71.27z"/>
   <path class="fil0" d="M3815.56 2790.7c-26,-97.38 -458.87,-169.33 -584.19,-169.33 10.43,39.07 46.46,26.85 140.42,45.84 217.28,43.92 160.26,24.81 369.95,112.77 29.16,12.23 45.77,24.18 73.82,10.72z"/>
   <path class="fil0" d="M3316.03 3027.76c-58.81,0 -176.21,-25.47 -211.66,-8.46 9.31,25.73 -12.38,6.91 24.73,26.07 98.64,50.92 409.44,9.44 520.75,-39.39 27.03,-11.86 23.93,-14.34 47.18,-20.55l0 -16.93c-55.51,-12.94 -46.99,16.77 -171.56,40.1 -56.15,10.53 -148.43,19.16 -209.44,19.16z"/>
   <path class="fil0" d="M3874.83 2722.97c-26.04,-97.55 -362.15,-177.8 -482.6,-177.8l51.68 24.52c24.58,8.65 34.44,14.03 61.51,23.16 99.66,33.6 280.26,109.34 369.41,130.12z"/>
   <path class="fil0" d="M2731.84 2570.57c87.42,0 206.97,-33.87 338.66,-33.87 56.36,0 141,22.06 169.33,8.47 -30.35,-83.86 -395.63,-21.14 -452.7,-12.45 -46.64,7.1 -51.53,-7.32 -55.29,37.85z"/>
   <path class="fil0" d="M2088.37 1444.5c42.87,-31.41 301.55,-412.86 304.8,-558.8 -51.43,4.28 -26.61,24.05 -75.95,135.72 -62.82,142.2 -109.68,221.74 -190.09,351.77 -16.52,26.72 -31.25,39.08 -38.76,71.31z"/>
   <path class="fil0" d="M2181.51 3002.36c-19.66,-73.61 -211.9,-205.82 -270.94,-237.06 8.08,97.05 181.17,216.15 270.94,237.06z"/>
   <path class="fil0" d="M801.45 2468.97l-302.81 241c-16.52,25.63 -14.8,42.46 15.61,32.33l262 -205.4c24.79,-18.94 55.62,-42.53 45.31,-64.83 -13.25,-28.63 -18.66,-3.91 -20.11,-3.1z"/>
   <path class="fil0" d="M2528.64 3442.63c-79.74,0 -82.75,5.8 -151.2,-11.01 -32.39,-7.95 -31.91,-16.41 -52,11.01 16.34,22.3 33.16,20.17 67.45,25.68 117.18,18.86 325.68,10.82 355.88,-118.81 -33.3,-8.52 -25.31,-5.75 -35.91,6.42 -12.39,14.21 -0.86,6.49 -17.68,24.65 -31.73,34.24 -111.36,62.06 -166.54,62.06z"/>
   <path class="fil0" d="M2824.97 2646.77c39.59,0 79.26,0.34 118.82,0.29 51.08,-0.08 61.5,-8.76 109.78,-8.76l0 -25.4c-57.94,-13.5 -120.54,-11.61 -177.74,0.06 -36.52,7.45 -42.5,2.51 -50.86,33.81z"/>
   <path class="fil0" d="M2088.37 1444.5c-37.67,27.61 -101.01,168.86 -124.19,214.48 -14.96,29.45 -34.69,50.69 -19.74,81.85 23.39,-9.44 9.32,6.16 42.27,-67.8l67.68 -152.45c12.64,-25.42 26.87,-45.55 33.98,-76.08z"/>
   <path class="fil0" d="M3908.7 2934.63c72.9,-6.06 124.49,-121.99 42.33,-143.93 0,123.28 -26.13,83.24 -42.33,143.93z"/>
   <path class="fil0" d="M2189.97 2181.1c0,15.41 -0.53,0.91 8.47,16.93 7.4,-2.68 24.72,7.88 42.33,-67.73 -37.96,0.85 -22.69,-6.44 -37.6,13.19 -4.7,6.19 -13.2,29.46 -13.2,37.61z"/>
   <path class="fil0" d="M3493.83 1876.3c52.52,-1.17 49.29,-7.96 59.27,-50.8 -17.52,1.46 -26.95,2.15 -40.71,10.09 -22.17,12.79 -17.85,9.17 -18.56,40.71z"/>
   <path class="fil0" d="M1038.51 2172.63c-22.41,-5.94 -6.96,0.68 -25.4,-8.46 -11.79,8.64 -51.39,42.27 -22.99,55.27 22.93,10.5 41.57,-17.51 48.39,-46.81z"/>
   <path class="fil0" d="M2714.9 2147.23c17.34,0 15.57,-17.44 16.94,-33.86 -29.86,-6.96 -27.82,-8.47 -67.74,-8.47 6.54,24.49 21.75,42.33 50.8,42.33z"/>
   <path class="fil0" d="M767.58 2231.9l76.2 0 0 -25.4c-22.7,-5.44 -15.96,-8.47 -33.87,-8.47 -28.44,0 -32.59,15.46 -42.33,33.87z"/>
   <path class="fil0" d="M293.45 2858.43c23.9,-1.99 33.87,0.2 33.87,-25.4l0 -16.93c0,-25.6 -9.97,-23.41 -33.87,-25.4l0 67.73z"/>
   <path class="fil0" d="M852.25 2121.83l42.33 0 0 -25.4c-18.99,-4.42 -19.47,-8.46 -42.33,-8.46l-25.4 0c1.99,23.9 -0.2,33.86 25.4,33.86z"/>
   <path class="fil0" d="M2850.37 1850.9c51.37,11.97 32.9,28.04 67.73,8.47 -2.03,-5.63 6,-32.23 -67.73,-33.87l0 25.4z"/>
   <path class="fil0" d="M3857.9 2079.5c77.58,0 45.84,2.39 67.73,-8.47 -6.32,-17.47 3.56,-11.07 -13.53,-20.33 -13.96,-7.57 -54.2,-20.14 -54.2,28.8z"/>
   <path class="fil0" d="M2757.24 2291.17c35.59,2.96 27.89,9.62 59.26,16.93 -5.33,-22.89 -9.1,-36.1 -28.68,-48.88 -26.96,-17.61 -30.58,-2.19 -30.58,31.95z"/>
   <path class="fil0" d="M2647.17 1732.37c-38.69,0.86 -22.54,-6.38 -37.91,13.43 -8.1,10.44 -15.93,29.86 -6.19,39.6 23.05,23.06 42.01,-27.95 44.1,-53.03z"/>
   <path class="fil0" d="M1470.31 2409.7c22.72,12.76 29.14,8.47 67.73,8.47l0 -25.4c-72.39,-16.87 -61.24,-0.47 -67.73,16.93z"/>
   <path class="fil0" d="M1597.31 1859.37c0,15.42 12.9,13.59 25.4,16.93 6.38,-27.39 14.39,-37.14 16.93,-67.73l-25.4 0c-5.41,23.25 -16.93,34.41 -16.93,50.8z"/>
   <path class="fil0" d="M1419.51 1867.83l0 33.87c23.9,-1.99 33.87,0.2 33.87,-25.4l0 -33.87c-23.91,1.99 -33.87,-0.19 -33.87,25.4z"/>
   <path class="fil0" d="M3688.57 2223.43l0 33.87c23.9,-1.99 33.86,0.2 33.86,-25.4l0 -33.87c-23.9,1.99 -33.86,-0.19 -33.86,25.4z"/>
   <path class="fil0" d="M869.18 2824.57l0 42.33c53.72,-4.47 39.28,-47.1 8.47,-67.73 -5.81,10.32 -8.47,9.05 -8.47,25.4z"/>
   <path class="fil0" d="M1216.31 1850.9c22.71,5.44 15.96,8.47 33.87,8.47 25.59,0 23.41,-9.97 25.4,-33.87l-59.27 0 0 25.4z"/>
   <path class="fil0" d="M1157.04 2045.63c43.39,-10.1 33.87,-9.34 33.87,-59.26 -45.18,3.76 -33.87,10.29 -33.87,59.26z"/>
   <path class="fil0" d="M3163.63 2062.57c24.55,-8.89 6.85,8.68 27.85,-22.96 9.87,-14.89 10.39,-18.7 14.49,-36.31 -51.07,1.14 -54.19,33.64 -42.34,59.27z"/>
   <path class="fil0" d="M2316.97 2011.77c59.1,0 48.05,11.79 67.74,-25.4 -21.17,-11.89 -29.32,-13.5 -49.91,0.89 -26.95,18.84 -8.04,-2.53 -17.83,24.51z"/>
   <path class="fil0" d="M979.25 2037.17l25.4 0c2.96,-35.59 9.62,-27.9 16.93,-59.27l-33.87 0c-2.74,32.89 -7.64,22.06 -8.46,59.27z"/>
   <polygon class="fil0" points="733.71,2409.7 759.11,2409.7 768.86,2359.18 734.04,2349.4 "/>
   <path class="fil0" d="M1004.65 2587.5c16.42,-1.37 33.86,0.4 33.86,-16.93 0,-26.16 -18.25,-40.35 -33.86,-50.8l0 67.73z"/>
   <path class="fil0" d="M1504.18 2739.9c0,-45.07 0.81,-55.68 -42.34,-59.27 2.03,24.37 0.9,20.92 12.59,38.22 15.68,23.19 6.91,14.95 29.75,21.05z"/>
   <path class="fil0" d="M1961.37 2384.3c13.37,19.24 -5.83,16.93 59.27,16.93 -4.76,-57.16 -56.61,-32.49 -59.27,-16.93z"/>
   <path class="fil0" d="M1207.84 3002.36c-1.6,-19.32 6.26,-35.56 -50.8,-50.8 3.4,40.8 10.01,47.41 50.8,50.8z"/>
   <path class="fil0" d="M3078.97 1850.9c38.91,9.07 28.03,22.91 59.26,8.47 -1.52,-4.2 8.25,-28.25 -59.26,-33.87l0 25.4z"/>
   <path class="fil0" d="M3231.37 1757.77l50.8 0c-1.99,-23.91 0.19,-33.87 -25.4,-33.87l-25.4 0 0 33.87z"/>
   <path class="fil0" d="M649.05 2274.23l0 33.87 25.4 0c4.34,-52.17 27.91,-35.54 -16.94,-59.27 -5.8,10.33 -8.46,9.06 -8.46,25.4z"/>
   <path class="fil0" d="M2833.44 1690.03l67.73 0 0 -16.93c-18.99,-4.42 -19.47,-8.47 -42.33,-8.47l-25.4 0 0 25.4z"/>
   <path class="fil0" d="M1300.98 2993.9c27.88,-2.32 14.36,16.25 59.26,-50.8 -15.74,0.35 -42.64,-11.46 -59.26,50.8z"/>
   <path class="fil0" d="M2443.97 2155.7c29.01,-2.41 27.41,1.43 35.2,-24.72 5.9,-19.78 2.88,-23.12 -1.33,-43.01 -24.07,17.63 -26.1,34.38 -33.87,67.73z"/>
   <path class="fil0" d="M3307.57 2274.23l0 33.87 25.4 0 -3.16 -56.11c-10.78,-27.68 -6.46,-11.67 -13.78,-20.09 -4.42,18.99 -8.46,19.47 -8.46,42.33z"/>
   <path class="fil0" d="M1808.97 2155.7l0 -42.33c-22.86,-1.91 -23.03,-3.97 -42.33,-8.47 0.68,30.32 -5.4,17.93 8.13,34.2 5.56,6.68 21.84,13.3 34.2,16.6z"/>
   <path class="fil0" d="M1182.44 2697.57c19.31,-4.5 19.48,-6.57 42.34,-8.47 -0.74,-33.27 2.31,-19.86 -8.47,-42.33 -29.26,7.81 -30.86,14.71 -33.87,50.8z"/>
   <path class="fil0" d="M2537.1 2358.9l25.4 0c-3.11,-37.42 -10.41,-50.74 -42.33,-59.27 2.96,35.59 9.63,27.9 16.93,59.27z"/>
   <polygon class="fil0" points="1411.04,1757.77 1470.31,1757.77 1470.31,1732.37 1411.04,1732.37 "/>
   <polygon class="fil0" points="3502.3,2147.23 3561.57,2147.23 3561.57,2121.83 3502.3,2121.83 "/>
   <path class="fil0" d="M2630.24 1969.43c71.36,-5.94 33.9,-50.73 33.86,-50.8 -12.05,4.37 -19.57,-10.56 -33.86,50.8z"/>
   <path class="fil0" d="M2892.7 2054.1c15.5,-3.61 25.28,-4.75 36.21,-15.54 9.44,-9.33 15.69,-21.23 7.19,-29.73 -25.66,-25.67 -39.65,29.17 -43.4,45.27z"/>
   <path class="fil0" d="M3062.04 2282.7c-0.44,-5.21 9.99,-32.43 -32.34,-44.64 -6.59,-1.9 6.7,-18.4 -12.82,1.12 -20.21,20.22 28.05,38.95 45.16,43.52z"/>
   <path class="fil0" d="M1521.11 2189.57c23.84,0 15.68,-3.67 25.4,-16.94 -12.82,-18.45 4.67,-16.93 -50.8,-16.93 1.99,23.9 -0.2,33.87 25.4,33.87z"/>
   <path class="fil0" d="M1757.14 2002.97l51.83 0.33 0 -25.4c-19.3,-4.5 -19.47,-6.56 -42.33,-8.47l-9.5 33.54z"/>
   <path class="fil0" d="M445.85 2536.7l0 25.4c45.63,-3.8 46.21,-29.35 16.93,-50.8 -14.27,9.92 -16.93,1.21 -16.93,25.4z"/>
   <path class="fil0" d="M3392.23 1969.43c-7.35,-27.55 -15.94,-27.93 -32.05,-35.68 -11.64,-5.6 -1.11,-1.94 -18.75,-6.65 3.08,36.98 22.46,55.44 50.8,42.33z"/>
   <path class="fil0" d="M1334.84 2562.1c19.94,4.64 25.01,7.89 50.8,8.47l0 -25.4 -50.51 -9.75 -0.29 26.68z"/>
   <path class="fil0" d="M2062.97 2028.7c40.13,-0.89 34.45,0 42.34,-33.87l-33.54 -9.5c-4.83,20.34 -6.85,20.52 -8.8,43.37z"/>
   <path class="fil0" d="M1317.91 2028.7c37.55,-0.84 39.29,2.7 42.33,-33.87l-42.33 0 0 33.87z"/>
   <path class="fil0" d="M1639.64 2113.37l33.54 -9.51c-2.5,-36.26 -0.69,-32.47 -25.07,-41.29 -11.3,23.54 -8.47,16.39 -8.47,50.8z"/>
   <path class="fil0" d="M1834.37 2409.7c-8.76,-32.83 -11.42,-32.99 -50.8,-33.87 8.88,38.1 5.7,33.87 50.8,33.87z"/>
   <polygon class="fil0" points="1554.98,2587.5 1580.38,2587.5 1580.38,2536.7 1554.98,2536.7 "/>
   <path class="fil0" d="M1360.24 2756.83c-1.06,-47.58 -3.72,-42.33 -50.8,-42.33 14.12,21.08 23.12,34.94 50.8,42.33z"/>
   <path class="fil0" d="M886.11 2680.63l50.52 -9.75c-4.76,-17.58 -1.7,-24.11 -25.12,-24.11 -24.1,0 -25.4,9.8 -25.4,33.86z"/>
   <path class="fil0" d="M2367.77 1808.57l59.27 0c-5.26,-19.69 -1.04,-24.74 -25.75,-26.44 -32.59,-2.25 -21.91,10.84 -33.52,26.44z"/>
   <path class="fil0" d="M903.05 2341.97c19.3,-4.5 19.47,-6.57 42.33,-8.47l0 -25.4 -42.33 0 0 33.87z"/>
   <path class="fil0" d="M1673.51 2477.43l50.8 0 0 -25.4 -25.4 0c-20.02,0 -24.86,5.85 -25.4,25.4z"/>
   <path class="fil0" d="M471.25 3027.76l67.73 -25.4c-38.97,-9.07 -67.73,-24.28 -67.73,25.4z"/>
   <path class="fil0" d="M572.85 2460.5l42.33 0c-6.36,-23.82 1.26,-11.74 -16.29,-26.05 -0.52,-0.43 -23.2,-14.38 -26.04,-16.28l0 42.33z"/>
   <path class="fil0" d="M378.12 2697.57l50.79 0c-5.03,-18.87 -1.97,-25.4 -25.39,-25.4l-25.4 0 0 25.4z"/>
   <path class="fil0" d="M2130.71 2384.3c7.53,-4.23 16.93,-5.51 16.93,-16.93 0,-25.6 -9.96,-23.41 -33.87,-25.4 0.97,43.51 -7.66,24.31 16.94,42.33z"/>
   <path class="fil0" d="M1233.24 3188.63c26.22,-2.23 16.01,0.1 33.87,-8.47 -7.43,-27.82 -12.28,-27.88 -33.87,-42.33l0 50.8z"/>
   <polygon class="fil0" points="665.98,2866.9 733.71,2841.5 665.98,2833.03 "/>
   <path class="fil0" d="M2189.97 1918.63l25.4 0c0,-48.93 7.33,-33.48 -25.4,-50.8l0 50.8z"/>
   <path class="fil0" d="M1089.31 1901.7l33.54 -9.5 0.33 -15.9c-22.27,-5.19 -24.88,-7.7 -42.33,-16.93 0.65,29.5 -1.3,22.64 8.46,42.33z"/>
   <path class="fil0" d="M1157.04 2833.03l0 25.4 25.4 0c-0.57,-25.79 -3.82,-30.87 -8.46,-50.8 -14.27,9.92 -16.94,1.22 -16.94,25.4z"/>
   <path class="fil0" d="M1893.64 2333.5c-2.91,-26.63 -5.84,-23.56 -33.87,-42.33 0.84,37.55 -2.69,39.29 33.87,42.33z"/>
   <polygon class="fil0" points="1665.04,2358.9 1698.91,2358.9 1698.91,2333.5 1665.04,2333.5 "/>
   <path class="fil0" d="M1207.84 2172.63c-3.51,-32.1 4.79,-24.86 -33.86,-33.86 9,38.65 1.76,30.35 33.86,33.86z"/>
   <path class="fil0" d="M3663.17 2037.17l0 -33.87 -25.4 0c2.75,33.1 -5.13,25.72 25.4,33.87z"/>
  </g>
 </g>
</svg>
