<?xml version="1.0" encoding="utf-8"?>
<!-- Generator: Adobe Illustrator 24.1.2, SVG Export Plug-In . SVG Version: 6.00 Build 0)  -->
<svg version="1.1" id="Слой_1" xmlns="http://www.w3.org/2000/svg" xmlns:xlink="http://www.w3.org/1999/xlink" x="0px" y="0px"
	 viewBox="0 0 172 172" style="enable-background:new 0 0 172 172;" xml:space="preserve">
<style type="text/css">
	.st0{fill:none;}
	.st1{fill:#E9130C;}
</style>
<g id="Слой_2_1_">
	<g id="Слой_1-2">
		<rect class="st0" width="172" height="172"/>
		<path class="st1" d="M129.1,145.4h-80c-4.8,0-9.7,0.5-13.8-2.4c-5.5-3.9-5.4-9.8-5.4-15.7V59c0-5.4-0.4-10.7,3.8-15
			s9.5-3.8,14.8-3.8h70.2c3.4,0,6.9-0.2,10.3,0c8.6,0.4,12.9,7.1,12.9,15.1v43.5c0,11.4,0.8,23.1,0,34.5
			C141.5,140,135.9,145.3,129.1,145.4c-4.6,0.2-4.6,7.4,0,7.2c11-0.3,19.9-9.2,20-20.2c0.1-4.8,0-9.7,0-14.5V64.1
			c0-4.3,0.3-8.7-0.1-13c-1.1-10.5-9.9-17.8-20.3-18c-13.9-0.4-27.9,0-41.8,0c-14.5,0-29-0.2-43.4,0c-9.3,0.1-17.8,5.8-20.1,15.1
			c-1.1,4.5-0.6,9.6-0.6,14.1v53.5c0,5.4-0.1,10.8,0,16.2c0.2,10,6.8,18.7,16.9,20.3c4.2,0.7,8.6,0.3,12.8,0.3h76.7
			C133.8,152.6,133.8,145.4,129.1,145.4z"/>
		<path class="st1" d="M37.4,53.3h94.5c0.8,0,1.5-0.7,1.5-1.5s-0.7-1.5-1.5-1.5H37.4c-0.8,0-1.5,0.7-1.5,1.5S36.6,53.3,37.4,53.3z"
			/>
		<path class="st1" d="M47.8,35.3c0-2.3-0.7-5.6,0-7.8c0.3-1-0.1-0.2,0.1-0.4c0.7-0.6,1.9-0.5,2.7-0.6c1.3-0.1,2.6,0,3.9,0
			s2.6-0.1,3.9,0c2,0.2,2.5,0,2.8,1c0.7,2.1,0,5.5,0,7.8c0,4.6,7.2,4.6,7.2,0c0-3.3,0.8-7.6-0.4-10.7c-2-5.4-8.7-5.2-13.4-5.2
			s-10.9-0.2-13.3,4.8c-1.5,3.1-0.6,7.8-0.6,11.1C40.6,40,47.8,40,47.8,35.3L47.8,35.3z"/>
		<path class="st1" d="M110.8,35.3c0-2.3-0.7-5.6,0-7.8c0.3-1-0.1-0.2,0.1-0.4c0.7-0.6,1.9-0.5,2.7-0.6c1.3-0.1,2.6,0,3.9,0
			s2.6-0.1,3.9,0c2,0.2,2.5,0,2.8,1c0.7,2.1,0,5.5,0,7.8c0,4.6,7.2,4.6,7.2,0c0-3.3,0.8-7.6-0.4-10.7c-2-5.4-8.7-5.2-13.4-5.2
			s-10.9-0.2-13.3,4.8c-1.4,3.1-0.6,7.8-0.6,11.1C103.6,40,110.8,40,110.8,35.3L110.8,35.3z"/>
		<path class="st1" d="M78.7,90.4l13.1,13.1c1.4,1.4,3.7,1.4,5.1,0L118,82.3c3.3-3.3-1.8-8.4-5.1-5.1L91.8,98.4h5.1L83.8,85.3
			C80.5,82,75.4,87.1,78.7,90.4z"/>
		<path class="st1" d="M49.7,76.3c-2.6,0-5.6,0.4-8.2,0c-2.8-0.4-2.7-2.8-2.7-5s-0.5-5.1,2.6-5.7c2.7-0.4,5.4-0.4,8.1,0
			c2.8,0.5,2.8,2.5,2.8,4.7S52.9,76,49.7,76.3c-1.9,0.3-1.9,3.3,0,3.1c3.1-0.1,5.6-2.6,5.6-5.7c0.1-2.2,0.5-5.3-0.4-7.4
			c-1.9-4.9-9.3-3.9-13.5-3.6c-3.1,0.1-5.6,2.6-5.6,5.7c-0.1,2.2-0.4,5.3,0.4,7.4c2,5.1,9.2,3.6,13.5,3.6c0.8,0,1.5-0.7,1.5-1.5
			S50.6,76.3,49.7,76.3z"/>
		<path class="st1" d="M49.7,102.2c-2.6,0-5.6,0.4-8.2,0c-2.8-0.4-2.7-2.8-2.7-5s-0.5-5.2,2.6-5.7c2.7-0.4,5.4-0.4,8.1,0
			c2.8,0.5,2.8,2.5,2.8,4.7S52.9,101.9,49.7,102.2c-1.9,0.2-1.9,3.2,0,3c3.1-0.1,5.6-2.6,5.6-5.7c0.1-2.2,0.5-5.3-0.4-7.4
			c-1.9-4.9-9.3-3.9-13.5-3.6c-3.1,0.1-5.6,2.6-5.6,5.7c-0.1,2.2-0.4,5.3,0.4,7.4c2,5.1,9.2,3.6,13.5,3.6c0.7-0.5,0.7-1.7,0.2-2.4
			C49.8,102.7,49.7,102.6,49.7,102.2z"/>
		<path class="st1" d="M49.7,130.1c-2.6,0-5.6,0.4-8.2,0c-2.8-0.4-2.7-2.8-2.7-5s-0.5-5.1,2.6-5.7c2.7-0.4,5.4-0.4,8.1,0
			c2.8,0.5,2.8,2.5,2.8,4.7S52.9,129.8,49.7,130.1c-1.9,0.3-1.9,3.3,0,3.1c3.1-0.1,5.6-2.6,5.6-5.7c0.1-2.2,0.5-5.3-0.4-7.4
			c-1.9-4.9-9.3-3.9-13.5-3.6c-3.1,0.1-5.6,2.6-5.6,5.7c-0.1,2.2-0.4,5.3,0.4,7.4c2,5.1,9.2,3.6,13.5,3.6c0.8,0,1.5-0.7,1.5-1.5
			S50.6,130.1,49.7,130.1z"/>
		<path class="st1" d="M74.4,76.3c-2.6,0-5.6,0.4-8.2,0c-2.8-0.4-2.7-2.8-2.7-5s-0.5-5.1,2.6-5.7c2.7-0.4,5.4-0.4,8.1,0
			C77,66,77,68.1,77,70.3S77.6,76,74.4,76.3c-1.9,0.2-1.9,3.2,0,3c3.1-0.1,5.6-2.6,5.6-5.7c0.1-2.2,0.4-5.3-0.4-7.4
			c-1.9-4.9-9.3-3.9-13.4-3.6c-3.1,0.1-5.6,2.6-5.6,5.7c-0.1,2.2-0.4,5.3,0.4,7.4c2,5.1,9.2,3.6,13.5,3.6c0.8,0,1.5-0.7,1.5-1.5
			C75.9,76.9,75.2,76.3,74.4,76.3L74.4,76.3z"/>
		<path class="st1" d="M74.4,102.2c-2.6,0-5.6,0.4-8.2,0c-2.8-0.4-2.7-2.8-2.7-5S63,92,66.1,91.5c2.7-0.4,5.4-0.4,8.1,0
			C77,92,77,94,77,96.2S77.6,101.9,74.4,102.2c-1.9,0.2-1.9,3.2,0,3c3.1-0.1,5.6-2.6,5.6-5.7c0.1-2.2,0.4-5.3-0.4-7.4
			c-1.9-4.9-9.3-3.9-13.4-3.6c-3.1,0.1-5.6,2.6-5.6,5.7c-0.1,2.2-0.4,5.3,0.4,7.4c2,5.1,9.2,3.6,13.5,3.6c0.8-0.1,1.4-0.8,1.4-1.6
			C75.7,102.8,75.1,102.3,74.4,102.2z"/>
		<path class="st1" d="M74.4,130.1c-2.6,0-5.6,0.4-8.2,0c-2.8-0.4-2.7-2.8-2.7-5s-0.5-5.1,2.6-5.7c2.7-0.4,5.4-0.4,8.1,0
			c2.8,0.5,2.8,2.5,2.8,4.7S77.5,129.8,74.4,130.1c-1.9,0.3-1.9,3.3,0,3.1c3.1-0.1,5.6-2.6,5.6-5.7c0.1-2.2,0.4-5.3-0.4-7.4
			c-1.9-4.9-9.3-3.9-13.4-3.6c-3.1,0.1-5.6,2.6-5.6,5.7c-0.1,2.2-0.4,5.3,0.4,7.4c2,5.1,9.2,3.6,13.5,3.6c0.8,0,1.5-0.7,1.5-1.5
			S75.2,130.1,74.4,130.1z"/>
		<path class="st1" d="M99,76.3c-2.6,0-5.6,0.4-8.2,0c-2.8-0.4-2.7-2.8-2.7-5s-0.5-5.1,2.6-5.7c2.7-0.4,5.4-0.4,8.1,0
			c2.8,0.5,2.8,2.5,2.8,4.7S102.2,76,99,76.3c-1.9,0.3-1.9,3.3,0,3.1c3.1-0.1,5.6-2.6,5.6-5.7c0.1-2.2,0.4-5.3-0.4-7.4
			c-1.9-4.9-9.3-3.9-13.4-3.6c-3.1,0.1-5.6,2.6-5.6,5.7c-0.1,2.2-0.4,5.3,0.4,7.4c2,5.1,9.2,3.6,13.4,3.6c0.9,0,1.6-0.7,1.6-1.5
			C100.6,76.9,99.9,76.2,99,76.3z"/>
		<path class="st1" d="M99,130.1c-2.6,0-5.6,0.4-8.2,0c-2.8-0.4-2.7-2.8-2.7-5s-0.5-5.1,2.6-5.7c2.7-0.4,5.4-0.4,8.1,0
			c2.8,0.5,2.8,2.5,2.8,4.7S102.2,129.8,99,130.1c-1.9,0.3-1.9,3.3,0,3.1c3.1-0.1,5.6-2.6,5.6-5.7c0.1-2.2,0.4-5.3-0.4-7.4
			c-1.9-4.9-9.3-3.9-13.4-3.6c-3.1,0.1-5.6,2.6-5.6,5.7c-0.1,2.2-0.4,5.3,0.4,7.4c2,5.1,9.2,3.6,13.4,3.6c0.9,0,1.6-0.6,1.6-1.5
			S99.9,130,99,130.1z"/>
		<path class="st1" d="M123.7,76.3c-2.6,0-5.6,0.4-8.2,0c-2.8-0.4-2.7-2.8-2.7-5s-0.5-5.1,2.6-5.7c2.7-0.4,5.4-0.4,8.1,0
			c2.8,0.5,2.8,2.5,2.8,4.7S126.8,76,123.7,76.3c-1.9,0.3-1.9,3.3,0,3.1c3.1-0.1,5.6-2.6,5.6-5.7c0.1-2.2,0.4-5.3-0.4-7.4
			c-1.9-4.9-9.3-3.9-13.4-3.6c-3.1,0.1-5.6,2.6-5.6,5.7c-0.1,2.2-0.4,5.3,0.4,7.4c2,5.1,9.2,3.6,13.4,3.6c0.8,0,1.5-0.7,1.5-1.5
			C125.2,77,124.5,76.3,123.7,76.3z"/>
		<path class="st1" d="M123.7,102.2c-2.6,0-5.6,0.4-8.2,0c-2.8-0.4-2.7-2.8-2.7-5s-0.5-5.1,2.6-5.7c2.7-0.4,5.4-0.4,8.1,0
			c2.8,0.5,2.8,2.5,2.8,4.7S126.8,101.9,123.7,102.2c-1.9,0.3-1.9,3.3,0,3.1c3.1-0.1,5.6-2.6,5.6-5.7c0.1-2.2,0.4-5.3-0.4-7.4
			c-1.9-4.9-9.3-3.9-13.4-3.6c-3.1,0.1-5.6,2.6-5.6,5.7c-0.1,2.2-0.4,5.3,0.4,7.4c2,5.1,9.2,3.6,13.4,3.6c0.8,0,1.5-0.7,1.5-1.5
			C125.2,102.9,124.5,102.2,123.7,102.2z"/>
		<path class="st1" d="M123.7,130.1c-2.6,0-5.6,0.4-8.2,0c-2.8-0.4-2.7-2.8-2.7-5s-0.5-5.1,2.6-5.7c2.7-0.4,5.4-0.4,8.1,0
			c2.8,0.5,2.8,2.5,2.8,4.7S126.8,129.8,123.7,130.1c-1.9,0.3-1.9,3.3,0,3.1c3.1-0.1,5.6-2.6,5.6-5.7c0.1-2.2,0.4-5.3-0.4-7.4
			c-1.9-4.9-9.3-3.9-13.4-3.6c-3.1,0.1-5.6,2.6-5.6,5.7c-0.1,2.2-0.4,5.3,0.4,7.4c2,5.1,9.2,3.6,13.4,3.6c0.8,0,1.5-0.7,1.5-1.5
			C125.2,130.8,124.5,130.1,123.7,130.1z"/>
	</g>
</g>
</svg>
